<svg width="269" height="240" viewBox="0 0 269 240" fill="none" xmlns="http://www.w3.org/2000/svg">
<path d="M222.273 54.5083C211.187 48.4378 199.637 46.0081 187.033 47.5614C171.507 49.478 159.267 51.7366 144.39 45.9511C131.899 41.0918 120.492 33.8742 108.579 27.825C84.2114 15.463 60.0219 11.6369 41.7533 36.0188C32.0347 48.9935 24.6674 63.892 19.5588 79.6098C11.3222 104.968 4.55342 133.048 8.26557 159.531C12.9681 193.105 41.7533 208.872 76.2029 196.703C90.1252 191.787 103.577 184.59 118.433 182.531C149.512 178.213 175.141 206.742 212.419 199.816C276.673 187.875 271.928 81.6903 222.281 54.5083H222.273Z" fill="#E2FBD7"/>
<path opacity="0.7" d="M222.273 54.5083C211.187 48.4378 199.637 46.0081 187.033 47.5614C171.507 49.478 159.267 51.7366 144.39 45.9511C131.899 41.0918 120.492 33.8742 108.579 27.825C84.2114 15.463 60.0219 11.6369 41.7533 36.0188C32.0347 48.9935 24.6674 63.892 19.5588 79.6098C11.3222 104.968 4.55342 133.048 8.26557 159.531C12.9681 193.105 41.7533 208.872 76.2029 196.703C90.1252 191.787 103.577 184.59 118.433 182.531C149.512 178.213 175.141 206.742 212.419 199.816C276.673 187.875 271.928 81.6903 222.281 54.5083H222.273Z" fill="white"/>
<path d="M232.006 27.1537C227.482 24.6884 225.423 26.7404 223.784 24.6884C222.138 22.6293 228.308 17.2855 215.968 11.9417C215.968 11.9417 215.148 0.42764 198.283 0.0143879C181.418 -0.398865 185.943 11.5285 181.418 14.407C176.894 17.2855 175.661 12.7611 171.137 15.6396C166.613 18.5181 168.672 24.2752 164.967 25.1017C161.262 25.9211 156.331 21.3966 151.807 24.2823C147.282 27.1679 147.282 29.6261 145.223 29.6261C143.164 29.6261 139.053 27.9802 136.588 29.6261C134.122 31.272 131.244 33.3311 131.244 33.3311H235.298C235.298 33.3311 236.531 29.6261 232.006 27.1608V27.1537Z" fill="#E2FBD7"/>
<path opacity="0.5" d="M232.006 27.1537C227.482 24.6884 225.423 26.7404 223.784 24.6884C222.138 22.6293 228.308 17.2855 215.968 11.9417C215.968 11.9417 215.148 0.42764 198.283 0.0143879C181.418 -0.398865 185.943 11.5285 181.418 14.407C176.894 17.2855 175.661 12.7611 171.137 15.6396C166.613 18.5181 168.672 24.2752 164.967 25.1017C161.262 25.9211 156.331 21.3966 151.807 24.2823C147.282 27.1679 147.282 29.6261 145.223 29.6261C143.164 29.6261 139.053 27.9802 136.588 29.6261C134.122 31.272 131.244 33.3311 131.244 33.3311H235.298C235.298 33.3311 236.531 29.6261 232.006 27.1608V27.1537Z" fill="white"/>
<path d="M114.03 119.586C110.852 117.854 109.406 119.294 108.251 117.854C107.097 116.408 111.429 112.653 102.765 108.898C102.765 108.898 102.188 100.811 90.3461 100.519C78.5043 100.227 81.682 108.606 78.5043 110.63C75.3265 112.653 74.4572 109.475 71.2795 111.499C68.1017 113.522 69.5481 117.562 66.9474 118.139C64.3468 118.717 60.884 115.539 57.7063 117.562C54.5285 119.586 54.5285 121.317 53.0821 121.317C51.6357 121.317 48.7501 120.163 47.0187 121.317C45.2873 122.471 43.2638 123.918 43.2638 123.918H116.345C116.345 123.918 117.215 121.317 114.037 119.586H114.03Z" fill="white"/>
<path opacity="0.5" d="M114.03 119.586C110.852 117.854 109.406 119.294 108.251 117.854C107.097 116.408 111.429 112.653 102.765 108.898C102.765 108.898 102.188 100.811 90.3461 100.519C78.5043 100.227 81.682 108.606 78.5043 110.63C75.3265 112.653 74.4572 109.475 71.2795 111.499C68.1017 113.522 69.5481 117.562 66.9474 118.139C64.3468 118.717 60.884 115.539 57.7063 117.562C54.5285 119.586 54.5285 121.317 53.0821 121.317C51.6357 121.317 48.7501 120.163 47.0187 121.317C45.2873 122.471 43.2638 123.918 43.2638 123.918H116.345C116.345 123.918 117.215 121.317 114.037 119.586H114.03Z" fill="white"/>
<path d="M142.708 239.645V95.5977H150.31V239.645" fill="#1D1F30"/>
<path d="M142.708 239.645V95.5977H150.31V239.645" stroke="#1D1F30" stroke-linecap="round" stroke-linejoin="round"/>
<path d="M138.91 239.645V95.5977H146.513V239.645" fill="#E2FBD7"/>
<path d="M138.91 239.645V95.5977H146.513V239.645" stroke="#1D1F30" stroke-linecap="round" stroke-linejoin="round"/>
<g style="mix-blend-mode:multiply" opacity="0.3">
<path d="M146.513 95.5977H138.91V112.698H146.513V95.5977Z" fill="#1D1F30"/>
</g>
<path d="M171.358 39.3509H115.02L139.58 99.6572H195.918V63.9038C195.918 50.3448 184.924 39.3438 171.358 39.3438V39.3509Z" fill="#E2FBD7" stroke="#1D1F30" stroke-linecap="round" stroke-linejoin="round"/>
<path d="M170.937 62.293H165.016" stroke="#1D1F30" stroke-linecap="round" stroke-linejoin="round"/>
<path d="M195.854 62.293H177.913" stroke="#1D1F30" stroke-linecap="round" stroke-linejoin="round"/>
<path d="M115.02 39.3516C128.572 39.3516 139.58 50.3526 139.58 63.9116V99.6651H90.4673V63.9116C90.4673 50.3598 101.468 39.3516 115.027 39.3516H115.02Z" fill="#1D1F30" stroke="#1D1F30" stroke-linecap="round" stroke-linejoin="round"/>
<path d="M139.573 95.5977H97.2502V99.6661H139.573V95.5977Z" fill="#E2FBD7" stroke="#1D1F30" stroke-linecap="round" stroke-linejoin="round"/>
<path d="M139.573 95.5977H51.9849V99.6661H139.573V95.5977Z" fill="#E2FBD7" stroke="#1D1F30" stroke-linecap="round" stroke-linejoin="round"/>
<path d="M175.013 24.8164H157.436V37.1641H175.013V24.8164Z" fill="#1D1F30" stroke="#1D1F30" stroke-linecap="round" stroke-linejoin="round"/>
<path d="M158.861 24.8164H155.063V63.2916H158.861V24.8164Z" fill="white" stroke="#1D1F30" stroke-linecap="round" stroke-linejoin="round"/>
<path d="M156.958 68.5227C159.319 68.5227 161.233 66.6087 161.233 64.2477C161.233 61.8867 159.319 59.9727 156.958 59.9727C154.597 59.9727 152.683 61.8867 152.683 64.2477C152.683 66.6087 154.597 68.5227 156.958 68.5227Z" fill="#1D1F30" stroke="#1D1F30" stroke-linecap="round" stroke-linejoin="round"/>
<path d="M94.2649 49.2344C104.183 54.2718 121.426 62.3445 137.329 66.4057" stroke="white" stroke-linecap="round" stroke-linejoin="round"/>
<path d="M85.9429 44.8164C85.9429 44.8164 89.1206 46.6119 94.2649 49.2268" stroke="#1D1F30" stroke-linecap="round" stroke-linejoin="round"/>
<path d="M82.3732 44.582L89.5054 27.6458L37.7847 15.0273L82.3732 44.582Z" fill="white" stroke="#1D1F30" stroke-width="1.26" stroke-linecap="round" stroke-linejoin="round"/>
<path d="M85.8502 29.6907L82.3732 44.582L37.7847 15.0273L85.8502 29.6907Z" fill="#E2FBD7" stroke="#1D1F30" stroke-width="1.26" stroke-linecap="round" stroke-linejoin="round"/>
<path d="M85.8502 29.6907L77.7348 36.6447L37.7847 15.0273L85.8502 29.6907Z" fill="white" stroke="#1D1F30" stroke-width="1.26" stroke-linecap="round" stroke-linejoin="round"/>
<path d="M89.5054 27.6458L96.7302 24.7032L37.7847 15.0273L89.5054 27.6458Z" fill="white" stroke="#1D1F30" stroke-width="1.26" stroke-linecap="round" stroke-linejoin="round"/>
<path d="M72.3269 41.9453L74.0013 42.9713" stroke="#1D1F30" stroke-linecap="round" stroke-linejoin="round"/>
<path d="M63.1926 36.3438L68.8 39.7851" stroke="#1D1F30" stroke-linecap="round" stroke-linejoin="round"/>
<path d="M56.8939 77.0232V58.6406L109.463 67.0981L56.8939 77.0232Z" fill="white" stroke="#1D1F30" stroke-width="1.26" stroke-linecap="round" stroke-linejoin="round"/>
<path d="M59.4661 61.9531L56.8939 77.0226L109.463 67.0974L59.4661 61.9531Z" fill="#E2FBD7" stroke="#1D1F30" stroke-width="1.26" stroke-linecap="round" stroke-linejoin="round"/>
<path d="M59.4661 61.9531L64.247 71.5078L109.463 67.0974L59.4661 61.9531Z" fill="white" stroke="#1D1F30" stroke-width="1.26" stroke-linecap="round" stroke-linejoin="round"/>
<path d="M56.8939 58.6398L51.3792 53.125L109.463 67.0972L56.8939 58.6398Z" fill="white" stroke="#1D1F30" stroke-width="1.26" stroke-linecap="round" stroke-linejoin="round"/>
<path d="M75.7183 76.6802L80.2783 75.7539" stroke="#1D1F30" stroke-linecap="round" stroke-linejoin="round"/>
<path d="M59.7012 79.9354L71.1654 77.6055" stroke="#1D1F30" stroke-linecap="round" stroke-linejoin="round"/>
<path d="M50.5598 75.8828C50.5598 75.8828 9.23456 83.0079 1.39701 120.058C-6.44054 157.108 34.8847 159.246 42.0098 141.433C49.1348 123.621 17.7846 116.496 10.6596 133.596C3.53452 150.696 24.9097 179.908 54.1223 181.333C78.3974 182.516 146.456 154.18 188.807 147.019C188.807 147.019 220.136 138.341 268.586 140.243" stroke="#1D1F30" stroke-linecap="round" stroke-linejoin="round"/>
</svg>
