<svg width="220" height="81" viewBox="0 0 220 81" fill="none" xmlns="http://www.w3.org/2000/svg">
<path d="M136.659 71.3226C137.645 70.1582 138.506 68.9404 139.243 67.6692V78V78.5H139.743H152.543H153.043V78V52.4C153.043 47.9495 154.154 44.5505 156.313 42.1359C158.547 39.7124 161.377 38.5 164.843 38.5C168.402 38.5 170.933 39.5948 172.546 41.7037C174.187 43.8494 175.043 46.9913 175.043 51.2V78V78.5H175.543H188.343H188.843V78V50C188.843 46.0551 188.373 42.5844 187.421 39.6H191.483V60.7C191.483 67.2268 193.062 71.9153 196.368 74.5888C199.614 77.2128 203.902 78.5 209.183 78.5H217.883H218.383V78V67.1V66.6H217.883H211.683C209.191 66.6 207.543 66.1705 206.611 65.4228C205.775 64.6316 205.283 63.1474 205.283 60.8V39.6H218.183H218.683V39.1V28.4V27.9H218.183H205.283V15.1V14.6H204.783H193.483H193.036L192.986 15.044L191.536 27.9H183.483H182.983V28.4V31.9846C179.521 28.4486 174.822 26.7 168.943 26.7C164.934 26.7 161.41 27.584 158.389 29.3695L158.384 29.3721C155.885 30.8833 153.876 32.8418 152.361 35.2439L151.539 28.3409L151.487 27.9H151.043H139.743H139.243V28.4V38.1426C137.17 34.7139 134.362 31.9866 130.825 29.9659C127.007 27.7839 122.619 26.7 117.677 26.7C112.403 26.7 107.78 27.85 103.826 30.168C102.569 30.8953 101.399 31.719 100.314 32.6387L101.814 28.5731L102.063 27.9H101.345H87.9453H87.5858L87.4714 28.2408L75.3453 64.3302L63.2193 28.2408L63.1048 27.9H62.7453H49.3453H48.6292L48.8759 28.5722L51.9684 37H23.4328V18.8H55.8328H56.3328V18.3V8V7.5H55.8328H10.1328H9.63281V8V78V78.5H10.1328H55.8328H56.3328V78V67.7V67.2H55.8328H23.4328V48H52.8328H53.3328V47.5V40.7185L67.0759 78.1722L67.1962 78.5H67.5453H83.0453H83.3938L83.5144 78.1731L91.5031 56.5206C91.8524 60.4824 92.9297 64.0606 94.7428 67.2473C96.988 71.1934 100.088 74.2596 104.036 76.4378C107.986 78.6171 112.504 79.7 117.577 79.7C121.638 79.7 125.279 78.9554 128.487 77.4537C131.749 75.9584 134.476 73.9152 136.659 71.3226ZM136.659 71.3226C136.66 71.3224 136.66 71.3222 136.66 71.3221L136.277 71L136.659 71.323C136.659 71.3228 136.659 71.3227 136.659 71.3226ZM105.121 56.8H139.243V61.9H127.977H127.658L127.524 62.1894C126.698 63.9678 125.428 65.4313 123.702 66.5828C122.069 67.65 120.004 68.2 117.477 68.2C114.128 68.2 111.282 67.1416 108.913 65.029C106.736 63.0323 105.462 60.3049 105.121 56.8ZM109.67 40.7053L109.67 40.7054L109.677 40.7C111.987 38.9679 114.647 38.1 117.677 38.1C120.838 38.1 123.449 39.0318 125.547 40.8756C127.516 42.6061 128.652 44.9011 128.936 47.8H105.388C106.09 44.5989 107.527 42.2528 109.67 40.7053Z" stroke="#3B5998"/>
<path d="M5.85 74V74.15H6H51.7H51.85V74V63.7V63.55H51.7H18.95V43.65H48.7H48.85V43.5V34.7486L63.2717 74.0517L63.3078 74.15H63.4125H78.9125H79.017L79.0532 74.0519L87.6169 50.8412C87.7834 55.4226 88.8814 59.5014 90.9142 63.0742C93.1277 66.9647 96.181 69.9846 100.072 72.1313C103.964 74.2785 108.423 75.35 113.445 75.35C117.463 75.35 121.052 74.6133 124.208 73.136C127.426 71.6608 130.111 69.6478 132.259 67.0967C133.539 65.5842 134.606 63.9815 135.46 62.2886V74V74.15H135.61H148.41H148.56V74V48.4C148.56 43.8917 149.687 40.3986 151.921 37.901C154.225 35.4004 157.15 34.15 160.71 34.15C164.345 34.15 166.994 35.2718 168.691 37.4911C170.397 39.7215 171.26 42.9507 171.26 47.2V74V74.15H171.41H184.21H184.36V74V46C184.36 41.8753 183.843 38.2906 182.804 35.25H187.7V56.7C187.7 63.1847 189.27 67.7413 192.456 70.3167C195.623 72.8772 199.826 74.15 205.05 74.15H213.75H213.9V74V63.1V62.95H213.75H207.55C205.029 62.95 203.274 62.5177 202.249 61.6868C201.298 60.7962 200.8 59.1845 200.8 56.8V35.25H214.05H214.2V35.1V24.4V24.25H214.05H200.8V11.1V10.95H200.65H189.35H189.216L189.201 11.0832L187.716 24.25H179.35H179.2V24.4V28.8751C175.768 24.9871 170.964 23.05 164.81 23.05C160.854 23.05 157.394 23.9219 154.434 25.6709L154.433 25.6716C151.681 27.3357 149.537 29.5494 148.003 32.3114L147.059 24.3823L147.043 24.25H146.91H135.61H135.46V24.4V35.4501C135.399 35.3417 135.338 35.2338 135.275 35.1262C133.195 31.3692 130.276 28.4164 126.519 26.2698C122.76 24.1218 118.434 23.05 113.545 23.05C108.322 23.05 103.762 24.1883 99.8692 26.4703C98.2164 27.4272 96.714 28.5533 95.3622 29.8484L97.3532 24.4519L97.4277 24.25H97.2125H83.8125H83.7047L83.6703 24.3522L71.2125 61.429L58.7547 24.3522L58.7203 24.25H58.6125H45.2125H44.9977L45.0717 24.4517L48.3368 33.35H18.95V14.45H51.7H51.85V14.3V4V3.85H51.7H6H5.85V4V74ZM100.606 52.45H135.46V58.25H123.845H123.749L123.708 58.3368C122.854 60.1771 121.54 61.6895 119.762 62.875C118.058 63.9884 115.922 64.55 113.345 64.55C109.913 64.55 106.983 63.4624 104.545 61.2885C102.212 59.1497 100.896 56.2087 100.606 52.45ZM105.332 36.4216L105.335 36.42C107.707 34.6404 110.442 33.75 113.545 33.75C116.779 33.75 119.476 34.7062 121.646 36.6127C123.776 38.4851 124.958 40.9931 125.184 44.15H100.826C101.504 40.6687 103.01 38.0989 105.332 36.4216Z" stroke="#3B5998" stroke-width="0.3"/>
<path d="M0.95 71V71.05H1H46.7H46.75V71V60.7V60.65H46.7H13.85V40.55H43.7H43.75V40.5V31.1858L58.3656 71.0172L58.3776 71.05H58.4125H73.9125H73.9473L73.9594 71.0173L82.702 47.3214C82.802 52.0994 83.9013 56.3342 86.0011 60.0247C88.2056 63.8993 91.2456 66.906 95.1204 69.0438C98.9954 71.1817 103.437 72.25 108.445 72.25C112.451 72.25 116.025 71.5156 119.165 70.0455C122.372 68.5759 125.044 66.5715 127.183 64.0322C128.554 62.4116 129.68 60.6874 130.56 58.8596V71V71.05H130.61H143.41H143.46V71V45.4C143.46 40.8749 144.591 37.3549 146.847 34.8335C149.171 32.3112 152.124 31.05 155.71 31.05C159.366 31.05 162.049 32.1795 163.77 34.4304C165.495 36.6849 166.36 39.9391 166.36 44.2V71V71.05H166.41H179.21H179.26V71V43C179.26 38.8227 178.729 35.2055 177.664 32.15H182.8V53.7C182.8 60.1727 184.368 64.6915 187.519 67.2389C190.663 69.7813 194.842 71.05 200.05 71.05H208.75H208.8V71V60.1V60.05H208.75H202.55C200.021 60.05 198.236 59.617 197.183 58.7623C196.199 57.8433 195.7 56.1949 195.7 53.8V32.15H209.05H209.1V32.1V21.4V21.35H209.05H195.7V8.1V8.05H195.65H184.35H184.305L184.3 8.0944L182.805 21.35H174.35H174.3V21.4V26.1427C174.25 26.0837 174.199 26.0252 174.148 25.967C170.736 22.0875 165.955 20.15 159.81 20.15C155.869 20.15 152.427 21.0184 149.485 22.757L149.484 22.7572C146.656 24.4672 144.475 26.7599 142.941 29.6348L141.96 21.3941L141.955 21.35H141.91H130.61H130.56V21.4V32.8393C130.44 32.6165 130.316 32.3953 130.188 32.1756C128.117 28.4343 125.21 25.4944 121.469 23.3566C117.728 21.2184 113.419 20.15 108.545 20.15C103.337 20.15 98.7949 21.285 94.9195 23.5567C93.1436 24.5849 91.5421 25.8092 90.115 27.2295L92.2594 21.4173L92.2842 21.35H92.2125H78.8125H78.7766L78.7651 21.3841L66.2125 58.743L53.6599 21.3841L53.6484 21.35H53.6125H40.2125H40.1409L40.1656 21.4172L43.48 30.45H13.85V11.35H46.7H46.75V11.3V1V0.95H46.7H1H0.95V1V71ZM95.4982 49.35H130.56V55.35H118.845H118.813L118.799 55.3789C117.937 57.2368 116.61 58.7632 114.817 59.9584C113.094 61.085 110.937 61.65 108.345 61.65C104.89 61.65 101.935 60.5541 99.478 58.3628C97.1004 56.1833 95.7727 53.1808 95.4982 49.35ZM100.274 33.3405L100.275 33.34C102.665 31.5468 105.422 30.65 108.545 30.65C111.801 30.65 114.522 31.6132 116.712 33.5376C118.888 35.4506 120.082 38.0199 120.291 41.25H95.7047C96.3754 37.6895 97.8997 35.0552 100.274 33.3405Z" stroke="#3B5998" stroke-width="0.1"/>
</svg>
