<svg width="14" height="14" viewBox="0 0 14 14" fill="none" xmlns="http://www.w3.org/2000/svg">
<circle cx="7" cy="7" r="7" fill="#FFE5D3"/>
<path fill-rule="evenodd" clip-rule="evenodd" d="M6.58346 5.75016C6.58346 5.52016 6.77012 5.3335 7.00012 5.3335C7.23012 5.3335 7.41679 5.52016 7.41679 5.75016V7.41683C7.41679 7.64683 7.23012 7.8335 7.00012 7.8335C6.77012 7.8335 6.58346 7.64683 6.58346 7.41683V5.75016ZM6.58346 8.66683C6.58346 8.43683 6.77012 8.25016 7.00012 8.25016C7.23012 8.25016 7.41679 8.43683 7.41679 8.66683C7.41679 8.89683 7.23012 9.0835 7.00012 9.0835C6.77012 9.0835 6.58346 8.89683 6.58346 8.66683ZM10.6937 9.64725C10.5983 9.816 10.4125 9.91683 10.1967 9.91683H3.80333C3.5875 9.91683 3.40166 9.816 3.30666 9.64725C3.26166 9.56808 3.2025 9.40683 3.31375 9.2235L6.51 3.92433C6.70458 3.60183 7.29541 3.60183 7.49 3.92433L10.6867 9.2235C10.7975 9.40683 10.7387 9.56808 10.6937 9.64725ZM11.4004 8.79308L8.20375 3.4935C7.95416 3.08016 7.50416 2.8335 7 2.8335C6.49583 2.8335 6.04583 3.08016 5.79666 3.4935L2.6 8.79308C2.36291 9.186 2.35583 9.6585 2.58083 10.0568C2.82208 10.4847 3.29083 10.7502 3.80333 10.7502H10.1967C10.7096 10.7502 11.1779 10.4847 11.4196 10.0568C11.6446 9.6585 11.6375 9.186 11.4004 8.79308Z" fill="#EF8686"/>
</svg>
