<svg width="14" height="14" viewBox="0 0 14 14" fill="none" xmlns="http://www.w3.org/2000/svg">
<circle cx="7" cy="7" r="7" fill="#E2FBD7"/>
<path fill-rule="evenodd" clip-rule="evenodd" d="M9.50008 8.0775C9.33508 8.15125 9.0105 8.25 8.45841 8.25C7.99008 8.25 7.583 8.09042 7.15216 7.92167C6.668 7.73208 6.16716 7.53583 5.54175 7.53583C5.10133 7.53583 4.76008 7.58875 4.50008 7.66V7V4.25667C4.66508 4.18292 4.9905 4.08333 5.54175 4.08333C6.01008 4.08333 6.41716 4.24292 6.848 4.41167C7.33216 4.60125 7.833 4.7975 8.45841 4.7975C8.84925 4.7975 9.19841 4.75542 9.50008 4.6725V8.0775ZM10.0284 3.95C9.83591 3.81083 9.58675 3.77125 9.36216 3.84458C9.12216 3.9225 8.80966 3.96417 8.45841 3.96417C7.99008 3.96417 7.583 3.80458 7.15216 3.63583C6.668 3.44625 6.16716 3.25 5.54175 3.25C4.33883 3.25 3.873 3.64667 3.79175 3.72667C3.71175 3.80458 3.66675 3.91208 3.66675 4.02375V7V8.30958V10.3333C3.66675 10.5637 3.853 10.75 4.08341 10.75C4.31383 10.75 4.50008 10.5637 4.50008 10.3333V8.5425C4.66466 8.46917 4.98883 8.36917 5.54175 8.36917C6.01008 8.36917 6.41716 8.52875 6.848 8.6975C7.33216 8.88708 7.833 9.08333 8.45841 9.08333C9.21216 9.08333 9.67633 8.92583 9.93383 8.79375C10.1805 8.66583 10.3334 8.4175 10.3334 8.14542V4.54417C10.3334 4.31083 10.2197 4.08875 10.0284 3.95Z" fill="#60C6A8"/>
</svg>
