<svg width="14" height="14" viewBox="0 0 14 14" fill="none" xmlns="http://www.w3.org/2000/svg">
<circle cx="7" cy="7" r="7" fill="#DAD7FE"/>
<path fill-rule="evenodd" clip-rule="evenodd" d="M9.08335 5.33349H3.66669C3.43669 5.33349 3.25002 5.14724 3.25002 4.91683C3.25002 4.68641 3.43669 4.50016 3.66669 4.50016H9.11752L8.46835 3.99599C8.28669 3.85474 8.25377 3.59266 8.39502 3.41141C8.53627 3.22933 8.79835 3.19641 8.9796 3.33766L10.5888 4.58766C10.6917 4.66724 10.7509 4.79016 10.75 4.92058C10.7492 5.05016 10.6875 5.17224 10.5834 5.25016L8.91669 6.50016C8.84169 6.55641 8.75377 6.58349 8.6671 6.58349C8.54044 6.58349 8.41502 6.52599 8.33335 6.41683C8.19544 6.23266 8.23252 5.97141 8.41669 5.83349L9.08335 5.33349ZM4.91668 8.25016H10.3333C10.5633 8.25016 10.75 8.43641 10.75 8.66683C10.75 8.89724 10.5633 9.08349 10.3333 9.08349H4.88251L5.53168 9.58766C5.71334 9.72891 5.74626 9.99099 5.60501 10.1722C5.52293 10.2781 5.40001 10.3335 5.27584 10.3335C5.18626 10.3335 5.09626 10.3052 5.02043 10.246L3.41126 8.99599C3.30834 8.91641 3.24918 8.79349 3.25001 8.66308C3.25084 8.53349 3.31251 8.41141 3.41668 8.33349L5.08334 7.08349C5.26793 6.94558 5.52876 6.98266 5.66668 7.16683C5.80459 7.35099 5.76751 7.61224 5.58334 7.75016L4.91668 8.25016Z" fill="#3B5998"/>
</svg>
