<svg width="21" height="20" viewBox="0 0 21 20" fill="none" xmlns="http://www.w3.org/2000/svg">
<g id="Icons / Social / Telegram">
<path id="Vector" d="M16.7935 2.4975C16.5929 2.51209 16.3959 2.55916 16.2104 2.63687H16.2079C16.0298 2.7075 15.1829 3.06375 13.8954 3.60375L9.28165 5.54687C5.97102 6.94062 2.71664 8.31312 2.71664 8.31312L2.75539 8.29812C2.75539 8.29812 2.53102 8.37187 2.29664 8.5325C2.15185 8.62463 2.02725 8.74519 1.93039 8.88687C1.81539 9.05562 1.72289 9.31375 1.75727 9.58062C1.81352 10.0319 2.10602 10.3025 2.31602 10.4519C2.52852 10.6031 2.73102 10.6737 2.73102 10.6737H2.73602L5.7879 11.7019C5.92477 12.1412 6.71789 14.7487 6.90852 15.3494C7.02102 15.7081 7.13039 15.9325 7.26727 16.1037C7.33352 16.1912 7.41102 16.2644 7.50414 16.3231C7.55256 16.3513 7.60418 16.3735 7.6579 16.3894L7.62664 16.3819C7.63602 16.3844 7.64352 16.3919 7.65039 16.3944C7.6754 16.4012 7.69227 16.4037 7.72414 16.4087C8.20727 16.555 8.5954 16.255 8.5954 16.255L8.61727 16.2375L10.4191 14.5969L13.4391 16.9137L13.5079 16.9431C14.1373 17.2194 14.7748 17.0656 15.1116 16.7944C15.451 16.5212 15.5829 16.1719 15.5829 16.1719L15.6048 16.1156L17.9385 4.16C18.0048 3.865 18.0216 3.58875 17.9485 3.32062C17.8731 3.04926 17.699 2.81588 17.4604 2.66625C17.26 2.54444 17.0277 2.48565 16.7935 2.4975ZM16.7304 3.77875C16.7279 3.81812 16.7354 3.81375 16.7179 3.88937V3.89625L14.406 15.7275C14.396 15.7444 14.3791 15.7812 14.3329 15.8181C14.2841 15.8569 14.2454 15.8812 14.0423 15.8006L10.3485 12.9687L8.11727 15.0025L8.58602 12.0087L14.621 6.38375C14.8698 6.1525 14.7866 6.10375 14.7866 6.10375C14.8041 5.82 14.411 6.02062 14.411 6.02062L6.80102 10.735L6.79852 10.7225L3.15102 9.49437V9.49187L3.14164 9.49C3.14804 9.48787 3.1543 9.48537 3.16039 9.4825L3.18039 9.4725L3.19977 9.46562C3.19977 9.46562 6.45664 8.09312 9.76727 6.69937C11.4248 6.00125 13.0948 5.29812 14.3791 4.75562C15.1409 4.435 15.9034 4.11625 16.6666 3.79937C16.7179 3.77937 16.6935 3.77875 16.7304 3.77875Z" fill="#1D1F30"/>
</g>
</svg>
