<svg width="21" height="20" viewBox="0 0 21 20" fill="none" xmlns="http://www.w3.org/2000/svg">
<g id="Icons / Social / whatsapp">
<path id="Vector" fill-rule="evenodd" clip-rule="evenodd" d="M15.815 4.69C15.1229 3.99362 14.2995 3.44149 13.3926 3.06557C12.4856 2.68965 11.513 2.49741 10.5312 2.5C6.41562 2.5 3.0625 5.84999 3.0625 9.96562C3.05938 11.2761 3.4031 12.5641 4.05875 13.6987L3 17.5681L6.96 16.5281C8.05499 17.1246 9.28183 17.4377 10.5287 17.4387H10.5319C14.6481 17.4387 17.9975 14.0894 18 9.97062C18 7.97624 17.2238 6.10125 15.815 4.68937V4.69ZM10.5312 16.1769H10.5287C9.41722 16.1769 8.32609 15.8783 7.36938 15.3125L7.1425 15.1781L4.79125 15.7937L5.41875 13.5031L5.2725 13.2687C4.65037 12.2795 4.32101 11.1343 4.3225 9.96562C4.3225 6.54562 7.10813 3.7625 10.5338 3.7625C11.349 3.76046 12.1566 3.92016 12.9097 4.23235C13.6628 4.54454 14.3465 5.00302 14.9212 5.58125C15.4988 6.1567 15.9566 6.84088 16.2682 7.59427C16.5799 8.34766 16.7392 9.15533 16.7369 9.97062C16.7369 13.3937 13.9519 16.1769 10.5312 16.1769ZM13.9344 11.5281C13.7488 11.4356 12.8306 10.9844 12.66 10.9231C12.4894 10.8594 12.3644 10.83 12.24 11.0156C12.115 11.2031 11.7587 11.6237 11.6494 11.7481C11.5419 11.87 11.4319 11.8875 11.2463 11.7944C11.0588 11.7019 10.4581 11.5037 9.745 10.8669C9.19062 10.3731 8.815 9.76062 8.7075 9.575C8.5975 9.3875 8.695 9.2875 8.78813 9.19375C8.87312 9.11125 8.97563 8.97687 9.06875 8.86687C9.16125 8.76 9.19375 8.68187 9.25625 8.55687C9.3175 8.4325 9.28625 8.3225 9.23938 8.23C9.19312 8.1375 8.82 7.21687 8.66375 6.84312C8.51188 6.47937 8.35813 6.53062 8.24375 6.52375C8.13625 6.51874 8.01187 6.51875 7.8875 6.51875C7.7625 6.51875 7.56 6.565 7.38875 6.75312C7.21813 6.93875 6.73688 7.39062 6.73688 8.30812C6.73688 9.22625 7.40563 10.1144 7.49938 10.2394C7.59188 10.3612 8.815 12.2456 10.6869 13.0544C11.0337 13.2044 11.3884 13.3356 11.7494 13.4475C12.1962 13.5887 12.6038 13.5694 12.9263 13.5225C13.285 13.4694 14.0294 13.0712 14.1856 12.6344C14.34 12.2 14.34 11.8262 14.2931 11.7481C14.2469 11.67 14.1225 11.6231 13.9344 11.5281Z" fill="#1D1F30"/>
</g>
</svg>
