<svg width="21" height="20" viewBox="0 0 21 20" fill="none" xmlns="http://www.w3.org/2000/svg">
<g id="Icons / Social / slack">
<path id="Vector" d="M11.5361 1.875C11.3505 1.86489 11.1646 1.89143 10.9892 1.95312C10.8221 2.009 10.6678 2.0974 10.535 2.21323C10.4022 2.32906 10.2937 2.47003 10.2156 2.628C10.1376 2.78598 10.0916 2.95784 10.0803 3.13367C10.0691 3.30951 10.0927 3.48584 10.1499 3.6525L10.7161 5.3125L7.51299 6.38687L6.98549 4.785C6.92962 4.61789 6.84122 4.46351 6.72539 4.33073C6.60956 4.19796 6.46859 4.08943 6.31061 4.0114C6.15263 3.93337 5.98078 3.88739 5.80494 3.8761C5.62911 3.86481 5.45278 3.88844 5.28612 3.94562C4.57799 4.18187 4.18987 4.93937 4.42674 5.64437L4.95424 7.22625L3.29424 7.79312C2.58799 8.03 2.21737 8.80562 2.45424 9.51187C2.51006 9.67903 2.59841 9.83348 2.71421 9.96632C2.83002 10.0992 2.97098 10.2078 3.12896 10.2859C3.28694 10.3639 3.45882 10.41 3.63469 10.4213C3.81055 10.4326 3.98692 10.409 4.15362 10.3519L5.81362 9.805L6.88799 12.9881L5.28612 13.5156C5.11902 13.5715 4.96463 13.6599 4.83186 13.7757C4.69908 13.8916 4.59055 14.0325 4.51252 14.1905C4.43449 14.3485 4.38851 14.5203 4.37722 14.6962C4.36593 14.872 4.38956 15.0483 4.44674 15.215C4.68299 15.9231 5.44049 16.3112 6.14549 16.0744L7.72737 15.5469L8.29424 17.2069C8.53112 17.9131 9.30674 18.2837 10.013 18.0469C10.1802 17.9911 10.3346 17.9027 10.4674 17.7869C10.6003 17.6711 10.7089 17.5301 10.787 17.3722C10.8651 17.2142 10.9111 17.0423 10.9224 16.8664C10.9338 16.6906 10.9102 16.5142 10.853 16.3475L10.3061 14.6875L13.4892 13.6131L14.0167 15.215C14.0726 15.3821 14.161 15.5365 14.2768 15.6693C14.3927 15.802 14.5336 15.9106 14.6916 15.9886C14.8496 16.0666 15.0215 16.1126 15.1973 16.1239C15.3731 16.1352 15.5495 16.1116 15.7161 16.0544C16.4242 15.8181 16.8124 15.0606 16.5755 14.3556L16.048 12.7731L17.708 12.2069C18.4142 11.97 18.7849 11.1944 18.548 10.4881C18.4921 10.321 18.4037 10.1666 18.2879 10.0339C18.1721 9.90109 18.0311 9.79256 17.8731 9.71453C17.7151 9.6365 17.5433 9.59051 17.3674 9.57922C17.1916 9.56793 17.0153 9.59156 16.8486 9.64875L15.1886 10.195L14.1142 7.01187L15.7161 6.48437C15.8832 6.4285 16.0376 6.34009 16.1704 6.22426C16.3032 6.10843 16.4117 5.96747 16.4897 5.80949C16.5677 5.65151 16.6137 5.47965 16.625 5.30382C16.6363 5.12799 16.6127 4.95165 16.5555 4.785C16.3192 4.07937 15.5617 3.68875 14.8567 3.92562L13.2742 4.45312L12.708 2.79312C12.6245 2.54184 12.4689 2.32073 12.2604 2.15744C12.052 1.99414 11.8001 1.8959 11.5361 1.875ZM11.5561 7.87125L12.6299 11.055L9.44674 12.1287L8.37174 8.94562L11.5561 7.87125Z" fill="#1D1F30"/>
</g>
</svg>
