<svg width="21" height="20" viewBox="0 0 21 20" fill="none" xmlns="http://www.w3.org/2000/svg">
<g id="Icons / Social / discord">
<path id="Vector" d="M8.41 3.06625L7.92188 3.125C7.92188 3.125 5.73187 3.36438 4.1325 4.64875H4.11375L4.09375 4.6675C3.735 4.9975 3.57875 5.40313 3.33188 5.99625C3.04086 6.70985 2.79312 7.44035 2.59 8.18375C2.12625 9.86063 1.75 11.8919 1.75 13.75V13.9063L1.82812 14.0625C2.40687 15.0781 3.43437 15.725 4.38687 16.1719C5.33875 16.6188 6.16187 16.8556 6.73062 16.875L7.10187 16.8944L7.29688 16.5625L7.98062 15.3513C8.70563 15.515 9.54063 15.625 10.5 15.625C11.4594 15.625 12.2944 15.515 13.0194 15.3513L13.7031 16.5625L13.8987 16.8944L14.2694 16.875C14.8381 16.8556 15.6613 16.6188 16.6131 16.1719C17.5656 15.725 18.5931 15.0781 19.1719 14.0625L19.25 13.9063V13.75C19.25 11.8919 18.8737 9.86063 18.41 8.18375C18.2069 7.44035 17.9591 6.70985 17.6681 5.99625C17.4212 5.4025 17.265 4.9975 16.9062 4.66813L16.8869 4.64813H16.8669C15.2687 3.36438 13.0781 3.125 13.0781 3.125L12.59 3.06625L12.4137 3.51563C12.4137 3.51563 12.2331 3.97188 12.1212 4.4925C11.5839 4.41837 11.0424 4.37912 10.5 4.375C10.1656 4.375 9.5875 4.39688 8.87875 4.4925C8.80483 4.16021 8.70686 3.83372 8.58563 3.51563L8.41 3.06625ZM7.55062 4.4925C7.5775 4.58 7.60437 4.65563 7.62875 4.72688C6.82062 4.92688 5.95875 5.23188 5.16812 5.7225L5.83187 6.7775C7.45312 5.77125 9.78187 5.625 10.5 5.625C11.2175 5.625 13.5469 5.77125 15.1681 6.7775L15.8319 5.7225C15.0413 5.23188 14.1794 4.92688 13.3712 4.72625C13.3956 4.65563 13.4225 4.58 13.4494 4.49188C14.0325 4.60938 15.1462 4.87813 16.0662 5.60563C16.0612 5.60813 16.3006 5.96938 16.5156 6.48438C16.7356 7.01438 16.9794 7.72 17.1994 8.51563C17.6219 10.0413 17.9537 11.8994 17.9806 13.535C17.5869 14.1356 16.8575 14.6775 16.0856 15.0394C15.6016 15.2681 15.0894 15.432 14.5625 15.5269L14.25 15C14.4356 14.9313 14.6187 14.8563 14.7775 14.785C15.7394 14.3625 16.2619 13.9063 16.2619 13.9063L15.4412 12.9688C15.4412 12.9688 15.09 13.2913 14.2694 13.6525C13.45 14.0138 12.1969 14.375 10.5 14.375C8.80312 14.375 7.55062 14.0138 6.73062 13.6525C5.91 13.2913 5.55875 12.9688 5.55875 12.9688L4.73813 13.9063C4.73813 13.9063 5.26062 14.3625 6.2225 14.785C6.38125 14.8563 6.56437 14.9319 6.75 15L6.4375 15.5275C5.9103 15.4323 5.39796 15.268 4.91375 15.0388C4.1425 14.6775 3.4125 14.1356 3.02 13.535C3.04625 11.8994 3.37812 10.0413 3.80125 8.51563C3.98822 7.82552 4.21634 7.14722 4.48438 6.48438C4.69937 5.96938 4.93875 5.60813 4.93375 5.60563C5.85375 4.87813 6.9675 4.60938 7.55062 4.4925ZM8.3125 8.75C7.82937 8.75 7.40188 9.02563 7.14062 9.375C6.87937 9.72438 6.75 10.1538 6.75 10.625C6.75 11.0963 6.87937 11.5256 7.14062 11.875C7.40188 12.2244 7.82937 12.5 8.3125 12.5C8.79562 12.5 9.22312 12.2244 9.48438 11.875C9.74563 11.5256 9.875 11.0963 9.875 10.625C9.875 10.1538 9.74563 9.72438 9.48438 9.375C9.22312 9.02563 8.79562 8.75 8.3125 8.75ZM12.6875 8.75C12.2044 8.75 11.7769 9.02563 11.5156 9.375C11.2544 9.72438 11.125 10.1538 11.125 10.625C11.125 11.0963 11.2544 11.5256 11.5156 11.875C11.7769 12.2244 12.2044 12.5 12.6875 12.5C13.1706 12.5 13.5981 12.2244 13.8594 11.875C14.1206 11.5256 14.25 11.0963 14.25 10.625C14.25 10.1538 14.1206 9.72438 13.8594 9.375C13.5981 9.02563 13.1706 8.75 12.6875 8.75ZM8.3125 10C8.34688 10 8.39062 10.0125 8.46875 10.1175C8.54688 10.2219 8.625 10.405 8.625 10.625C8.625 10.845 8.54688 11.0281 8.46875 11.1331C8.39062 11.2375 8.34688 11.25 8.3125 11.25C8.27812 11.25 8.23438 11.2375 8.15625 11.1325C8.05289 10.9836 7.9983 10.8063 8 10.625C8 10.405 8.07812 10.2219 8.15625 10.1169C8.23438 10.0125 8.27812 10 8.3125 10ZM12.6875 10C12.7219 10 12.7656 10.0125 12.8438 10.1175C12.9219 10.2219 13 10.405 13 10.625C13 10.845 12.9219 11.0281 12.8438 11.1331C12.7656 11.2375 12.7219 11.25 12.6875 11.25C12.6531 11.25 12.6094 11.2375 12.5312 11.1325C12.4279 10.9836 12.3733 10.8063 12.375 10.625C12.375 10.405 12.4531 10.2219 12.5312 10.1169C12.6094 10.0125 12.6531 10 12.6875 10Z" fill="#1D1F30"/>
</g>
</svg>
