<svg width="16" height="16" viewBox="0 0 16 16" fill="none" xmlns="http://www.w3.org/2000/svg">
<path fill-rule="evenodd" clip-rule="evenodd" d="M7.33431 5.9987C7.33431 5.6307 7.63297 5.33203 8.00097 5.33203C8.36897 5.33203 8.66764 5.6307 8.66764 5.9987V8.66536C8.66764 9.03336 8.36897 9.33203 8.00097 9.33203C7.63297 9.33203 7.33431 9.03336 7.33431 8.66536V5.9987ZM7.33431 10.6654C7.33431 10.2974 7.63297 9.9987 8.00097 9.9987C8.36897 9.9987 8.66764 10.2974 8.66764 10.6654C8.66764 11.0334 8.36897 11.332 8.00097 11.332C7.63297 11.332 7.33431 11.0334 7.33431 10.6654ZM13.9108 12.234C13.7581 12.504 13.4608 12.6654 13.1154 12.6654H2.88611C2.54078 12.6654 2.24344 12.504 2.09144 12.234C2.01944 12.1074 1.92478 11.8494 2.10278 11.556L7.21677 3.07736C7.52811 2.56136 8.47344 2.56136 8.78477 3.07736L13.8994 11.556C14.0768 11.8494 13.9828 12.1074 13.9108 12.234ZM15.0414 10.8674L9.92677 2.38803C9.52744 1.7267 8.80744 1.33203 8.00077 1.33203C7.19411 1.33203 6.47411 1.7267 6.07544 2.38803L0.960776 10.8674C0.581442 11.496 0.570109 12.252 0.930109 12.8894C1.31611 13.574 2.06611 13.9987 2.88611 13.9987H13.1154C13.9361 13.9987 14.6854 13.574 15.0721 12.8894C15.4321 12.252 15.4208 11.496 15.0414 10.8674Z" fill="#EF8686"/>
</svg>
