<svg width="35" height="34" viewBox="0 0 35 34" fill="none" xmlns="http://www.w3.org/2000/svg">
<circle cx="17.3914" cy="17" r="17" fill="white"/>
<path fill-rule="evenodd" clip-rule="evenodd" d="M14.5774 1.1953C12.3647 1.59368 9.99665 2.58703 8.0782 3.92127C7.11476 4.59132 4.60104 7.00467 4.60104 7.25954C4.60104 7.3337 8.0675 7.38278 13.3024 7.38278H22.0038L23.0567 6.38249C23.8284 5.64949 24.2051 5.38221 24.4668 5.38221C24.7367 5.38221 25.0592 5.62682 25.7856 6.38249L26.7473 7.38278H28.446C29.3869 7.38278 30.1448 7.32823 30.1448 7.26048C30.1448 7.19326 29.685 6.6507 29.123 6.05507C26.6922 3.47808 23.5309 1.77853 20.0636 1.1845C18.6029 0.934162 15.9985 0.939364 14.5774 1.1953ZM19.5223 10.5047C19.0758 10.9747 18.5788 11.4248 18.4182 11.505C18.2168 11.6054 15.6513 11.6506 10.1637 11.6506H2.20127L1.99638 12.3536C1.76074 13.1616 1.39136 15.02 1.39136 15.3968C1.39136 15.6448 1.59571 15.6518 8.90081 15.6518H16.4101L17.3686 14.6515C18.1253 13.8619 18.4079 13.6512 18.7103 13.6512C19.0126 13.6512 19.2952 13.8619 20.0519 14.6515L21.0104 15.6518H27.2008H33.3914L33.3054 14.8182C33.2582 14.3598 33.0802 13.4745 32.91 12.851L32.6006 11.7173L27.6946 11.6506L22.7886 11.584L21.8841 10.617C20.7308 9.38401 20.5936 9.37747 19.5223 10.5047ZM14.6313 18.0495C14.521 18.119 14.0332 18.5682 13.5475 19.0477L12.6643 19.9196H7.16156C2.19846 19.9196 1.65883 19.9406 1.65883 20.1338C1.65883 20.5397 2.08345 21.9892 2.48492 22.9538L2.88747 23.9208H6.77975H10.6722L11.5703 22.9998C12.0644 22.4933 12.5918 22.0398 12.7424 21.9921C13.1112 21.8754 13.4591 22.0814 14.1329 22.8157C14.4438 23.1543 14.8153 23.542 14.9586 23.6771C15.2065 23.911 15.6155 23.9212 23.5763 23.8884L31.9338 23.8541L32.2606 23.0539C32.6765 22.0358 33.2211 20.098 33.1197 19.9967C33.0772 19.9543 29.4685 19.9196 25.1003 19.9196H17.1584L16.1904 18.9194C15.2291 17.9259 15.0162 17.807 14.6313 18.0495ZM7.47464 26.785C6.96243 27.3321 6.47763 27.7138 6.15172 27.8264L5.63723 28.0039L6.42307 28.7085C10.727 32.5668 16.3905 33.9154 21.8381 32.3791C24.1019 31.7407 27.1183 29.9957 28.6005 28.4671L29.1292 27.9219H20.1328C13.8107 27.9219 11.0544 27.878 10.8599 27.7742C10.7077 27.693 10.2233 27.2429 9.78347 26.774C8.72682 25.6474 8.53852 25.6483 7.47464 26.785Z" fill="#1D1F30"/>
</svg>
