<svg width="16" height="16" viewBox="0 0 16 16" fill="none" xmlns="http://www.w3.org/2000/svg">
<path fill-rule="evenodd" clip-rule="evenodd" d="M3.33073 8.66668H11.2407L8.81873 11.5733C8.58273 11.856 8.6214 12.2767 8.90406 12.512C9.1874 12.748 9.6074 12.7093 9.8434 12.4267L13.1767 8.42668C13.2027 8.39534 13.2154 8.35868 13.2347 8.32401C13.2507 8.29601 13.2701 8.27201 13.2821 8.24134C13.3121 8.16468 13.3301 8.08401 13.3301 8.00268C13.3301 8.00201 13.3307 8.00068 13.3307 8.00001C13.3307 7.99934 13.3301 7.99801 13.3301 7.99734C13.3301 7.91601 13.3121 7.83534 13.2821 7.75868C13.2701 7.72801 13.2507 7.70401 13.2347 7.67601C13.2154 7.64134 13.2027 7.60468 13.1767 7.57334L9.8434 3.57334C9.71073 3.41534 9.5214 3.33334 9.33073 3.33334C9.18006 3.33334 9.02873 3.38401 8.90406 3.48801C8.6214 3.72334 8.58273 4.14401 8.81873 4.42668L11.2407 7.33334H3.33073C2.96273 7.33334 2.66406 7.63201 2.66406 8.00001C2.66406 8.36801 2.96273 8.66668 3.33073 8.66668Z" fill="#3B5998"/>
</svg>
