<svg width="16" height="16" viewBox="0 0 16 16" fill="none" xmlns="http://www.w3.org/2000/svg">
<path fill-rule="evenodd" clip-rule="evenodd" d="M3.67689 10.6666L4.46356 9.87855C4.71556 9.62655 4.85422 9.29189 4.85422 8.93589V5.81789C4.85422 4.91322 5.24756 4.04856 5.93422 3.44722C6.62622 2.84056 7.50756 2.57389 8.42556 2.69456C9.97689 2.90056 11.1469 4.30322 11.1469 5.95789V8.93589C11.1469 9.29189 11.2856 9.62656 11.5369 9.87789L12.3242 10.6666H3.67689ZM9.33356 12.2272C9.33356 12.8266 8.72289 13.3332 8.00022 13.3332C7.27756 13.3332 6.66689 12.8266 6.66689 12.2272V11.9999H9.33356V12.2272ZM13.6809 10.1386L12.4802 8.93589V5.95789C12.4802 3.63722 10.8122 1.66589 8.60022 1.37322C7.31889 1.20256 6.02556 1.59389 5.05556 2.44456C4.07956 3.29922 3.52089 4.52856 3.52089 5.81789L3.52022 8.93589L2.31956 10.1386C2.00689 10.4519 1.91422 10.9179 2.08356 11.3266C2.25356 11.7359 2.64889 11.9999 3.09156 11.9999H5.33356V12.2272C5.33356 13.5726 6.52956 14.6666 8.00022 14.6666C9.47089 14.6666 10.6669 13.5726 10.6669 12.2272V11.9999H12.9089C13.3516 11.9999 13.7462 11.7359 13.9156 11.3272C14.0856 10.9179 13.9936 10.4512 13.6809 10.1386Z" fill="#3B5998"/>
</svg>
