<svg width="16" height="16" viewBox="0 0 16 16" fill="none" xmlns="http://www.w3.org/2000/svg">
<path fill-rule="evenodd" clip-rule="evenodd" d="M4.66667 10.6667C4.66667 10.3 4.96667 10 5.33333 10C5.7 10 6 10.3 6 10.6667C6 11.0333 5.7 11.3333 5.33333 11.3333C4.96667 11.3333 4.66667 11.0333 4.66667 10.6667ZM8 10H10.6667C11.0333 10 11.3333 10.3 11.3333 10.6667C11.3333 11.0333 11.0333 11.3333 10.6667 11.3333H8C7.63333 11.3333 7.33333 11.0333 7.33333 10.6667C7.33333 10.3 7.63333 10 8 10ZM12 13.3333H4C3.63267 13.3333 3.33333 13.034 3.33333 12.6667V8.66667H12.6667V12.6667C12.6667 13.034 12.3673 13.3333 12 13.3333ZM4 4H4.66667V4.66667C4.66667 5.03333 4.96667 5.33333 5.33333 5.33333C5.7 5.33333 6 5.03333 6 4.66667V4H10V4.66667C10 5.03333 10.3 5.33333 10.6667 5.33333C11.0333 5.33333 11.3333 5.03333 11.3333 4.66667V4H12C12.3673 4 12.6667 4.29933 12.6667 4.66667V7.33333H3.33333V4.66667C3.33333 4.29933 3.63267 4 4 4ZM12 2.66667H11.3333V2C11.3333 1.63333 11.0333 1.33333 10.6667 1.33333C10.3 1.33333 10 1.63333 10 2V2.66667H6V2C6 1.63333 5.7 1.33333 5.33333 1.33333C4.96667 1.33333 4.66667 1.63333 4.66667 2V2.66667H4C2.89733 2.66667 2 3.564 2 4.66667V12.6667C2 13.7693 2.89733 14.6667 4 14.6667H12C13.1027 14.6667 14 13.7693 14 12.6667V4.66667C14 3.564 13.1027 2.66667 12 2.66667Z" fill="#3B5998"/>
</svg>
