<svg width="195" height="55" viewBox="0 0 195 55" fill="none" xmlns="http://www.w3.org/2000/svg">
<path d="M35.0467 38.7966V31.7716L16.1892 41.9961V38.1214L38.1892 25.9961V41.9961H31.9029V38.7966H35.0467Z" fill="#7D7D7D"/>
<path fill-rule="evenodd" clip-rule="evenodd" d="M4.14143 48.2461C3.75653 48.9128 4.23766 49.7461 5.00746 49.7461H54.3709C55.1407 49.7461 55.6218 48.9128 55.2369 48.2461L30.5552 5.49609C30.1703 4.82943 29.2081 4.82943 28.8232 5.49609L4.14143 48.2461ZM34.0193 3.49609L58.701 46.2461C60.6255 49.5794 58.2199 53.7461 54.3709 53.7461H5.00746C1.15847 53.7461 -1.24717 49.5794 0.677333 46.2461L25.3591 3.49609C27.2836 0.162767 32.0948 0.162754 34.0193 3.49609Z" fill="#7D7D7D"/>
<path d="M82.2579 24.4551C80.0393 24.4551 78.1193 23.9751 76.4979 23.0151C74.8979 22.0338 73.6606 20.6791 72.7859 18.9511C71.9113 17.2018 71.4739 15.1858 71.4739 12.9031C71.4739 10.5991 71.9113 8.58311 72.7859 6.85511C73.6606 5.10578 74.8979 3.74044 76.4979 2.75911C78.1193 1.77778 80.0393 1.28711 82.2579 1.28711C84.8819 1.28711 87.0259 1.92711 88.6899 3.20711C90.3539 4.48711 91.4099 6.27911 91.8579 8.58311H88.0819C87.7833 7.28178 87.1433 6.24711 86.1619 5.47911C85.1806 4.71111 83.8686 4.32711 82.2259 4.32711C79.9859 4.32711 78.2153 5.09511 76.9139 6.63111C75.6126 8.14578 74.9619 10.2364 74.9619 12.9031C74.9619 15.5484 75.6126 17.6284 76.9139 19.1431C78.2153 20.6578 79.9859 21.4151 82.2259 21.4151C83.8686 21.4151 85.1806 21.0524 86.1619 20.3271C87.1433 19.6018 87.7833 18.6098 88.0819 17.3511H91.8579C91.4099 19.5698 90.3539 21.3084 88.6899 22.5671C87.0259 23.8258 84.8819 24.4551 82.2579 24.4551Z" fill="#7D7D7D"/>
<path d="M104.922 24.4551C102.704 24.4551 100.762 23.9644 99.0984 22.9831C97.4344 22.0018 96.1331 20.6471 95.1944 18.9191C94.2558 17.1698 93.7864 15.1538 93.7864 12.8711C93.7864 10.5884 94.2558 8.58311 95.1944 6.85511C96.1331 5.10578 97.4344 3.74044 99.0984 2.75911C100.762 1.77778 102.704 1.28711 104.922 1.28711C107.141 1.28711 109.082 1.77778 110.746 2.75911C112.41 3.74044 113.701 5.10578 114.618 6.85511C115.557 8.58311 116.026 10.5884 116.026 12.8711C116.026 15.1538 115.557 17.1698 114.618 18.9191C113.701 20.6471 112.41 22.0018 110.746 22.9831C109.082 23.9644 107.141 24.4551 104.922 24.4551ZM104.922 21.4151C106.458 21.4151 107.792 21.0738 108.922 20.3911C110.074 19.7084 110.97 18.7271 111.61 17.4471C112.25 16.1671 112.57 14.6418 112.57 12.8711C112.57 11.1004 112.25 9.57511 111.61 8.29511C110.97 7.01511 110.074 6.03378 108.922 5.35111C107.792 4.66844 106.458 4.32711 104.922 4.32711C103.386 4.32711 102.042 4.66844 100.89 5.35111C99.7384 6.03378 98.8424 7.01511 98.2024 8.29511C97.5838 9.57511 97.2744 11.1004 97.2744 12.8711C97.2744 14.6418 97.5838 16.1671 98.2024 17.4471C98.8424 18.7271 99.7384 19.7084 100.89 20.3911C102.042 21.0738 103.386 21.4151 104.922 21.4151Z" fill="#7D7D7D"/>
<path d="M118.805 24.0711V1.67111H122.805L130.389 16.5831L137.941 1.67111H141.941V24.0711H138.549V7.52711L131.701 20.8711H129.077L122.197 7.55911V24.0711H118.805Z" fill="#7D7D7D"/>
<path d="M145.493 24.0711V1.67111H148.885V24.0711H145.493Z" fill="#7D7D7D"/>
<path d="M152.43 24.0711V1.67111H155.822L167.054 18.5351V1.67111H170.446V24.0711H167.054L155.822 7.20711V24.0711H152.43Z" fill="#7D7D7D"/>
<path d="M183.721 24.4551C181.609 24.4551 179.763 23.9751 178.185 23.0151C176.606 22.0551 175.379 20.7111 174.505 18.9831C173.63 17.2551 173.193 15.2391 173.193 12.9351C173.193 10.6524 173.641 8.63644 174.537 6.88711C175.433 5.13778 176.702 3.77244 178.345 2.79111C180.009 1.78844 181.971 1.28711 184.233 1.28711C186.793 1.28711 188.926 1.90578 190.633 3.14311C192.339 4.38044 193.449 6.08711 193.961 8.26311H190.121C189.779 7.06844 189.107 6.12978 188.105 5.44711C187.102 4.76444 185.811 4.42311 184.233 4.42311C181.886 4.42311 180.041 5.18044 178.697 6.69511C177.353 8.20978 176.681 10.3004 176.681 12.9671C176.681 15.6338 177.342 17.7138 178.665 19.2071C179.987 20.7004 181.747 21.4471 183.945 21.4471C186.163 21.4471 187.827 20.8178 188.937 19.5591C190.067 18.3004 190.729 16.6258 190.921 14.5351H184.841V11.9111H194.345V24.0711H191.241L190.953 20.7751C190.206 21.9484 189.267 22.8551 188.137 23.4951C187.006 24.1351 185.534 24.4551 183.721 24.4551Z" fill="#7D7D7D"/>
<path d="M79.6659 53.4551C78.0233 53.4551 76.5833 53.1671 75.3459 52.5911C74.1086 52.0151 73.1379 51.1938 72.4339 50.1271C71.7513 49.0604 71.3993 47.7911 71.3779 46.3191H74.9619C74.9833 47.5138 75.3993 48.5271 76.2099 49.3591C77.0206 50.1911 78.1619 50.6071 79.6339 50.6071C80.9353 50.6071 81.9486 50.2978 82.6739 49.6791C83.4206 49.0391 83.7939 48.2284 83.7939 47.2471C83.7939 46.4578 83.6126 45.8178 83.2499 45.3271C82.9086 44.8364 82.4286 44.4311 81.8099 44.1111C81.2126 43.7911 80.5193 43.5031 79.7299 43.2471C78.9406 42.9911 78.1086 42.7138 77.2339 42.4151C75.5059 41.8391 74.2046 41.0924 73.3299 40.1751C72.4766 39.2578 72.0499 38.0524 72.0499 36.5591C72.0286 35.3004 72.3166 34.2018 72.9139 33.2631C73.5326 32.3244 74.3859 31.5991 75.4739 31.0871C76.5833 30.5538 77.8739 30.2871 79.3459 30.2871C80.7966 30.2871 82.0659 30.5538 83.1539 31.0871C84.2633 31.6204 85.1273 32.3671 85.7459 33.3271C86.3646 34.2658 86.6846 35.3644 86.7059 36.6231H83.1219C83.1219 36.0471 82.9726 35.5031 82.6739 34.9911C82.3753 34.4578 81.9379 34.0204 81.3619 33.6791C80.7859 33.3378 80.0819 33.1671 79.2499 33.1671C78.1833 33.1458 77.2979 33.4124 76.5939 33.9671C75.9113 34.5218 75.5699 35.2898 75.5699 36.2711C75.5699 37.1458 75.8259 37.8178 76.3379 38.2871C76.8499 38.7564 77.5539 39.1511 78.4499 39.4711C79.3459 39.7698 80.3699 40.1218 81.5219 40.5271C82.6313 40.8898 83.6233 41.3271 84.4979 41.8391C85.3726 42.3511 86.0659 43.0231 86.5779 43.8551C87.1113 44.6871 87.3779 45.7431 87.3779 47.0231C87.3779 48.1538 87.0899 49.2098 86.5139 50.1911C85.9379 51.1511 85.0739 51.9404 83.9219 52.5591C82.7699 53.1564 81.3513 53.4551 79.6659 53.4551Z" fill="#7D7D7D"/>
<path d="M100.422 53.4551C98.2038 53.4551 96.2624 52.9644 94.5984 51.9831C92.9344 51.0018 91.6331 49.6471 90.6944 47.9191C89.7558 46.1698 89.2864 44.1538 89.2864 41.8711C89.2864 39.5884 89.7558 37.5831 90.6944 35.8551C91.6331 34.1058 92.9344 32.7404 94.5984 31.7591C96.2624 30.7778 98.2038 30.2871 100.422 30.2871C102.641 30.2871 104.582 30.7778 106.246 31.7591C107.91 32.7404 109.201 34.1058 110.118 35.8551C111.057 37.5831 111.526 39.5884 111.526 41.8711C111.526 44.1538 111.057 46.1698 110.118 47.9191C109.201 49.6471 107.91 51.0018 106.246 51.9831C104.582 52.9644 102.641 53.4551 100.422 53.4551ZM100.422 50.4151C101.958 50.4151 103.292 50.0738 104.422 49.3911C105.574 48.7084 106.47 47.7271 107.11 46.4471C107.75 45.1671 108.07 43.6418 108.07 41.8711C108.07 40.1004 107.75 38.5751 107.11 37.2951C106.47 36.0151 105.574 35.0338 104.422 34.3511C103.292 33.6684 101.958 33.3271 100.422 33.3271C98.8864 33.3271 97.5424 33.6684 96.3904 34.3511C95.2384 35.0338 94.3424 36.0151 93.7024 37.2951C93.0838 38.5751 92.7744 40.1004 92.7744 41.8711C92.7744 43.6418 93.0838 45.1671 93.7024 46.4471C94.3424 47.7271 95.2384 48.7084 96.3904 49.3911C97.5424 50.0738 98.8864 50.4151 100.422 50.4151Z" fill="#7D7D7D"/>
<path d="M124.641 53.4551C122.423 53.4551 120.481 52.9644 118.817 51.9831C117.153 51.0018 115.852 49.6471 114.913 47.9191C113.975 46.1698 113.505 44.1538 113.505 41.8711C113.505 39.5884 113.975 37.5831 114.913 35.8551C115.852 34.1058 117.153 32.7404 118.817 31.7591C120.481 30.7778 122.423 30.2871 124.641 30.2871C126.86 30.2871 128.801 30.7778 130.465 31.7591C132.129 32.7404 133.42 34.1058 134.337 35.8551C135.276 37.5831 135.745 39.5884 135.745 41.8711C135.745 44.1538 135.276 46.1698 134.337 47.9191C133.42 49.6471 132.129 51.0018 130.465 51.9831C128.801 52.9644 126.86 53.4551 124.641 53.4551ZM124.641 50.4151C126.177 50.4151 127.511 50.0738 128.641 49.3911C129.793 48.7084 130.689 47.7271 131.329 46.4471C131.969 45.1671 132.289 43.6418 132.289 41.8711C132.289 40.1004 131.969 38.5751 131.329 37.2951C130.689 36.0151 129.793 35.0338 128.641 34.3511C127.511 33.6684 126.177 33.3271 124.641 33.3271C123.105 33.3271 121.761 33.6684 120.609 34.3511C119.457 35.0338 118.561 36.0151 117.921 37.2951C117.303 38.5751 116.993 40.1004 116.993 41.8711C116.993 43.6418 117.303 45.1671 117.921 46.4471C118.561 47.7271 119.457 48.7084 120.609 49.3911C121.761 50.0738 123.105 50.4151 124.641 50.4151Z" fill="#7D7D7D"/>
<path d="M138.524 53.0711V30.6711H141.916L153.148 47.5351V30.6711H156.54V53.0711H153.148L141.916 36.2071V53.0711H138.524Z" fill="#7D7D7D"/>
</svg>
