<svg width="25" height="24" viewBox="0 0 25 24" fill="none" xmlns="http://www.w3.org/2000/svg">
<path fill-rule="evenodd" clip-rule="evenodd" d="M9.92676 13V12C9.92676 10.346 11.2728 9 12.9268 9H13.9268V5.667C13.9268 5.299 13.6278 5 13.2598 5H6.59376C6.22576 5 5.92676 5.299 5.92676 5.667V12.333C5.92676 12.701 6.22576 13 6.59376 13H9.92676ZM9.92676 15H6.59376C5.12276 15 3.92676 13.804 3.92676 12.333V5.667C3.92676 4.196 5.12276 3 6.59376 3H13.2598C14.7308 3 15.9268 4.196 15.9268 5.667V9H18.9268C20.5808 9 21.9268 10.346 21.9268 12V18C21.9268 19.654 20.5808 21 18.9268 21H12.9268C11.2728 21 9.92676 19.654 9.92676 18V15ZM11.9268 12C11.9268 11.449 12.3758 11 12.9268 11H18.9268C19.4788 11 19.9268 11.449 19.9268 12V18C19.9268 18.551 19.4788 19 18.9268 19H12.9268C12.3758 19 11.9268 18.551 11.9268 18V12Z" fill="#3B5998"/>
</svg>
