<svg width="17" height="16" viewBox="0 0 17 16" fill="none" xmlns="http://www.w3.org/2000/svg">
<path fill-rule="evenodd" clip-rule="evenodd" d="M6.33325 8.66667V8C6.33325 6.89733 7.23059 6 8.33325 6H8.99992V3.778C8.99992 3.53267 8.80059 3.33333 8.55525 3.33333H4.11125C3.86592 3.33333 3.66659 3.53267 3.66659 3.778V8.222C3.66659 8.46733 3.86592 8.66667 4.11125 8.66667H6.33325ZM6.33325 10H4.11125C3.13059 10 2.33325 9.20267 2.33325 8.222V3.778C2.33325 2.79733 3.13059 2 4.11125 2H8.55525C9.53592 2 10.3333 2.79733 10.3333 3.778V6H12.3333C13.4359 6 14.3333 6.89733 14.3333 8V12C14.3333 13.1027 13.4359 14 12.3333 14H8.33325C7.23059 14 6.33325 13.1027 6.33325 12V10ZM7.66659 8C7.66659 7.63267 7.96592 7.33333 8.33325 7.33333H12.3333C12.7013 7.33333 12.9999 7.63267 12.9999 8V12C12.9999 12.3673 12.7013 12.6667 12.3333 12.6667H8.33325C7.96592 12.6667 7.66659 12.3673 7.66659 12V8Z" fill="#3B5998"/>
</svg>
