<svg width="8" height="9" viewBox="0 0 8 9" fill="none" xmlns="http://www.w3.org/2000/svg">
<path d="M7.21655 7.37512C7.1946 7.41313 7.16304 7.4447 7.12502 7.46664C7.087 7.48858 7.04388 7.50013 6.99999 7.50012H0.999988C0.956125 7.50007 0.913047 7.48849 0.875078 7.46653C0.837109 7.44457 0.805585 7.413 0.783674 7.37501C0.761762 7.33701 0.750233 7.29392 0.750244 7.25005C0.750255 7.20619 0.761807 7.1631 0.783738 7.12512C1.25968 6.30231 1.99311 5.71231 2.84905 5.43262C2.42567 5.18057 2.09672 4.79652 1.91273 4.33943C1.72875 3.88234 1.69989 3.37749 1.83059 2.90242C1.9613 2.42734 2.24434 2.0083 2.63625 1.70966C3.02815 1.41101 3.50726 1.24927 3.99999 1.24927C4.49272 1.24927 4.97182 1.41101 5.36373 1.70966C5.75564 2.0083 6.03868 2.42734 6.16938 2.90242C6.30009 3.37749 6.27123 3.88234 6.08724 4.33943C5.90325 4.79652 5.57431 5.18057 5.15093 5.43262C6.00686 5.71231 6.7403 6.30231 7.21624 7.12512C7.23823 7.16309 7.24983 7.20619 7.24989 7.25008C7.24994 7.29396 7.23844 7.33709 7.21655 7.37512Z" fill="#9B9B9B"/>
</svg>
