<svg width="8" height="9" viewBox="0 0 8 9" fill="none" xmlns="http://www.w3.org/2000/svg">
<path d="M1.00167 1.50098H7.00167C7.09007 1.50098 7.17486 1.5361 7.23737 1.59861C7.29988 1.66112 7.335 1.7459 7.335 1.83431V7.16764C7.335 7.25605 7.29988 7.34083 7.23737 7.40335C7.17486 7.46586 7.09007 7.50098 7.00167 7.50098H1.00167C0.913263 7.50098 0.828478 7.46586 0.765966 7.40335C0.703454 7.34083 0.668335 7.25605 0.668335 7.16764V1.83431C0.668335 1.7459 0.703454 1.66112 0.765966 1.59861C0.828478 1.5361 0.913263 1.50098 1.00167 1.50098ZM5.00167 2.83431V3.50098H3.66833V4.16764H5.00167V4.83431L6.16833 3.83431L5.00167 2.83431ZM3.00167 6.16764V5.50098H4.335V4.83431H3.00167V4.16764L1.835 5.16764L3.00167 6.16764Z" fill="#9B9B9B"/>
</svg>
