<svg width="11" height="11" viewBox="0 0 11 11" fill="none" xmlns="http://www.w3.org/2000/svg">
<path fill-rule="evenodd" clip-rule="evenodd" d="M5.49558 3.53839L3.26142 5.3363C3.08225 5.48047 2.82017 5.45214 2.67558 5.27297C2.53142 5.09339 2.55975 4.8313 2.73892 4.68672L5.23892 2.67505C5.3935 2.55089 5.61433 2.55214 5.76683 2.68005L8.26683 4.76339C8.44392 4.91047 8.46767 5.17297 8.32017 5.35005C8.23767 5.4488 8.11933 5.50005 8.00017 5.50005C7.906 5.50005 7.81142 5.46797 7.7335 5.40339L5.49558 3.53839ZM5.23877 5.59193C5.39336 5.46735 5.61419 5.46901 5.76669 5.59651L8.26669 7.67985C8.44336 7.82735 8.46711 8.08985 8.32002 8.26651C8.23752 8.36568 8.11919 8.41651 7.99961 8.41651C7.90586 8.41651 7.81127 8.38485 7.73336 8.31985L5.49544 6.45526L3.26127 8.25276C3.08211 8.39735 2.82002 8.36901 2.67544 8.18943C2.53086 8.01026 2.55961 7.74818 2.73877 7.6036L5.23877 5.59193Z" fill="#1D1F30"/>
</svg>
