<svg width="17" height="16" viewBox="0 0 17 16" fill="none" xmlns="http://www.w3.org/2000/svg">
<path fill-rule="evenodd" clip-rule="evenodd" d="M4.92544 10.5823L6.9101 10.4017L10.6434 6.66501L8.8461 4.86701L5.10144 8.61167L4.92544 10.5823ZM9.73944 3.97434L11.5361 5.77101L12.8341 4.47101L11.0381 2.67501L9.73944 3.97434ZM3.71877 11.7903C3.57877 11.6503 3.50877 11.4557 3.5261 11.2583L3.77877 8.47834C3.80677 8.17367 3.94144 7.88634 4.15877 7.66901L10.1561 1.67167C10.6241 1.20167 11.4728 1.22501 11.9668 1.71767L13.7921 3.54301L13.7928 3.54367C14.3028 4.05434 14.3234 4.86634 13.8381 5.35301L7.8401 11.351C7.62344 11.5677 7.3361 11.7023 7.03077 11.7303L4.25077 11.983C4.23077 11.9843 4.21077 11.985 4.1901 11.985C4.01477 11.985 3.84477 11.9157 3.71877 11.7903ZM14.1901 13.985C14.1901 14.3517 13.8901 14.6517 13.5234 14.6517H4.1901C3.8241 14.6517 3.52344 14.3517 3.52344 13.985C3.52344 13.619 3.8241 13.3183 4.1901 13.3183H13.5234C13.8901 13.3183 14.1901 13.619 14.1901 13.985Z" fill="#3B5998"/>
</svg>
