<svg width="16" height="17" viewBox="0 0 16 17" fill="none" xmlns="http://www.w3.org/2000/svg">
<circle cx="8" cy="8.05127" r="8" fill="#F7F7FC"/>
<g opacity="0.5">
<path d="M3.33325 8.33119C3.33325 7.99785 3.36659 7.72008 3.43325 7.49785C3.5177 7.23563 3.66214 7.03341 3.86659 6.89119C4.07547 6.74452 4.32659 6.67119 4.61992 6.67119C5.09547 6.67119 5.45325 6.87119 5.69325 7.27119C5.71547 7.30674 5.70881 7.33563 5.67325 7.35785L5.48659 7.47785C5.45103 7.50008 5.42214 7.49119 5.39992 7.45119C5.2177 7.1623 4.9577 7.01785 4.61992 7.01785C4.19325 7.01785 3.91547 7.21785 3.78659 7.61785C3.72881 7.78674 3.69992 8.02452 3.69992 8.33119C3.69992 8.63341 3.72881 8.86897 3.78659 9.03785C3.91547 9.43785 4.19325 9.63785 4.61992 9.63785C4.9577 9.63785 5.2177 9.49341 5.39992 9.20452C5.42214 9.16452 5.45103 9.15563 5.48659 9.17785L5.67325 9.29785C5.70881 9.32008 5.71547 9.34897 5.69325 9.38452C5.45325 9.78452 5.09547 9.98452 4.61992 9.98452C4.32659 9.98452 4.07547 9.91341 3.86659 9.77119C3.66214 9.62452 3.5177 9.42008 3.43325 9.15785C3.36659 8.93563 3.33325 8.66008 3.33325 8.33119Z" fill="#0F1E26" fill-opacity="0.75"/>
<path d="M7.32476 9.98452C7.03587 9.98452 6.78698 9.91341 6.5781 9.77119C6.36921 9.62452 6.22254 9.42008 6.1381 9.15785C6.06698 8.93119 6.03143 8.65341 6.03143 8.32452C6.03143 8.00008 6.06698 7.72452 6.1381 7.49785C6.22254 7.23563 6.36921 7.03341 6.5781 6.89119C6.78698 6.74452 7.03587 6.67119 7.32476 6.67119C7.6181 6.67119 7.86921 6.74452 8.0781 6.89119C8.28698 7.03341 8.43365 7.23563 8.5181 7.49785C8.58921 7.72452 8.62476 8.00008 8.62476 8.32452C8.62476 8.65341 8.58921 8.93119 8.5181 9.15785C8.43365 9.42008 8.28698 9.62452 8.0781 9.77119C7.86921 9.91341 7.6181 9.98452 7.32476 9.98452ZM7.32476 9.63785C7.75587 9.63785 8.0381 9.44008 8.17143 9.04452C8.22921 8.87119 8.2581 8.63119 8.2581 8.32452C8.2581 8.0223 8.22921 7.78452 8.17143 7.61119C8.0381 7.21563 7.75587 7.01785 7.32476 7.01785C6.8981 7.01785 6.6181 7.21563 6.48476 7.61119C6.42698 7.78452 6.3981 8.0223 6.3981 8.32452C6.3981 8.63119 6.42698 8.87119 6.48476 9.04452C6.6181 9.44008 6.8981 9.63785 7.32476 9.63785Z" fill="#0F1E26" fill-opacity="0.75"/>
<path d="M9.53002 5.89119H9.23669C9.19225 5.89119 9.17002 5.86897 9.17002 5.82452V5.45119C9.17002 5.40674 9.19225 5.38452 9.23669 5.38452H9.53002C9.57447 5.38452 9.59669 5.40674 9.59669 5.45119V5.82452C9.59669 5.86897 9.57447 5.89119 9.53002 5.89119ZM9.49669 9.91785H9.27002C9.22558 9.91785 9.20336 9.89563 9.20336 9.85119V6.80452C9.20336 6.76008 9.22558 6.73785 9.27002 6.73785H9.49669C9.54113 6.73785 9.56336 6.76008 9.56336 6.80452V9.85119C9.56336 9.89563 9.54113 9.91785 9.49669 9.91785Z" fill="#0F1E26" fill-opacity="0.75"/>
<path d="M12.7119 9.91785H12.4852C12.4408 9.91785 12.4186 9.89563 12.4186 9.85119V7.97119C12.4186 7.33563 12.1408 7.01785 11.5852 7.01785C11.3363 7.01785 11.1297 7.09785 10.9652 7.25785C10.8008 7.41785 10.7186 7.63341 10.7186 7.90452V9.85119C10.7186 9.89563 10.6963 9.91785 10.6519 9.91785H10.4252C10.3808 9.91785 10.3586 9.89563 10.3586 9.85119V6.80452C10.3586 6.76008 10.3808 6.73785 10.4252 6.73785H10.6519C10.6963 6.73785 10.7186 6.76008 10.7186 6.80452V7.18452H10.7252C10.8986 6.8423 11.2119 6.67119 11.6652 6.67119C12.0208 6.67119 12.2941 6.77785 12.4852 6.99119C12.6808 7.20008 12.7786 7.49785 12.7786 7.88452V9.85119C12.7786 9.89563 12.7563 9.91785 12.7119 9.91785Z" fill="#0F1E26" fill-opacity="0.75"/>
</g>
<circle opacity="0.5" cx="8.00008" cy="8.05135" r="7.18333" stroke="#0F1E26" stroke-opacity="0.75" stroke-width="0.3"/>
</svg>
