<svg width="41" height="40" viewBox="0 0 41 40" fill="none" xmlns="http://www.w3.org/2000/svg">
<path fill-rule="evenodd" clip-rule="evenodd" d="M29.5737 33.333H11.4253C10.9153 33.333 10.5003 32.9597 10.5003 32.4997V7.49967C10.5003 7.03967 10.9153 6.66634 11.4253 6.66634H18.8337V13.583C18.8337 16.203 20.862 18.333 23.357 18.333H30.5003V32.4997C30.5003 32.9597 30.0837 33.333 29.5737 33.333ZM29.9153 14.9997H23.357C22.7003 14.9997 22.167 14.3647 22.167 13.583V6.66634H22.3537L29.9153 14.9997ZM33.4003 13.8797L24.327 3.87967C24.012 3.53134 23.5637 3.33301 23.092 3.33301H11.4253C9.07699 3.33301 7.16699 5.20301 7.16699 7.49967V32.4997C7.16699 34.7963 9.07699 36.6663 11.4253 36.6663H29.5737C31.922 36.6663 33.8337 34.7963 33.8337 32.4997V14.9997C33.8337 14.5847 33.6787 14.1863 33.4003 13.8797Z" fill="#D9D9D9"/>
</svg>
