<svg width="25" height="24" viewBox="0 0 25 24" fill="none" xmlns="http://www.w3.org/2000/svg">
<path fill-rule="evenodd" clip-rule="evenodd" d="M19.9258 18H5.92578C5.37478 18 4.92578 17.552 4.92578 17V7.25L12.3258 12.8C12.5038 12.934 12.7148 13 12.9258 13C13.1368 13 13.3478 12.934 13.5258 12.8L20.9258 7.25V17C20.9258 17.552 20.4768 18 19.9258 18ZM19.2588 6L12.9258 10.75L6.59278 6H19.2588ZM19.9258 4H5.92578C4.27178 4 2.92578 5.346 2.92578 7V17C2.92578 18.654 4.27178 20 5.92578 20H19.9258C21.5798 20 22.9258 18.654 22.9258 17V7C22.9258 5.346 21.5798 4 19.9258 4Z" fill="white"/>
</svg>
