<svg width="199" height="20" viewBox="0 0 199 20" fill="none" xmlns="http://www.w3.org/2000/svg">
<g clip-path="url(#clip0_63_1092)">
<path d="M29.8923 3.99934L37.7824 0H53.5626C56.192 0 57.5068 1.33311 57.5068 3.99934V7.99867C57.5068 10.6649 56.192 11.998 53.5626 11.998H33.8382V19.9983H29.894V8.00033H53.5642V3.99934H29.8923Z" fill="white"/>
<path d="M59.0161 0H86.6306L78.7405 3.99934H74.7963V20H70.852V3.99934H59.0178V0H59.0161Z" fill="white"/>
<path d="M89.7752 0H109.5C112.129 0 113.444 1.33311 113.444 3.99934V16.0007C113.444 18.6685 112.129 20 109.5 20H89.7752C87.144 20 85.8309 18.6669 85.8309 16.0007V3.99934C85.8309 1.33311 87.1457 0 89.7752 0ZM89.7752 3.99934V16.0007H109.5V3.99934H89.7752Z" fill="white"/>
<path d="M120.564 0H140.288C142.917 0 144.232 1.33311 144.232 3.99934V16.0007C144.232 18.6685 142.917 20 140.288 20H120.564C117.932 20 116.619 18.6669 116.619 16.0007V3.99934C116.619 1.33311 117.934 0 120.564 0ZM120.564 3.99934V16.0007H140.288V3.99934H120.564Z" fill="white"/>
<path d="M167.317 20H147.593V0H151.537V16.0007H175.207L167.317 20Z" fill="white"/>
<path d="M191.11 3.99934H175.33V7.99867H195.054C197.684 7.99867 198.998 9.33179 198.998 11.998V15.9973C198.998 18.6652 197.684 19.9967 195.054 19.9967H171.384L179.274 15.9973H195.054V11.998H175.33C172.699 11.998 171.386 10.6649 171.386 7.99867V3.99934C171.386 1.33311 172.7 0 175.33 0H199L191.11 3.99934Z" fill="white"/>
<path d="M23.6686 16.0007V7.21937L0 20V15.1567L27.6128 0V20H19.7227V16.0007H23.667H23.6686Z" fill="white"/>
</g>
<defs>
<clipPath id="clip0_63_1092">
<rect width="199" height="20" fill="white"/>
</clipPath>
</defs>
</svg>
