<svg width="926" height="92" viewBox="0 0 926 92" fill="none" xmlns="http://www.w3.org/2000/svg">
<path d="M109.972 73.603V33.2091L0 92V69.7208L128.298 0V92H91.638V73.603H109.972Z" fill="#3B5998"/>
<path d="M132.944 18.4008L169.604 0.00381222H242.923C255.141 0.00381222 261.249 6.13613 261.249 18.4008V36.7977C261.249 49.0623 255.141 55.1947 242.923 55.1947H151.278V91.9962H132.952V36.8053H242.931V18.4008H132.944Z" fill="#3B5998"/>
<path d="M265.896 0H394.201L357.541 18.3969H339.215V92H320.889V18.3969H265.903V0H265.896Z" fill="#3B5998"/>
<path d="M417.173 0H508.819C521.036 0 527.145 6.13232 527.145 18.3969V73.603C527.145 85.8753 521.036 92 508.819 92H417.173C404.949 92 398.847 85.8677 398.847 73.603V18.3969C398.847 6.13232 404.956 0 417.173 0ZM417.173 18.3969V73.603H508.819V18.3969H417.173Z" fill="#3B5998"/>
<path d="M550.118 0H641.763C653.981 0 660.089 6.13232 660.089 18.3969V73.603C660.089 85.8753 653.981 92 641.763 92H550.118C537.893 92 531.792 85.8677 531.792 73.603V18.3969C531.792 6.13232 537.9 0 550.118 0ZM550.118 18.3969V73.603H641.763V18.3969H550.118Z" fill="#3B5998"/>
<path d="M756.381 92H664.736V0H683.062V73.603H793.041L756.381 92Z" fill="#3B5998"/>
<path d="M889.34 18.4046H816.021V36.8015H907.666C919.884 36.8015 925.992 42.9338 925.992 55.1985V73.5954C925.992 85.8677 919.884 91.9924 907.666 91.9924H797.687L834.347 73.5954H907.666V55.1985H816.021C803.796 55.1985 797.695 49.0662 797.695 36.8015V18.4046C797.695 6.13995 803.803 0.00762882 816.021 0.00762882H926L889.34 18.4046Z" fill="#3B5998"/>
</svg>
