<svg width="16" height="16" viewBox="0 0 16 16" fill="none" xmlns="http://www.w3.org/2000/svg">
<path fill-rule="evenodd" clip-rule="evenodd" d="M5.33366 3.33464C5.33366 3.7013 5.03366 4.0013 4.66699 4.0013H4.00033V12.0013H4.66699C5.03366 12.0013 5.33366 12.3013 5.33366 12.668C5.33366 13.0346 5.03366 13.3346 4.66699 13.3346H3.33366C2.96699 13.3346 2.66699 13.0346 2.66699 12.668V3.33464C2.66699 2.96797 2.96699 2.66797 3.33366 2.66797H4.66699C5.03366 2.66797 5.33366 2.96797 5.33366 3.33464ZM12.0029 4.95117L13.8789 7.61784C14.0456 7.85384 14.0403 8.1705 13.8669 8.40117L11.8669 11.0678C11.7363 11.2425 11.5356 11.3345 11.3329 11.3345C11.1943 11.3345 11.0536 11.2912 10.9336 11.2012C10.6389 10.9805 10.5796 10.5625 10.8003 10.2685L12.0009 8.66783H12.0003H6.66693C6.29893 8.66783 6.00026 8.36984 6.00026 8.00117C6.00026 7.6325 6.29893 7.3345 6.66693 7.3345H12.0003C12.0113 7.3345 12.0215 7.33754 12.0318 7.3406C12.0402 7.34309 12.0486 7.3456 12.0576 7.3465L10.9123 5.71784C10.7003 5.41717 10.7729 5.00117 11.0743 4.78917C11.3749 4.5765 11.7909 4.64984 12.0029 4.95117Z" fill="#3B5998"/>
</svg>
