<svg width="16" height="16" viewBox="0 0 16 16" fill="none" xmlns="http://www.w3.org/2000/svg">
<path fill-rule="evenodd" clip-rule="evenodd" d="M8.0013 7.33316C7.44997 7.33316 7.0013 6.8845 7.0013 6.33316C7.0013 5.78183 7.44997 5.33316 8.0013 5.33316C8.55263 5.33316 9.0013 5.78183 9.0013 6.33316C9.0013 6.8845 8.55263 7.33316 8.0013 7.33316ZM8.0013 3.99983C6.71464 3.99983 5.66797 5.0465 5.66797 6.33316C5.66797 7.61983 6.71464 8.6665 8.0013 8.6665C9.28797 8.6665 10.3346 7.61983 10.3346 6.33316C10.3346 5.0465 9.28797 3.99983 8.0013 3.99983ZM8.0013 13.0975C6.88463 12.0415 4.0013 9.07683 4.0013 6.61483C4.0013 4.43816 5.7953 2.66683 8.0013 2.66683C10.2073 2.66683 12.0013 4.43816 12.0013 6.61483C12.0013 9.07683 9.11797 12.0415 8.0013 13.0975ZM8.0013 1.3335C5.06064 1.3335 2.66797 3.70216 2.66797 6.61483C2.66797 10.2648 7.3673 14.3342 7.5673 14.5055C7.69264 14.6128 7.84664 14.6668 8.0013 14.6668C8.15597 14.6668 8.30997 14.6128 8.4353 14.5055C8.6353 14.3342 13.3346 10.2648 13.3346 6.61483C13.3346 3.70216 10.942 1.3335 8.0013 1.3335Z" fill="#3B5998"/>
</svg>
