<svg width="16" height="16" viewBox="0 0 16 16" fill="none" xmlns="http://www.w3.org/2000/svg">
<path fill-rule="evenodd" clip-rule="evenodd" d="M4.66536 6.66659C4.66536 6.29859 4.96403 5.99992 5.33203 5.99992C5.70003 5.99992 5.9987 6.29859 5.9987 6.66659C5.9987 7.03459 5.70003 7.33325 5.33203 7.33325C4.96403 7.33325 4.66536 7.03459 4.66536 6.66659ZM7.9987 5.99992C7.6307 5.99992 7.33203 6.29859 7.33203 6.66659C7.33203 7.03459 7.6307 7.33325 7.9987 7.33325C8.3667 7.33325 8.66536 7.03459 8.66536 6.66659C8.66536 6.29859 8.3667 5.99992 7.9987 5.99992ZM10.6654 5.99992C10.2974 5.99992 9.9987 6.29859 9.9987 6.66659C9.9987 7.03459 10.2974 7.33325 10.6654 7.33325C11.0334 7.33325 11.332 7.03459 11.332 6.66659C11.332 6.29859 11.0334 5.99992 10.6654 5.99992ZM13.332 9.99992C13.332 10.3673 13.0327 10.6666 12.6654 10.6666H5.70136C5.33936 10.6666 4.98336 10.7653 4.67203 10.9519L2.66536 12.1559V3.33325C2.66536 2.96592 2.9647 2.66659 3.33203 2.66659H12.6654C13.0327 2.66659 13.332 2.96592 13.332 3.33325V9.99992ZM12.6654 1.33325H3.33203C2.22936 1.33325 1.33203 2.23059 1.33203 3.33325V13.3333C1.33203 13.5733 1.46136 13.7953 1.67003 13.9133C1.77203 13.9713 1.88536 13.9999 1.9987 13.9999C2.11736 13.9999 2.23603 13.9686 2.34203 13.9046L5.35803 12.0953C5.46203 12.0326 5.5807 11.9999 5.70136 11.9999H12.6654C13.768 11.9999 14.6654 11.1026 14.6654 9.99992V3.33325C14.6654 2.23059 13.768 1.33325 12.6654 1.33325Z" fill="#231F20"/>
</svg>
