<svg width="16" height="16" viewBox="0 0 16 16" fill="none" xmlns="http://www.w3.org/2000/svg">
<path fill-rule="evenodd" clip-rule="evenodd" d="M13.3359 9.33333C13.3359 9.70067 13.0373 10 12.6693 10H8.0606H7.9446H3.33594C2.96794 10 2.66927 9.70067 2.66927 9.33333V4C2.66927 3.63267 2.96794 3.33333 3.33594 3.33333H12.6693C13.0373 3.33333 13.3359 3.63267 13.3359 4V9.33333ZM12.6693 2H3.33594C2.23327 2 1.33594 2.89733 1.33594 4V9.33333C1.33594 10.436 2.23327 11.3333 3.33594 11.3333H7.33594V12.6667H4.66927C4.3026 12.6667 4.0026 12.9667 4.0026 13.3333C4.0026 13.7 4.3026 14 4.66927 14H11.3359C11.7026 14 12.0026 13.7 12.0026 13.3333C12.0026 12.9667 11.7026 12.6667 11.3359 12.6667H8.66927V11.3333H12.6693C13.7719 11.3333 14.6693 10.436 14.6693 9.33333V4C14.6693 2.89733 13.7719 2 12.6693 2Z" fill="#3B5998"/>
</svg>
