<svg width="458" height="357" viewBox="0 0 458 357" fill="none" xmlns="http://www.w3.org/2000/svg">
<g clip-path="url(#clip0_2426_36509)">
<path d="M105.26 345.44C105.26 345.44 153.22 370.37 208.04 344.09C262.86 317.81 280.65 266.86 309.1 228.59C324 208.55 348.38 197.38 366.97 180.53C426.42 126.65 404.97 36.56 350.58 11.84C303.49 -9.56001 249.09 -1.90001 181.68 34.34C114.26 70.57 65.6896 93.95 30.2996 166.15C-5.09038 238.35 45.6196 310.5 105.26 345.44Z" fill="#FFE5D3"/>
<path d="M396.909 314.02C396.909 314.02 393.569 299.84 396.079 287.34C398.579 274.83 404.419 283.17 411.089 274.83C417.759 266.49 414.429 250.65 421.929 243.98C429.429 237.31 440.269 238.14 442.779 225.64C445.289 213.14 446.949 203.13 451.949 204.79C456.949 206.46 447.779 221.47 447.779 230.64C447.779 239.81 452.779 245.65 449.449 254.82C446.109 263.99 431.939 260.66 431.939 271.5C431.939 282.34 437.779 293.18 432.769 300.68C427.769 308.18 414.429 309.85 412.759 314.02C411.089 318.19 406.919 325.69 402.749 325.69C398.579 325.69 396.909 314.02 396.909 314.02Z" fill="#D9D9D9"/>
<path d="M394.199 314.17C395.029 311.67 393.369 289.99 385.859 285.82C378.359 281.65 370.019 283.32 365.849 275.81C361.679 268.31 361.679 264.97 357.509 264.14C353.339 263.31 333.329 259.97 335.829 264.14C338.329 268.31 353.339 261.64 353.339 269.98C353.339 278.32 351.669 291.66 356.679 295C361.679 298.34 375.019 297.5 374.189 305.01C373.359 312.51 370.849 315.02 375.019 317.52C379.189 320.02 390.859 330.86 392.529 322.52L394.199 314.18V314.17Z" fill="#D9D9D9"/>
<path d="M403.48 332.55C403.48 332.55 399.6 320.41 410.28 298.08C420.96 275.74 428.73 258.75 433.59 250.01" stroke="#1D1F30" stroke-width="1.23" stroke-miterlimit="10"/>
<path d="M394.739 334.5C394.739 334.5 393.279 328.67 388.429 312.65C383.569 296.63 377.749 292.26 369.489 286.92C361.239 281.58 360.749 272.84 359.289 270.41" stroke="#1D1F30" stroke-width="1.23" stroke-miterlimit="10"/>
<path d="M415.127 325.76C415.127 325.76 416.097 317.02 423.867 314.59C431.637 312.16 438.917 313.13 440.377 307.79C441.837 302.45 441.837 297.11 445.237 294.19C448.637 291.28 453.007 289.82 453.487 291.28C453.977 292.74 448.627 293.71 448.627 298.56C448.627 303.41 455.907 315.55 445.227 320.41C434.547 325.27 425.807 320.9 421.917 324.29C418.037 327.69 415.607 330.12 415.607 330.12L415.117 325.75L415.127 325.76Z" fill="#D9D9D9"/>
<path d="M414.16 334.5C414.16 334.5 417.56 321.88 425.81 318.96C434.06 316.05 443.29 322.36 447.17 316.53C451.05 310.7 448.14 304.88 447.66 300.99" stroke="#1D1F30" stroke-width="1.23" stroke-miterlimit="10"/>
<path d="M419.62 332.55H389.52C388.18 332.55 387.09 333.64 387.09 334.98C387.09 336.32 388.18 337.41 389.52 337.41H389.76L392.1 343.56C392.47 344.54 393.41 345.18 394.45 345.18H414.68C415.72 345.18 416.66 344.53 417.03 343.56L419.37 337.41H419.61C420.95 337.41 422.04 336.32 422.04 334.98C422.04 333.64 420.95 332.55 419.61 332.55H419.62Z" fill="#1D1F30"/>
<path d="M96.3397 128.15C113.963 128.15 128.25 113.863 128.25 96.24C128.25 78.6166 113.963 64.33 96.3397 64.33C78.7163 64.33 64.4297 78.6166 64.4297 96.24C64.4297 113.863 78.7163 128.15 96.3397 128.15Z" stroke="#1D1F30" stroke-width="1.23" stroke-linecap="round" stroke-linejoin="round"/>
<path d="M100.463 122.349C114.887 120.074 124.736 106.537 122.462 92.1133C120.188 77.689 106.651 67.8395 92.2267 70.1138C77.8025 72.388 67.953 85.9248 70.2273 100.349C72.5015 114.773 86.0383 124.623 100.463 122.349Z" stroke="#1D1F30" stroke-width="1.23" stroke-linecap="round" stroke-linejoin="round"/>
<path d="M79.4805 96.24H96.3405V120.57" stroke="#1D1F30" stroke-width="1.23" stroke-linecap="round" stroke-linejoin="round"/>
<path d="M243.359 339.83C243.359 336.88 245.759 334.48 248.709 334.48C251.659 334.48 254.059 336.88 254.059 339.83C254.059 342.78 251.659 345.18 248.709 345.18C245.759 345.18 243.359 342.78 243.359 339.83Z" fill="#1D1F30" stroke="#1D1F30" stroke-width="1.23" stroke-linecap="round" stroke-linejoin="round"/>
<path d="M246.039 339.83C246.039 338.35 247.239 337.15 248.719 337.15C250.199 337.15 251.399 338.35 251.399 339.83C251.399 341.31 250.199 342.51 248.719 342.51C247.239 342.51 246.039 341.31 246.039 339.83Z" fill="white" stroke="#1D1F30" stroke-width="1.23" stroke-linecap="round" stroke-linejoin="round"/>
<path d="M186.059 339.83C186.059 336.88 188.459 334.48 191.409 334.48C194.359 334.48 196.759 336.88 196.759 339.83C196.759 342.78 194.359 345.18 191.409 345.18C188.459 345.18 186.059 342.78 186.059 339.83Z" fill="#1D1F30" stroke="#1D1F30" stroke-width="1.23" stroke-linecap="round" stroke-linejoin="round"/>
<path d="M188.73 339.83C188.73 338.35 189.93 337.15 191.41 337.15C192.89 337.15 194.09 338.35 194.09 339.83C194.09 341.31 192.89 342.51 191.41 342.51C189.93 342.51 188.73 341.31 188.73 339.83Z" fill="white" stroke="#1D1F30" stroke-width="1.23" stroke-linecap="round" stroke-linejoin="round"/>
<path d="M167.328 339.83C167.328 336.88 169.728 334.48 172.678 334.48C175.628 334.48 178.028 336.88 178.028 339.83C178.028 342.78 175.628 345.18 172.678 345.18C169.728 345.18 167.328 342.78 167.328 339.83Z" fill="#1D1F30" stroke="#1D1F30" stroke-width="1.23" stroke-linecap="round" stroke-linejoin="round"/>
<path d="M170.008 339.83C170.008 338.35 171.208 337.15 172.688 337.15C174.168 337.15 175.368 338.35 175.368 339.83C175.368 341.31 174.168 342.51 172.688 342.51C171.208 342.51 170.008 341.31 170.008 339.83Z" fill="white" stroke="#1D1F30" stroke-width="1.23" stroke-linecap="round" stroke-linejoin="round"/>
<path d="M211.02 333.71H199.7V275.81C199.7 275.81 199.72 275.77 199.74 275.77H210.98C210.98 275.77 211.02 275.79 211.02 275.81V333.71Z" fill="#1D1F30" stroke="#1D1F30" stroke-width="1.23" stroke-linecap="round" stroke-linejoin="round"/>
<path d="M196.691 333.71H214.031V292.8H196.691V333.71Z" fill="#1D1F30" stroke="#1D1F30" stroke-width="1.23" stroke-linecap="round" stroke-linejoin="round"/>
<path d="M231.431 266.08H216.951C216.951 266.08 216.911 266.06 216.911 266.04V234.9H231.461V266.04C231.461 266.04 231.441 266.08 231.421 266.08H231.431Z" fill="#1D1F30" stroke="#1D1F30" stroke-width="1.23" stroke-linecap="round" stroke-linejoin="round"/>
<path d="M195.54 234.92H252.19C257.77 234.92 262.26 230.32 262.12 224.74L260.75 169.43C260.62 164.04 256.21 159.74 250.82 159.74H204.04C199.14 159.74 194.97 163.32 194.22 168.16L185.72 223.47C184.79 229.49 189.45 234.91 195.54 234.91V234.92Z" fill="#8B9DC3" stroke="#1D1F30" stroke-width="1.23" stroke-linecap="round" stroke-linejoin="round"/>
<path d="M214.051 277.8L238.911 294.17" stroke="#1D1F30" stroke-width="1.23" stroke-linecap="round" stroke-linejoin="round"/>
<path d="M239.849 291.69L244.079 294.54C245.539 295.52 245.729 297.59 244.469 298.82L244.179 299.11C243.169 300.1 241.569 300.17 240.479 299.27L236.589 296.06C235.359 295.05 235.259 293.2 236.369 292.05C237.289 291.1 238.759 290.95 239.859 291.69H239.849Z" fill="#1D1F30" stroke="#1D1F30" stroke-width="1.23" stroke-linecap="round" stroke-linejoin="round"/>
<path d="M159.288 280.63H251.438C256.348 280.63 260.328 276.65 260.328 271.74C260.328 266.83 256.348 262.85 251.438 262.85H159.288C154.378 262.85 150.398 266.83 150.398 271.74C150.398 276.65 154.378 280.63 159.288 280.63Z" fill="#8B9DC3" stroke="#1D1F30" stroke-width="1.23" stroke-linecap="round" stroke-linejoin="round"/>
<path d="M150.46 270.66C150.99 266.13 155.09 262.85 159.66 262.85H207.41C211.98 262.85 216.08 266.13 216.61 270.66C217.24 276.05 213.05 280.63 207.78 280.63H159.28C154.01 280.63 149.82 276.05 150.45 270.66H150.46Z" fill="#8B9DC3" stroke="#1D1F30" stroke-width="1.23" stroke-linecap="round" stroke-linejoin="round"/>
<path d="M165.621 336.95H254.101C254.101 334.27 251.931 332.11 249.261 332.11H170.471C167.791 332.11 165.631 334.28 165.631 336.95H165.621Z" fill="#1D1F30" stroke="#1D1F30" stroke-width="1.23" stroke-linecap="round" stroke-linejoin="round"/>
<path d="M181.371 336.95H210.171V332.11H186.221C183.541 332.11 181.381 334.28 181.381 336.95H181.371Z" fill="#1D1F30" stroke="#1D1F30" stroke-width="1.23" stroke-linecap="round" stroke-linejoin="round"/>
<path d="M175.181 225.67L168.811 236.19C168.811 236.19 146.501 238.42 133.751 241.29C121.001 244.16 118.451 258.18 117.811 261.05C117.101 264.25 113.141 331.14 114.421 331.46C115.691 331.78 125.261 332.73 125.261 332.73C125.261 332.73 141.401 267.74 146.181 266.78C150.961 265.82 221.721 267.42 232.241 261.68C242.761 255.94 245.311 239.37 239.251 227.89C233.191 216.42 175.181 225.66 175.181 225.66V225.67Z" fill="#1D1F30" stroke="#1D1F30" stroke-width="1.23" stroke-linecap="round" stroke-linejoin="round"/>
<path d="M218.531 238.42C218.531 238.42 188.891 238.42 174.541 239.69C160.201 240.96 151.271 251.8 151.911 261.36C152.551 270.92 164.141 333.69 164.141 333.69L175.301 332.73L181.271 265.49C181.271 265.49 191.231 271.96 230.061 262.01" fill="#1D1F30"/>
<path d="M218.531 238.42C218.531 238.42 188.891 238.42 174.541 239.69C160.201 240.96 151.271 251.8 151.911 261.36C152.551 270.92 164.141 333.69 164.141 333.69L175.301 332.73L181.271 265.49C181.271 265.49 191.231 271.96 230.061 262.01" stroke="#1D1F30" stroke-width="1.23" stroke-linecap="round" stroke-linejoin="round"/>
<path d="M288.34 136.1C287.38 135.46 284.2 143.75 284.2 143.75C284.2 143.75 280.37 143.55 278.14 143.75C274.63 144.07 271.77 148.85 271.77 152.04C271.77 155.23 257.11 180.73 257.11 180.73C257.11 180.73 244.36 159.69 239.9 156.19C235.44 152.68 218.86 149.5 218.86 149.5C211.42 148.52 205.74 148.36 198.44 149.5C198.44 149.5 181.87 152.69 177.4 156.19C172.94 159.7 160.19 180.73 160.19 180.73C160.19 180.73 145.53 155.23 145.53 152.04C145.53 148.85 142.66 144.07 139.16 143.75C136.94 143.55 133.1 143.75 133.1 143.75C133.1 143.75 129.91 135.46 128.96 136.1C128 136.74 129.6 146.94 130.55 149.17C131.51 151.4 139.47 152.99 139.47 152.99C139.47 152.99 149.35 190.6 152.54 195.7C155.73 200.8 159.23 207.17 167.84 203.35C176.45 199.53 187.28 187.09 187.28 187.09L205.47 187.37V187.41L206.84 187.39L208 187.41V187.38L230.02 187.09C230.02 187.09 240.86 199.52 249.46 203.35C258.07 207.17 261.57 200.8 264.76 195.7C267.95 190.6 277.83 152.99 277.83 152.99C277.83 152.99 285.8 151.4 286.75 149.17C287.71 146.94 289.3 136.74 288.34 136.1Z" fill="#9B9B9B" stroke="#1D1F30" stroke-width="1.23" stroke-linecap="round" stroke-linejoin="round"/>
<path d="M262.26 171.55C259.45 176.65 257.1 180.72 257.1 180.72C257.1 180.72 244.35 159.68 239.89 156.18C235.43 152.67 218.85 149.49 218.85 149.49C211.41 148.51 205.73 148.35 198.43 149.49C198.43 149.49 181.86 152.68 177.39 156.18C172.93 159.69 160.18 180.72 160.18 180.72C160.18 180.72 157.64 176.3 154.68 170.92L145.91 176.26C148.47 185.05 151.14 193.48 152.54 195.7C155.73 200.8 159.23 207.17 167.84 203.35C176.45 199.53 187.28 187.09 187.28 187.09L205.47 187.37V187.41L206.84 187.39L208 187.41V187.38L230.02 187.09C230.02 187.09 240.86 199.52 249.46 203.35C258.07 207.17 261.57 200.8 264.76 195.7C266.16 193.47 268.83 185 271.4 176.19L262.26 171.55Z" fill="white"/>
<mask id="mask0_2426_36509" style="mask-type:luminance" maskUnits="userSpaceOnUse" x="145" y="148" width="127" height="57">
<path d="M262.26 171.55C259.45 176.65 257.1 180.72 257.1 180.72C257.1 180.72 244.35 159.68 239.89 156.18C235.43 152.67 218.85 149.49 218.85 149.49C211.41 148.51 205.73 148.35 198.43 149.49C198.43 149.49 181.86 152.68 177.39 156.18C172.93 159.69 160.18 180.72 160.18 180.72C160.18 180.72 157.64 176.3 154.68 170.92L145.91 176.26C148.47 185.05 151.14 193.48 152.54 195.7C155.73 200.8 159.23 207.17 167.84 203.35C176.45 199.53 187.28 187.09 187.28 187.09L205.47 187.37V187.41L206.84 187.39L208 187.41V187.38L230.02 187.09C230.02 187.09 240.86 199.52 249.46 203.35C258.07 207.17 261.57 200.8 264.76 195.7C266.16 193.47 268.83 185 271.4 176.19L262.26 171.55Z" fill="white"/>
</mask>
<g mask="url(#mask0_2426_36509)">
<path d="M254.579 186.62C254.409 184.53 254.249 182.55 255.099 181.28C255.559 180.59 255.989 180.04 256.389 179.58C256.069 179.05 255.639 178.36 255.129 177.55C254.529 178.17 253.869 178.95 253.169 180C251.879 181.94 252.069 184.42 252.259 186.81C252.429 188.9 252.589 190.88 251.739 192.15C251.009 193.24 250.299 193.16 248.349 192.75C246.799 192.43 244.879 192.03 242.679 192.76C240.899 193.35 239.919 194.79 239.379 196.43C240.009 196.98 240.659 197.53 241.319 198.06C241.589 196.63 242.189 195.36 243.409 194.95C245.009 194.41 246.469 194.72 247.879 195.01C249.819 195.41 252.029 195.87 253.659 193.43C254.949 191.49 254.759 189.01 254.559 186.62H254.579Z" fill="#8B9DC3"/>
<path d="M230.009 187.1C230.009 187.1 230.279 187.41 230.769 187.95C231.629 187.57 232.339 187.2 232.709 186.9C232.959 186.7 233.959 186.79 234.839 186.87C236.589 187.03 238.979 187.25 241.949 186.39C245.809 185.29 245.959 181.09 246.089 177.38C246.159 175.32 246.229 173.18 246.939 171.89C247.849 170.23 249.389 170.13 250.569 170.37C250.059 169.59 249.529 168.79 248.999 168C247.469 168.15 245.939 168.9 244.909 170.79C243.939 172.56 243.859 174.97 243.779 177.31C243.649 181.18 243.409 183.57 241.319 184.17C238.759 184.9 236.699 184.72 235.049 184.57C233.539 184.43 232.239 184.32 231.269 185.1C230.749 185.52 228.729 186.34 226.539 187.14L230.009 187.09V187.1Z" fill="#8B9DC3"/>
<path d="M175.189 192.77C172.989 192.04 171.069 192.44 169.519 192.76C167.569 193.16 166.859 193.25 166.129 192.16C165.279 190.89 165.439 188.91 165.609 186.82C165.799 184.43 165.999 181.95 164.699 180.01C163.859 178.74 163.059 177.83 162.369 177.18C161.879 177.96 161.459 178.65 161.109 179.2C161.599 179.71 162.169 180.38 162.769 181.29C163.619 182.57 163.459 184.54 163.289 186.63C163.099 189.02 162.899 191.5 164.189 193.44C165.819 195.88 168.019 195.42 169.969 195.02C171.379 194.73 172.829 194.43 174.439 194.96C175.539 195.33 176.119 196.39 176.429 197.65C177.069 197.12 177.709 196.57 178.319 196.03C177.759 194.56 176.789 193.32 175.169 192.77H175.189Z" fill="#8B9DC3"/>
<path d="M182.838 184.57C181.188 184.72 179.128 184.91 176.568 184.17C174.468 183.57 174.238 181.18 174.108 177.31C174.028 174.98 173.948 172.56 172.978 170.79C171.818 168.65 170.018 167.98 168.298 167.97C167.718 168.84 167.138 169.71 166.578 170.57C167.748 170.18 169.828 169.85 170.948 171.89C171.648 173.18 171.728 175.31 171.798 177.38C171.928 181.08 172.068 185.28 175.938 186.39C178.918 187.24 181.308 187.03 183.048 186.87C183.928 186.79 184.928 186.7 185.178 186.9C185.488 187.15 186.018 187.44 186.688 187.75C187.058 187.34 187.268 187.1 187.268 187.1L191.408 187.16C189.198 186.35 187.148 185.52 186.618 185.1C185.638 184.32 184.338 184.44 182.838 184.57Z" fill="#8B9DC3"/>
<g opacity="0.5">
<path d="M254.579 186.62C254.409 184.53 254.249 182.55 255.099 181.28C255.559 180.59 255.989 180.04 256.389 179.58C256.069 179.05 255.639 178.36 255.129 177.55C254.529 178.17 253.869 178.95 253.169 180C251.879 181.94 252.069 184.42 252.259 186.81C252.429 188.9 252.589 190.88 251.739 192.15C251.009 193.24 250.299 193.16 248.349 192.75C246.799 192.43 244.879 192.03 242.679 192.76C240.899 193.35 239.919 194.79 239.379 196.43C240.009 196.98 240.659 197.53 241.319 198.06C241.589 196.63 242.189 195.36 243.409 194.95C245.009 194.41 246.469 194.72 247.879 195.01C249.819 195.41 252.029 195.87 253.659 193.43C254.949 191.49 254.759 189.01 254.559 186.62H254.579Z" fill="white"/>
<path d="M230.009 187.1C230.009 187.1 230.279 187.41 230.769 187.95C231.629 187.57 232.339 187.2 232.709 186.9C232.959 186.7 233.959 186.79 234.839 186.87C236.589 187.03 238.979 187.25 241.949 186.39C245.809 185.29 245.959 181.09 246.089 177.38C246.159 175.32 246.229 173.18 246.939 171.89C247.849 170.23 249.389 170.13 250.569 170.37C250.059 169.59 249.529 168.79 248.999 168C247.469 168.15 245.939 168.9 244.909 170.79C243.939 172.56 243.859 174.97 243.779 177.31C243.649 181.18 243.409 183.57 241.319 184.17C238.759 184.9 236.699 184.72 235.049 184.57C233.539 184.43 232.239 184.32 231.269 185.1C230.749 185.52 228.729 186.34 226.539 187.14L230.009 187.09V187.1Z" fill="white"/>
<path d="M175.189 192.77C172.989 192.04 171.069 192.44 169.519 192.76C167.569 193.16 166.859 193.25 166.129 192.16C165.279 190.89 165.439 188.91 165.609 186.82C165.799 184.43 165.999 181.95 164.699 180.01C163.859 178.74 163.059 177.83 162.369 177.18C161.879 177.96 161.459 178.65 161.109 179.2C161.599 179.71 162.169 180.38 162.769 181.29C163.619 182.57 163.459 184.54 163.289 186.63C163.099 189.02 162.899 191.5 164.189 193.44C165.819 195.88 168.019 195.42 169.969 195.02C171.379 194.73 172.829 194.43 174.439 194.96C175.539 195.33 176.119 196.39 176.429 197.65C177.069 197.12 177.709 196.57 178.319 196.03C177.759 194.56 176.789 193.32 175.169 192.77H175.189Z" fill="white"/>
<path d="M182.838 184.57C181.188 184.72 179.128 184.91 176.568 184.17C174.468 183.57 174.238 181.18 174.108 177.31C174.028 174.98 173.948 172.56 172.978 170.79C171.818 168.65 170.018 167.98 168.298 167.97C167.718 168.84 167.138 169.71 166.578 170.57C167.748 170.18 169.828 169.85 170.948 171.89C171.648 173.18 171.728 175.31 171.798 177.38C171.928 181.08 172.068 185.28 175.938 186.39C178.918 187.24 181.308 187.03 183.048 186.87C183.928 186.79 184.928 186.7 185.178 186.9C185.488 187.15 186.018 187.44 186.688 187.75C187.058 187.34 187.268 187.1 187.268 187.1L191.408 187.16C189.198 186.35 187.148 185.52 186.618 185.1C185.638 184.32 184.338 184.44 182.838 184.57Z" fill="white"/>
</g>
</g>
<path d="M262.26 171.55C259.45 176.65 257.1 180.72 257.1 180.72C257.1 180.72 244.35 159.68 239.89 156.18C235.43 152.67 218.85 149.49 218.85 149.49C211.41 148.51 205.73 148.35 198.43 149.49C198.43 149.49 181.86 152.68 177.39 156.18C172.93 159.69 160.18 180.72 160.18 180.72C160.18 180.72 157.64 176.3 154.68 170.92L145.91 176.26C148.47 185.05 151.14 193.48 152.54 195.7C155.73 200.8 159.23 207.17 167.84 203.35C176.45 199.53 187.28 187.09 187.28 187.09L205.47 187.37V187.41L206.84 187.39L208 187.41V187.38L230.02 187.09C230.02 187.09 240.86 199.52 249.46 203.35C258.07 207.17 261.57 200.8 264.76 195.7C266.16 193.47 268.83 185 271.4 176.19L262.26 171.55Z" stroke="#1D1F30" stroke-width="1.23" stroke-linecap="round" stroke-linejoin="round"/>
<path d="M181.24 171.8C181.24 171.8 177.1 180.72 178.05 186.46C179.01 192.2 179.01 193.47 179.01 193.47C179.01 193.47 172.95 210.04 172 216.1C171.04 222.16 173.91 226.94 177.42 229.49C180.93 232.04 228.74 232.68 236.07 230.76C243.4 228.85 242.76 221.84 242.44 215.46C242.12 209.09 239.57 195.38 239.57 195.38C239.57 195.38 240.53 175.94 236.38 171.16" fill="white"/>
<mask id="mask1_2426_36509" style="mask-type:luminance" maskUnits="userSpaceOnUse" x="171" y="171" width="72" height="61">
<path d="M181.24 171.8C181.24 171.8 177.1 180.72 178.05 186.46C179.01 192.2 179.01 193.47 179.01 193.47C179.01 193.47 172.95 210.04 172 216.1C171.04 222.16 173.91 226.94 177.42 229.49C180.93 232.04 228.74 232.68 236.07 230.76C243.4 228.85 242.76 221.84 242.44 215.46C242.12 209.09 239.57 195.38 239.57 195.38C239.57 195.38 240.53 175.94 236.38 171.16" fill="white"/>
</mask>
<g mask="url(#mask1_2426_36509)">
<path d="M217.818 184.61C216.428 184.61 214.958 184.04 213.348 182.57C208.998 178.58 206.098 177.91 203.018 180.15C202.518 180.51 202.038 180.88 201.578 181.23C198.388 183.66 195.378 185.97 190.648 183.06C189.568 182.39 188.588 181.69 187.728 181.06C184.558 178.76 183.178 177.9 180.908 179.75C179.218 181.13 177.868 181.96 176.408 181.78C174.498 181.55 173.158 179.76 170.498 176.21L170.318 175.97C169.258 174.55 168.078 173.79 166.818 173.7C164.658 173.54 162.788 175.36 162.768 175.38C162.318 175.83 161.588 175.83 161.138 175.38C160.688 174.93 160.688 174.2 161.138 173.75C161.238 173.64 163.758 171.18 166.988 171.4C168.948 171.54 170.688 172.61 172.168 174.59L172.348 174.83C174.398 177.57 175.758 179.38 176.688 179.49C177.218 179.55 178.058 179.1 179.448 177.97C183.188 174.91 186.048 176.99 189.088 179.19C189.958 179.82 190.858 180.47 191.868 181.09C195.238 183.16 197.098 181.74 200.178 179.39C200.648 179.03 201.148 178.65 201.658 178.28C206.788 174.55 211.238 177.49 214.908 180.86C217.658 183.39 219.398 182.27 223.048 179.52C223.748 178.99 224.478 178.44 225.258 177.9L225.628 177.65C230.338 174.38 230.858 174.67 237.228 178.18L238.938 179.12C241.148 180.34 242.508 181.08 243.138 181.05C243.618 181.03 244.218 180.37 245.428 178.99C245.928 178.42 246.508 177.76 247.228 176.99C252.388 171.46 254.088 171.83 258.228 173.72L258.558 173.87C259.138 174.13 259.398 174.82 259.128 175.4C258.868 175.98 258.178 176.24 257.598 175.97L257.268 175.82C253.828 174.25 253.208 173.97 248.918 178.57C248.218 179.32 247.648 179.97 247.168 180.52C243.848 184.29 243.148 184.1 237.818 181.15L236.118 180.21C232.358 178.143 229.302 177.923 226.948 179.55L226.578 179.81C225.818 180.33 225.118 180.87 224.438 181.37C222.248 183.02 220.138 184.61 217.808 184.61H217.818ZM224.448 192.45C225.118 191.94 225.828 191.41 226.588 190.89L226.958 190.63C229.312 188.997 232.368 189.217 236.128 191.29L237.828 192.23C243.158 195.18 243.858 195.38 247.178 191.61C247.658 191.06 248.238 190.41 248.928 189.66C253.218 185.06 253.838 185.35 257.278 186.91L257.608 187.06C258.198 187.33 258.878 187.06 259.138 186.49C259.398 185.91 259.138 185.22 258.568 184.96L258.238 184.81C254.098 182.92 252.408 182.55 247.238 188.08C246.518 188.85 245.938 189.51 245.438 190.08C244.228 191.45 243.628 192.11 243.148 192.14C242.508 192.18 241.158 191.43 238.938 190.21L237.228 189.27C230.858 185.76 230.338 185.47 225.628 188.74L225.258 188.99C224.478 189.53 223.748 190.08 223.048 190.61C219.388 193.36 217.658 194.47 214.908 191.95C211.228 188.58 206.778 185.63 201.658 189.37C201.148 189.74 200.648 190.12 200.178 190.48C197.098 192.83 195.238 194.25 191.868 192.18C190.858 191.56 189.958 190.91 189.088 190.28C186.048 188.08 183.188 186 179.448 189.06C178.058 190.19 177.248 190.66 176.688 190.58C175.758 190.47 174.398 188.66 172.348 185.92L172.168 185.68C170.688 183.7 168.938 182.63 166.988 182.49C163.758 182.27 161.248 184.73 161.138 184.84C160.688 185.29 160.688 186.02 161.138 186.47C161.588 186.92 162.318 186.92 162.768 186.47C162.788 186.45 164.658 184.63 166.818 184.79C168.078 184.88 169.258 185.64 170.318 187.06L170.498 187.3C173.158 190.85 174.498 192.64 176.408 192.87C177.868 193.05 179.218 192.23 180.908 190.84C183.178 188.98 184.558 189.84 187.728 192.15C188.588 192.78 189.568 193.48 190.648 194.15C195.368 197.06 198.388 194.76 201.578 192.32C202.038 191.97 202.518 191.6 203.018 191.24C206.108 188.99 208.998 189.67 213.348 193.66C214.958 195.13 216.418 195.7 217.818 195.7C220.138 195.7 222.258 194.11 224.448 192.46V192.45Z" fill="#8B9DC3"/>
<path opacity="0.5" d="M217.818 184.61C216.428 184.61 214.958 184.04 213.348 182.57C208.998 178.58 206.098 177.91 203.018 180.15C202.518 180.51 202.038 180.88 201.578 181.23C198.388 183.66 195.378 185.97 190.648 183.06C189.568 182.39 188.588 181.69 187.728 181.06C184.558 178.76 183.178 177.9 180.908 179.75C179.218 181.13 177.868 181.96 176.408 181.78C174.498 181.55 173.158 179.76 170.498 176.21L170.318 175.97C169.258 174.55 168.078 173.79 166.818 173.7C164.658 173.54 162.788 175.36 162.768 175.38C162.318 175.83 161.588 175.83 161.138 175.38C160.688 174.93 160.688 174.2 161.138 173.75C161.238 173.64 163.758 171.18 166.988 171.4C168.948 171.54 170.688 172.61 172.168 174.59L172.348 174.83C174.398 177.57 175.758 179.38 176.688 179.49C177.218 179.55 178.058 179.1 179.448 177.97C183.188 174.91 186.048 176.99 189.088 179.19C189.958 179.82 190.858 180.47 191.868 181.09C195.238 183.16 197.098 181.74 200.178 179.39C200.648 179.03 201.148 178.65 201.658 178.28C206.788 174.55 211.238 177.49 214.908 180.86C217.658 183.39 219.398 182.27 223.048 179.52C223.748 178.99 224.478 178.44 225.258 177.9L225.628 177.65C230.338 174.38 230.858 174.67 237.228 178.18L238.938 179.12C241.148 180.34 242.508 181.08 243.138 181.05C243.618 181.03 244.218 180.37 245.428 178.99C245.928 178.42 246.508 177.76 247.228 176.99C252.388 171.46 254.088 171.83 258.228 173.72L258.558 173.87C259.138 174.13 259.398 174.82 259.128 175.4C258.868 175.98 258.178 176.24 257.598 175.97L257.268 175.82C253.828 174.25 253.208 173.97 248.918 178.57C248.218 179.32 247.648 179.97 247.168 180.52C243.848 184.29 243.148 184.1 237.818 181.15L236.118 180.21C232.358 178.143 229.302 177.923 226.948 179.55L226.578 179.81C225.818 180.33 225.118 180.87 224.438 181.37C222.248 183.02 220.138 184.61 217.808 184.61H217.818ZM224.448 192.45C225.118 191.94 225.828 191.41 226.588 190.89L226.958 190.63C229.312 188.997 232.368 189.217 236.128 191.29L237.828 192.23C243.158 195.18 243.858 195.38 247.178 191.61C247.658 191.06 248.238 190.41 248.928 189.66C253.218 185.06 253.838 185.35 257.278 186.91L257.608 187.06C258.198 187.33 258.878 187.06 259.138 186.49C259.398 185.91 259.138 185.22 258.568 184.96L258.238 184.81C254.098 182.92 252.408 182.55 247.238 188.08C246.518 188.85 245.938 189.51 245.438 190.08C244.228 191.45 243.628 192.11 243.148 192.14C242.508 192.18 241.158 191.43 238.938 190.21L237.228 189.27C230.858 185.76 230.338 185.47 225.628 188.74L225.258 188.99C224.478 189.53 223.748 190.08 223.048 190.61C219.388 193.36 217.658 194.47 214.908 191.95C211.228 188.58 206.778 185.63 201.658 189.37C201.148 189.74 200.648 190.12 200.178 190.48C197.098 192.83 195.238 194.25 191.868 192.18C190.858 191.56 189.958 190.91 189.088 190.28C186.048 188.08 183.188 186 179.448 189.06C178.058 190.19 177.248 190.66 176.688 190.58C175.758 190.47 174.398 188.66 172.348 185.92L172.168 185.68C170.688 183.7 168.938 182.63 166.988 182.49C163.758 182.27 161.248 184.73 161.138 184.84C160.688 185.29 160.688 186.02 161.138 186.47C161.588 186.92 162.318 186.92 162.768 186.47C162.788 186.45 164.658 184.63 166.818 184.79C168.078 184.88 169.258 185.64 170.318 187.06L170.498 187.3C173.158 190.85 174.498 192.64 176.408 192.87C177.868 193.05 179.218 192.23 180.908 190.84C183.178 188.98 184.558 189.84 187.728 192.15C188.588 192.78 189.568 193.48 190.648 194.15C195.368 197.06 198.388 194.76 201.578 192.32C202.038 191.97 202.518 191.6 203.018 191.24C206.108 188.99 208.998 189.67 213.348 193.66C214.958 195.13 216.418 195.7 217.818 195.7C220.138 195.7 222.258 194.11 224.448 192.46V192.45Z" fill="white"/>
</g>
<path d="M181.24 171.8C181.24 171.8 177.1 180.72 178.05 186.46C179.01 192.2 179.01 193.47 179.01 193.47C179.01 193.47 172.95 210.04 172 216.1C171.04 222.16 173.91 226.94 177.42 229.49C180.93 232.04 228.74 232.68 236.07 230.76C243.4 228.85 242.76 221.84 242.44 215.46C242.12 209.09 239.57 195.38 239.57 195.38C239.57 195.38 240.53 175.94 236.38 171.16" stroke="#1D1F30" stroke-width="1.23" stroke-linecap="round" stroke-linejoin="round"/>
<path d="M198.429 149.49C198.429 149.49 197.919 149.59 197.069 149.77C196.939 150.36 196.859 150.95 196.859 151.57C196.859 157.64 203.349 162.57 211.359 162.57C219.369 162.57 225.859 157.65 225.859 151.57C225.859 151.4 225.839 151.23 225.829 151.05C221.949 150.09 218.849 149.49 218.849 149.49C211.409 148.51 205.729 148.35 198.429 149.49Z" fill="#8B9DC3" stroke="#1D1F30" stroke-width="1.23" stroke-linecap="round" stroke-linejoin="round"/>
<path d="M201.638 143.43C201.638 143.43 200.678 151.08 201.638 153.63C202.598 156.18 208.648 160.96 214.708 159.05C220.768 157.14 221.718 151.4 221.718 149.81V140.89L201.958 141.53L201.638 143.44V143.43Z" fill="#9B9B9B" stroke="#1D1F30" stroke-width="1.23" stroke-linecap="round" stroke-linejoin="round"/>
<path d="M211.841 140.24C224.339 140.24 234.471 130.323 234.471 118.09C234.471 105.857 224.339 95.94 211.841 95.94C199.343 95.94 189.211 105.857 189.211 118.09C189.211 130.323 199.343 140.24 211.841 140.24Z" fill="#1D1F30" stroke="#1D1F30" stroke-width="1.23" stroke-linecap="round" stroke-linejoin="round"/>
<path d="M197.5 125.58C197.5 125.58 195.59 121.12 194.31 125.26C193.03 129.4 195.9 134.5 197.82 134.82C199.73 135.14 197.5 125.58 197.5 125.58Z" fill="#9B9B9B" stroke="#1D1F30" stroke-width="1.23" stroke-linecap="round" stroke-linejoin="round"/>
<path d="M225.05 125.58C225.05 125.58 226.96 121.12 228.24 125.26C229.51 129.4 226.65 134.5 224.73 134.82C222.82 135.14 225.05 125.58 225.05 125.58Z" fill="#9B9B9B" stroke="#1D1F30" stroke-width="1.23" stroke-linecap="round" stroke-linejoin="round"/>
<path d="M221.252 110.69C219.542 109.36 217.322 108.86 215.182 109.22C213.362 109.52 211.002 109.82 209.282 109.64C206.092 109.32 203.542 108.05 200.992 110.6C198.442 113.15 197.172 124.94 197.172 131C197.172 137.06 201.632 145.66 204.822 147.89C208.012 150.12 216.932 149.8 219.162 147.89C221.392 145.98 224.902 138.97 225.532 133.23C226.172 127.49 224.892 116.34 223.622 113.47C223.142 112.39 222.212 111.45 221.242 110.69H221.252Z" fill="#9B9B9B" stroke="#1D1F30" stroke-width="1.23" stroke-linecap="round" stroke-linejoin="round"/>
<path d="M207.069 126.53C207.726 126.53 208.259 125.657 208.259 124.58C208.259 123.503 207.726 122.63 207.069 122.63C206.412 122.63 205.879 123.503 205.879 124.58C205.879 125.657 206.412 126.53 207.069 126.53Z" fill="#1D1F30"/>
<path d="M217.669 124.58C217.669 125.65 217.139 126.53 216.479 126.53C215.819 126.53 215.289 125.66 215.289 124.58C215.289 123.5 215.819 122.63 216.479 122.63C217.139 122.63 217.669 123.5 217.669 124.58Z" fill="#1D1F30"/>
<path d="M213.239 135.61C213.239 136.68 212.709 137.56 212.049 137.56C211.389 137.56 210.859 136.69 210.859 135.61C210.859 134.53 211.389 133.66 212.049 133.66C212.709 133.66 213.239 134.53 213.239 135.61Z" fill="#1D1F30"/>
<path d="M209.67 126.96C207.69 130.09 211.47 132.1 213.99 130.2C215.72 128.9 213.99 126.96 213.99 126.96" fill="#9B9B9B"/>
<path d="M209.67 126.96C207.69 130.09 211.47 132.1 213.99 130.2C215.72 128.9 213.99 126.96 213.99 126.96" stroke="#1D1F30" stroke-width="1.23" stroke-linecap="round" stroke-linejoin="round"/>
<path d="M202.969 120.26C202.969 120.26 206.209 117.23 209.459 118.75" stroke="#1D1F30" stroke-width="1.23" stroke-linecap="round" stroke-linejoin="round"/>
<path d="M214.859 118.96C214.859 118.96 217.889 117.01 220.699 120.69" stroke="#1D1F30" stroke-width="1.23" stroke-linecap="round" stroke-linejoin="round"/>
<path d="M114.42 331.46C114.42 331.46 95.2695 335.21 95.2695 337.16C95.2695 339.11 119.67 344.64 122.27 344.97C124.87 345.3 125.26 332.73 125.26 332.73L114.42 331.46Z" fill="white" stroke="#1D1F30" stroke-width="1.23" stroke-linecap="round" stroke-linejoin="round"/>
<path d="M123.87 343.1L96.5495 336.13C95.7495 336.51 95.2695 336.86 95.2695 337.17C95.2695 339.12 119.67 344.65 122.27 344.98C122.94 345.06 123.46 344.29 123.87 343.11V343.1Z" fill="#8B9DC3" stroke="#1D1F30" stroke-width="1.23" stroke-linecap="round" stroke-linejoin="round"/>
<path d="M164.14 333.69C164.14 333.69 144.71 342.04 146.02 344C147.32 345.95 172.7 344.98 175.3 344.65C177.9 344.32 175.3 332.74 175.3 332.74L164.14 333.7V333.69Z" fill="white" stroke="#1D1F30" stroke-width="1.23" stroke-linecap="round" stroke-linejoin="round"/>
<path d="M146.659 342.77C146.089 343.28 145.829 343.71 146.019 343.99C147.319 345.94 172.699 344.97 175.299 344.64C175.929 344.56 176.249 343.83 176.379 342.77H146.659Z" fill="#8B9DC3" stroke="#1D1F30" stroke-width="1.23" stroke-linecap="round" stroke-linejoin="round"/>
<path d="M84.6895 205.6H158.02V202.64H84.6895V205.6Z" fill="white" stroke="#1D1F30" stroke-width="1.23" stroke-linecap="round" stroke-linejoin="round"/>
<path d="M64.0216 205.6H137.352V202.64H64.0216V205.6Z" fill="white" stroke="#1D1F30" stroke-width="1.23" stroke-linecap="round" stroke-linejoin="round"/>
<path d="M72.1916 197.38H133.342L126.742 150.7H65.6016L72.1916 197.38Z" fill="white" stroke="#1D1F30" stroke-width="1.23" stroke-linecap="round" stroke-linejoin="round"/>
<path d="M69.6603 197.38H130.81L124.21 150.7H63.0703L69.6603 197.38Z" fill="#1D1F30" stroke="#1D1F30" stroke-width="1.23" stroke-linecap="round" stroke-linejoin="round"/>
<path d="M88.3917 175.68L82.2617 205.6H98.0417L104.172 175.68H88.3917ZM99.1017 184.56C99.0417 184.81 98.8117 184.99 98.5517 184.99L89.6117 184.9C89.2517 184.9 88.9917 184.56 89.0717 184.21L89.8817 180.85C89.9417 180.6 90.1717 180.42 90.4317 180.42L99.3717 180.51C99.7317 180.51 99.9917 180.85 99.9117 181.2L99.1017 184.56Z" fill="white" stroke="#1D1F30" stroke-width="1.23" stroke-linecap="round" stroke-linejoin="round"/>
<path d="M75.4262 149.928C76.8547 143.876 73.1063 137.811 67.0539 136.383C61.0014 134.954 54.9369 138.703 53.5084 144.755C52.0799 150.807 55.8284 156.872 61.8808 158.3C67.9332 159.729 73.9977 155.98 75.4262 149.928Z" fill="#FFE5D3" stroke="#1D1F30" stroke-width="1.23" stroke-linecap="round" stroke-linejoin="round"/>
<path d="M64.2997 149.63L60.9897 153.41C60.8297 153.61 60.6597 153.77 60.4597 153.9C59.9397 154.26 59.3997 154.35 58.8397 154.16C58.3897 154.01 58.0797 153.72 57.9197 153.3C57.6797 152.69 57.8397 152.04 58.4297 151.36L62.2797 147.28L58.6197 143.02C58.3197 142.62 58.1597 142.22 58.1597 141.82C58.1597 141.42 58.2697 141.1 58.5097 140.85C58.7497 140.6 59.0297 140.42 59.3597 140.3C59.6897 140.18 60.0597 140.19 60.4697 140.33C60.8797 140.47 61.2397 140.74 61.5497 141.14L64.7297 144.87L67.6897 141.37C67.8597 141.14 68.0497 140.94 68.2497 140.79C68.7997 140.35 69.3797 140.24 69.9697 140.47C70.3997 140.64 70.6997 140.93 70.8797 141.35C71.0997 141.87 71.0197 142.34 70.6497 142.77L66.6897 147.15L70.6897 151.84C70.8297 152.01 70.9297 152.18 70.9997 152.36C71.1897 152.88 71.1097 153.37 70.7497 153.82C70.4197 154.23 69.9897 154.44 69.4697 154.47C68.7697 154.51 68.1597 154.18 67.6197 153.49L64.2997 149.63Z" fill="#EF8686"/>
<path d="M208.629 222.62L205.459 342.33C205.419 343.92 204.119 345.18 202.529 345.18C200.929 345.18 199.629 343.89 199.599 342.29L198.039 222.62H208.629Z" fill="white" stroke="#1D1F30" stroke-width="1.23" stroke-linecap="round" stroke-linejoin="round"/>
<path d="M169.959 222.62L166.789 342.33C166.749 343.92 165.449 345.18 163.869 345.18C162.269 345.18 160.969 343.89 160.939 342.29L159.379 222.62H169.969H169.959Z" fill="white" stroke="#1D1F30" stroke-width="1.23" stroke-linecap="round" stroke-linejoin="round"/>
<path d="M74.3417 222.62L71.1717 342.33C71.1317 343.92 69.8317 345.18 68.2517 345.18C66.6517 345.18 65.3517 343.89 65.3217 342.29L63.7617 222.62H74.3517H74.3417Z" fill="white" stroke="#1D1F30" stroke-width="1.23" stroke-linecap="round" stroke-linejoin="round"/>
<path d="M35.6603 222.62L32.4903 342.33C32.4503 343.92 31.1503 345.18 29.5603 345.18C27.9603 345.18 26.6603 343.89 26.6303 342.29L25.0703 222.62H35.6603Z" fill="white" stroke="#1D1F30" stroke-width="1.23" stroke-linecap="round" stroke-linejoin="round"/>
<path d="M21.5484 223.87L212.398 223.87V209.54L21.5484 209.54V223.87Z" fill="white" stroke="#1D1F30" stroke-width="1.23" stroke-linecap="round" stroke-linejoin="round"/>
<path d="M159.088 223.87H212.398V209.54H159.088V223.87Z" fill="white" stroke="#1D1F30" stroke-width="1.23" stroke-linecap="round" stroke-linejoin="round"/>
<path d="M21.5484 216.7L212.398 216.7V209.54L21.5484 209.54V216.7Z" fill="#1D1F30" stroke="#1D1F30" stroke-width="1.23" stroke-linecap="round" stroke-linejoin="round"/>
<path d="M18.5894 212.51L215.359 212.51V204.62L18.5894 204.62V212.51Z" fill="#8B9DC3" stroke="#1D1F30" stroke-width="1.23" stroke-linecap="round" stroke-linejoin="round"/>
<path d="M18.5908 212.51L155.551 212.51V204.62L18.5908 204.62V212.51Z" fill="#8B9DC3" stroke="#1D1F30" stroke-width="1.23" stroke-linecap="round" stroke-linejoin="round"/>
<path d="M448.383 345.18H456.623" stroke="#1D1F30" stroke-width="1.23" stroke-linecap="round" stroke-linejoin="round"/>
<path d="M0.621094 345.18H435.001" stroke="#1D1F30" stroke-width="1.23" stroke-linecap="round" stroke-linejoin="round"/>
</g>
<defs>
<clipPath id="clip0_2426_36509">
<rect width="457.23" height="356.13" fill="white"/>
</clipPath>
</defs>
</svg>
