<svg width="16" height="16" viewBox="0 0 16 16" fill="none" xmlns="http://www.w3.org/2000/svg">
<path fill-rule="evenodd" clip-rule="evenodd" d="M12.6641 7.33329H8.66406V3.33329C8.66406 2.96463 8.3654 2.66663 7.9974 2.66663C7.6294 2.66663 7.33073 2.96463 7.33073 3.33329V7.33329H3.33073C2.96273 7.33329 2.66406 7.63129 2.66406 7.99996C2.66406 8.36863 2.96273 8.66663 3.33073 8.66663H7.33073V12.6666C7.33073 13.0353 7.6294 13.3333 7.9974 13.3333C8.3654 13.3333 8.66406 13.0353 8.66406 12.6666V8.66663H12.6641C13.0321 8.66663 13.3307 8.36863 13.3307 7.99996C13.3307 7.63129 13.0321 7.33329 12.6641 7.33329Z" fill="white"/>
</svg>
