<svg width="16" height="16" viewBox="0 0 22 12" fill="none" xmlns="http://www.w3.org/2000/svg">
    <path style="fill:#3B5998;" d="M6.42266 0.0259857C9.69382 0.0259857 12.3453 2.70084 12.3453 6.00008C12.3453 9.29941 9.69357 11.974 6.42266 11.974C3.15191 11.974 0.5 9.29941 0.5 6.00008C0.5 2.70092 3.15166 0.0259857 6.42266 0.0259857ZM15.8809 0.375905C17.5164 0.375905 18.8423 2.89371 18.8423 6.00008H18.8425C18.8425 9.10572 17.5166 11.6243 15.8812 11.6243C14.2457 11.6243 12.9198 9.10572 12.9198 6.00008C12.9198 2.89453 14.2454 0.375905 15.8809 0.375905H15.8809ZM20.4584 0.96176C21.0336 0.96176 21.5 3.2175 21.5 6.00017C21.5 8.78193 21.0337 11.0386 20.4584 11.0386C19.8832 11.0386 19.4171 8.78259 19.4171 6.00017C19.4171 3.21766 19.8834 0.96176 20.4584 0.96176Z" fill="#1D1F30"/>
</svg>
