<svg width="16" height="16" viewBox="0 0 16 16" fill="none" xmlns="http://www.w3.org/2000/svg">
    <path fill-rule="evenodd" clip-rule="evenodd" d="M10.8269 14.6667C10.4589 14.6667 10.1602 14.3687 10.1602 14V12.2673C10.1915 11.8253 10.0589 11.4407 9.79819 11.1613C9.62552 10.9773 9.57219 10.712 9.65886 10.476C9.74552 10.2393 9.95752 10.072 10.2082 10.0433C11.8309 9.85534 13.3335 9.29801 13.3335 6.51601C13.3335 5.98267 13.1789 5.46867 12.8862 5.03134C12.6189 4.63267 12.5215 4.14667 12.6109 3.66267C12.6695 3.34734 12.6662 3.02667 12.6029 2.71667C12.3335 2.79667 11.8722 2.98667 11.2075 3.44934C11.0442 3.56267 10.8369 3.59667 10.6462 3.54334C9.44352 3.20534 8.17219 3.20534 6.96886 3.54334C6.77752 3.59667 6.57152 3.56267 6.40819 3.44934C5.75019 2.99134 5.29152 2.80067 5.01152 2.722C4.94886 3.02934 4.94619 3.34734 5.00419 3.66067C5.09286 4.142 4.99219 4.63334 4.72019 5.04534C4.43086 5.48467 4.27952 5.99801 4.28219 6.53134C4.28219 9.12734 5.53486 9.82001 7.41552 10.062C7.66352 10.094 7.87286 10.262 7.95819 10.4973C8.04286 10.7327 7.98886 10.9953 7.81819 11.178C7.56019 11.4547 7.42752 11.8353 7.45352 12.2227L7.45419 12.748C7.45552 12.7747 7.45552 12.8013 7.45419 12.828L7.45486 14C7.45486 14.3687 7.15686 14.6667 6.78819 14.6667C6.42019 14.6667 6.12152 14.3687 6.12152 14V13.6193C4.33152 13.8527 3.31152 12.8933 2.60419 12.2267C2.31086 11.9513 2.03486 11.6907 1.83286 11.638C1.47619 11.5453 1.26219 11.1813 1.35486 10.8253C1.44752 10.4693 1.81152 10.252 2.16752 10.3473C2.70019 10.486 3.09752 10.86 3.51819 11.256C4.19952 11.898 4.84619 12.506 6.12152 12.2693V12.2673C6.09686 11.9147 6.14952 11.5533 6.27152 11.2113C4.90219 10.87 2.94886 9.87467 2.94886 6.53467C2.94486 5.74001 3.17286 4.97067 3.60686 4.31134C3.68819 4.188 3.71886 4.04334 3.69286 3.90267C3.55952 3.18067 3.63619 2.43934 3.91619 1.762C3.99219 1.578 4.14619 1.43734 4.33619 1.37867C4.55686 1.31067 5.37019 1.18067 6.91086 2.18067C8.15819 1.88134 9.45752 1.88134 10.7042 2.18067C12.2455 1.18067 13.0582 1.31 13.2789 1.37867C13.4689 1.43734 13.6229 1.578 13.6989 1.762C13.9795 2.44067 14.0562 3.18134 13.9222 3.90534C13.8962 4.04467 13.9222 4.18134 13.9942 4.29001C14.4342 4.94801 14.6669 5.71734 14.6669 6.51601C14.6669 9.892 12.7182 10.8753 11.3469 11.2047C11.4695 11.5573 11.5209 11.9367 11.4915 12.3187L11.4935 14C11.4935 14.3687 11.1949 14.6667 10.8269 14.6667Z" fill="#3B5998"/>
</svg>
