<svg width="16" height="16" viewBox="0 0 16 16" fill="none" xmlns="http://www.w3.org/2000/svg">
    <path fill-rule="evenodd" clip-rule="evenodd" d="M9.74459 13.0347C10.4439 12.036 11.1713 10.5673 11.3166 8.66668H13.2866C13.0313 10.7013 11.6273 12.38 9.74459 13.0347ZM2.71259 8.66668H4.70725C4.84459 10.5747 5.56258 12.0373 6.27125 13.0407C4.37992 12.3893 2.96925 10.7073 2.71259 8.66668ZM6.29192 2.95268C5.59059 3.95134 4.85659 5.42468 4.70992 7.33334H2.71259C2.96992 5.28534 4.39059 3.59801 6.29192 2.95268ZM6.05259 7.33334C6.25659 5.15201 7.37259 3.63334 8.01725 2.93134C8.68392 3.64534 9.78259 5.15001 9.97259 7.33334H6.05259ZM6.05325 8.66668H9.97459C9.77059 10.8513 8.65192 12.37 8.00792 13.072C7.30992 12.332 6.23925 10.848 6.05325 8.66668ZM13.2866 7.33334H11.3186C11.1819 5.43401 10.4719 3.97601 9.76659 2.97401C11.6386 3.63401 13.0326 5.30668 13.2866 7.33334ZM14.6666 8.00001C14.6666 4.33068 11.6859 1.34534 8.01859 1.33468C8.01592 1.33468 8.01325 1.33401 8.00992 1.33401C8.00725 1.33401 8.00325 1.33334 7.99992 1.33334C4.32392 1.33334 1.33325 4.32468 1.33325 8.00001C1.33325 11.676 4.32392 14.6667 7.99992 14.6667C8.00392 14.6667 8.00725 14.666 8.00992 14.666C8.01125 14.666 8.01192 14.6667 8.01325 14.6667C8.01525 14.6667 8.01725 14.6653 8.01859 14.6653C11.6859 14.6553 14.6666 11.6693 14.6666 8.00001Z" fill="#3B5998"/>
</svg>
