<svg width="16" height="16" viewBox="0 0 16 16" fill="none" xmlns="http://www.w3.org/2000/svg">
    <path d="M6.328 2.453L5.9375 2.5C5.9375 2.5 4.1855 2.6915 2.906 3.719H2.891L2.875 3.734C2.588 3.998 2.463 4.3225 2.2655 4.797C2.03269 5.36788 1.8345 5.95228 1.672 6.547C1.301 7.8885 1 9.5135 1 11V11.125L1.0625 11.25C1.5255 12.0625 2.3475 12.58 3.1095 12.9375C3.871 13.295 4.5295 13.4845 4.9845 13.5L5.2815 13.5155L5.4375 13.25L5.9845 12.281C6.5645 12.412 7.2325 12.5 8 12.5C8.7675 12.5 9.4355 12.412 10.0155 12.281L10.5625 13.25L10.719 13.5155L11.0155 13.5C11.4705 13.4845 12.129 13.295 12.8905 12.9375C13.6525 12.58 14.4745 12.0625 14.9375 11.25L15 11.125V11C15 9.5135 14.699 7.8885 14.328 6.547C14.1655 5.95228 13.9673 5.36788 13.7345 4.797C13.537 4.322 13.412 3.998 13.125 3.7345L13.1095 3.7185H13.0935C11.815 2.6915 10.0625 2.5 10.0625 2.5L9.672 2.453L9.531 2.8125C9.531 2.8125 9.3865 3.1775 9.297 3.594C8.86715 3.5347 8.43391 3.5033 8 3.5C7.7325 3.5 7.27 3.5175 6.703 3.594C6.64386 3.32817 6.56549 3.06698 6.4685 2.8125L6.328 2.453ZM5.6405 3.594C5.662 3.664 5.6835 3.7245 5.703 3.7815C5.0565 3.9415 4.367 4.1855 3.7345 4.578L4.2655 5.422C5.5625 4.617 7.4255 4.5 8 4.5C8.574 4.5 10.4375 4.617 11.7345 5.422L12.2655 4.578C11.633 4.1855 10.9435 3.9415 10.297 3.781C10.3165 3.7245 10.338 3.664 10.3595 3.5935C10.826 3.6875 11.717 3.9025 12.453 4.4845C12.449 4.4865 12.6405 4.7755 12.8125 5.1875C12.9885 5.6115 13.1835 6.176 13.3595 6.8125C13.6975 8.033 13.963 9.5195 13.9845 10.828C13.6695 11.3085 13.086 11.742 12.4685 12.0315C12.0812 12.2145 11.6715 12.3456 11.25 12.4215L11 12C11.1485 11.945 11.295 11.885 11.422 11.828C12.1915 11.49 12.6095 11.125 12.6095 11.125L11.953 10.375C11.953 10.375 11.672 10.633 11.0155 10.922C10.36 11.211 9.3575 11.5 8 11.5C6.6425 11.5 5.6405 11.211 4.9845 10.922C4.328 10.633 4.047 10.375 4.047 10.375L3.3905 11.125C3.3905 11.125 3.8085 11.49 4.578 11.828C4.705 11.885 4.8515 11.9455 5 12L4.75 12.422C4.32824 12.3459 3.91837 12.2144 3.531 12.031C2.914 11.742 2.33 11.3085 2.016 10.828C2.037 9.5195 2.3025 8.033 2.641 6.8125C2.79058 6.26042 2.97307 5.71778 3.1875 5.1875C3.3595 4.7755 3.551 4.4865 3.547 4.4845C4.283 3.9025 5.174 3.6875 5.6405 3.594ZM6.25 7C5.8635 7 5.5215 7.2205 5.3125 7.5C5.1035 7.7795 5 8.123 5 8.5C5 8.877 5.1035 9.2205 5.3125 9.5C5.5215 9.7795 5.8635 10 6.25 10C6.6365 10 6.9785 9.7795 7.1875 9.5C7.3965 9.2205 7.5 8.877 7.5 8.5C7.5 8.123 7.3965 7.7795 7.1875 7.5C6.9785 7.2205 6.6365 7 6.25 7ZM9.75 7C9.3635 7 9.0215 7.2205 8.8125 7.5C8.6035 7.7795 8.5 8.123 8.5 8.5C8.5 8.877 8.6035 9.2205 8.8125 9.5C9.0215 9.7795 9.3635 10 9.75 10C10.1365 10 10.4785 9.7795 10.6875 9.5C10.8965 9.2205 11 8.877 11 8.5C11 8.123 10.8965 7.7795 10.6875 7.5C10.4785 7.2205 10.1365 7 9.75 7ZM6.25 8C6.2775 8 6.3125 8.01 6.375 8.094C6.4375 8.1775 6.5 8.324 6.5 8.5C6.5 8.676 6.4375 8.8225 6.375 8.9065C6.3125 8.99 6.2775 9 6.25 9C6.2225 9 6.1875 8.99 6.125 8.906C6.04231 8.78687 5.99864 8.64501 6 8.5C6 8.324 6.0625 8.1775 6.125 8.0935C6.1875 8.01 6.2225 8 6.25 8ZM9.75 8C9.7775 8 9.8125 8.01 9.875 8.094C9.9375 8.1775 10 8.324 10 8.5C10 8.676 9.9375 8.8225 9.875 8.9065C9.8125 8.99 9.7775 9 9.75 9C9.7225 9 9.6875 8.99 9.625 8.906C9.54231 8.78687 9.49864 8.64501 9.5 8.5C9.5 8.324 9.5625 8.1775 9.625 8.0935C9.6875 8.01 9.7225 8 9.75 8Z" fill="#3B5998"/>
</svg>
