<svg width="16" height="16" viewBox="0 0 16 16" fill="none" xmlns="http://www.w3.org/2000/svg">
    <path fill-rule="evenodd" clip-rule="evenodd" d="M12.6771 4.43618V4.43752V4.43618ZM5.67509 11.9982C5.69109 11.9982 5.70842 11.9989 5.72442 12.0002C9.52109 11.9755 11.7871 9.07485 11.7871 6.27085C11.7871 6.01618 11.9178 5.85152 12.0338 5.70552C12.1391 5.57218 12.3024 5.36685 12.4478 5.07085C11.9191 5.06552 11.4471 4.83085 11.1724 4.50952C10.8851 4.20218 10.4724 4.01418 10.0271 4.00085C9.59775 3.98352 9.15975 4.14885 8.83442 4.45752C8.40108 4.86885 8.21575 5.48952 8.35042 6.07618L8.52442 6.83552L7.74709 6.89018C5.73642 7.04085 4.34309 6.18018 3.38642 5.28952C3.39042 6.63618 3.83775 8.43285 5.87109 9.59152L6.50975 9.95552L6.08508 10.5562C5.64309 11.1822 4.97775 11.5815 4.30042 11.8369C4.74775 11.9435 5.20775 11.9982 5.66642 11.9982H5.67442H5.67509ZM5.67509 13.3335C5.65775 13.3335 5.63909 13.3329 5.62175 13.3315C4.55309 13.3242 3.48109 13.0755 2.51842 12.6095C2.15642 12.4335 1.95175 12.0482 2.00975 11.6482C2.06842 11.2435 2.37909 10.9262 2.78175 10.8609C3.47842 10.7462 4.05642 10.5422 4.47509 10.2695C1.89042 8.33685 1.95842 5.44352 2.12575 4.21818C2.17509 3.85952 2.43042 3.56018 2.77575 3.45552C3.12642 3.34885 3.48975 3.45552 3.72975 3.72818C4.75375 4.88885 5.77709 5.47218 6.97709 5.56085C7.01175 4.78418 7.34242 4.03552 7.91642 3.49018C8.50109 2.93485 9.26575 2.64418 10.0684 2.66818C10.8718 2.69285 11.6171 3.03152 12.1664 3.62152C12.2224 3.68552 12.4318 3.80152 12.6844 3.68818C13.0158 3.53952 13.3924 3.58885 13.6671 3.81818C13.9411 4.04552 14.0578 4.40352 13.9724 4.75218C13.7571 5.63952 13.3318 6.21152 13.1171 6.48552C13.0051 9.88885 10.2398 13.3335 5.67509 13.3335Z" fill="#3B5998"/>
</svg>
