<svg width="440" height="390" viewBox="0 0 440 390" fill="none" xmlns="http://www.w3.org/2000/svg">
<g clip-path="url(#clip0_2426_36364)">
<path d="M0.219386 215.89C0.219386 215.89 3.85938 290.47 66.8494 338.35C129.839 386.22 216.039 387.17 285.859 389.77C355.679 392.38 408.589 351.17 415.669 291.1C422.749 231.03 369.169 215.09 339.129 147.86C309.089 80.64 311.289 58.17 249.419 18.15C187.559 -21.88 92.2894 6.74998 43.2994 80.03C-5.69062 153.31 0.219386 215.89 0.219386 215.89Z" fill="#FFF5CC"/>
<path d="M114.34 286.83C114.34 286.83 123.86 284.94 132.02 291.23C140.19 297.51 146.4 313.48 149.61 335.84C152.82 358.19 154.64 367.88 173.48 371.02C192.33 374.16 237.56 372.9 264.58 372.28C291.6 371.65 290.34 346.52 267.72 344.01C245.1 341.5 229.45 347.53 205.86 342.32C182.27 337.1 226.88 330.19 260.8 335.22C294.72 340.25 309.81 341.5 328.02 339.62" stroke="#1D1F30" stroke-width="2.51" stroke-linecap="round" stroke-linejoin="round"/>
<path d="M114.34 253.38C114.34 253.38 132.65 253.53 137.68 272.38C142.71 291.23 144.59 317.62 145.22 338.35C145.85 359.08 146.48 376.67 170.35 381.7C194.22 386.73 258.94 384.84 276.53 381.07C294.12 377.3 313.6 360.34 299.15 356.57C284.7 352.8 264.6 356.57 272.13 361.6C279.67 366.63 299.77 365.37 323.65 362.23" stroke="#1D1F30" stroke-width="2.51" stroke-linecap="round" stroke-linejoin="round"/>
<path d="M118.102 318.97C118.102 318.97 129.292 318 133.662 330.64C138.042 343.29 132.692 346.2 135.122 352.53C137.552 358.85 152.902 352.95 152.832 358.19C152.772 362.97 146.702 364.32 111.782 362.26C66.1216 359.57 35.9116 366.64 38.3416 371.01C40.7716 375.39 77.2516 371.98 68.4916 378.79C59.7416 385.6 38.3416 377.82 21.8016 377.33C5.26156 376.84 2.35156 380.73 2.35156 380.73" stroke="#1D1F30" stroke-width="2.51" stroke-linecap="round" stroke-linejoin="round"/>
<path d="M119.453 140.33H9.51313C7.54699 140.33 5.95312 141.924 5.95312 143.89V352.17C5.95312 354.136 7.54699 355.73 9.51313 355.73H119.453C121.419 355.73 123.013 354.136 123.013 352.17V143.89C123.013 141.924 121.419 140.33 119.453 140.33Z" fill="#1D1F30" stroke="#1D1F30" stroke-width="1.26" stroke-linecap="round" stroke-linejoin="round"/>
<path d="M120.152 172.6H8.74219V255.11H120.152V172.6Z" fill="#9B9B9B"/>
<path d="M120.152 268.52H8.74219V351.03H120.152V268.52Z" fill="#9B9B9B"/>
<path d="M106.344 278.57H43.0938V343.07H106.344V278.57Z" fill="#8B9DC3" stroke="#1D1F30" stroke-width="1.26" stroke-linecap="round" stroke-linejoin="round"/>
<path d="M106.344 181.81H43.0938V197.73H106.344V181.81Z" fill="#8B9DC3" stroke="#1D1F30" stroke-width="1.26" stroke-linecap="round" stroke-linejoin="round"/>
<path d="M106.344 212.39H43.0938V228.31H106.344V212.39Z" fill="#8B9DC3" stroke="#1D1F30" stroke-width="1.26" stroke-linecap="round" stroke-linejoin="round"/>
<path d="M104.225 174.45L103.005 177.79H46.975L45.745 174.45H33.875V189.16H45.745L46.975 185.82H103.005L104.225 189.16H117.665V174.45H104.225Z" fill="#1D1F30" stroke="#1D1F30" stroke-width="1.26" stroke-linecap="round" stroke-linejoin="round"/>
<path d="M104.225 190.5L103.005 193.85H46.975L45.745 190.5H33.875V205.22H45.745L46.975 201.87H103.005L104.225 205.22H117.665V190.5H104.225Z" fill="#1D1F30" stroke="#1D1F30" stroke-width="1.26" stroke-linecap="round" stroke-linejoin="round"/>
<path d="M104.225 206.56L103.005 209.9H46.975L45.745 206.56H33.875V221.27H45.745L46.975 217.93H103.005L104.225 221.27H117.665V206.56H104.225Z" fill="#1D1F30" stroke="#1D1F30" stroke-width="1.26" stroke-linecap="round" stroke-linejoin="round"/>
<path d="M104.225 222.61L103.005 225.96H46.975L45.745 222.61H33.875V237.33H45.745L46.975 233.98H103.005L104.225 237.33H117.665V222.61H104.225Z" fill="#1D1F30" stroke="#1D1F30" stroke-width="1.26" stroke-linecap="round" stroke-linejoin="round"/>
<path d="M104.225 238.67L103.005 242.01H46.975L45.745 238.67H33.875V253.38H45.745L46.975 250.04H103.005L104.225 253.38H117.665V238.67H104.225Z" fill="#1D1F30" stroke="#1D1F30" stroke-width="1.26" stroke-linecap="round" stroke-linejoin="round"/>
<path d="M104.225 270.77L103.005 274.12H46.975L45.745 270.77H33.875V285.49H45.745L46.975 282.15H103.005L104.225 285.49H117.665V270.77H104.225Z" fill="#1D1F30" stroke="#1D1F30" stroke-width="1.26" stroke-linecap="round" stroke-linejoin="round"/>
<path d="M104.225 286.83L103.005 290.17H46.975L45.745 286.83H33.875V301.55H45.745L46.975 298.2H103.005L104.225 301.55H117.665V286.83H104.225Z" fill="#1D1F30" stroke="#1D1F30" stroke-width="1.26" stroke-linecap="round" stroke-linejoin="round"/>
<path d="M104.225 302.88L103.005 306.23H46.975L45.745 302.88H33.875V317.6H45.745L46.975 314.26H103.005L104.225 317.6H117.665V302.88H104.225Z" fill="#1D1F30" stroke="#1D1F30" stroke-width="1.26" stroke-linecap="round" stroke-linejoin="round"/>
<path d="M104.225 318.94L103.005 322.28H46.975L45.745 318.94H33.875V333.66H45.745L46.975 330.31H103.005L104.225 333.66H117.665V318.94H104.225Z" fill="#1D1F30" stroke="#1D1F30" stroke-width="1.26" stroke-linecap="round" stroke-linejoin="round"/>
<path d="M104.225 334.99L103.005 338.34H46.975L45.745 334.99H33.875V349.71H45.745L46.975 346.37H103.005L104.225 349.71H117.665V334.99H104.225Z" fill="#1D1F30" stroke="#1D1F30" stroke-width="1.26" stroke-linecap="round" stroke-linejoin="round"/>
<path d="M117.642 257.68H10.9922V267.73H117.642V257.68Z" fill="white"/>
<path d="M19.9833 262.59C19.9833 261.04 18.7233 259.78 17.1733 259.78C15.6233 259.78 14.3633 261.04 14.3633 262.59C14.3633 264.14 15.6233 265.4 17.1733 265.4C18.7233 265.4 19.9833 264.14 19.9833 262.59Z" fill="#1D1F30" stroke="#1D1F30" stroke-width="1.26" stroke-linecap="round" stroke-linejoin="round"/>
<path d="M26.5444 265.4C28.0963 265.4 29.3544 264.142 29.3544 262.59C29.3544 261.038 28.0963 259.78 26.5444 259.78C24.9925 259.78 23.7344 261.038 23.7344 262.59C23.7344 264.142 24.9925 265.4 26.5444 265.4Z" fill="#8B9DC3" stroke="#1D1F30" stroke-width="1.26" stroke-linecap="round" stroke-linejoin="round"/>
<path d="M38.7137 262.59C38.7137 261.04 37.4538 259.78 35.9038 259.78C34.3538 259.78 33.0938 261.04 33.0938 262.59C33.0938 264.14 34.3538 265.4 35.9038 265.4C37.4538 265.4 38.7137 264.14 38.7137 262.59Z" fill="#1D1F30" stroke="#1D1F30" stroke-width="1.26" stroke-linecap="round" stroke-linejoin="round"/>
<path d="M117.642 161.34H10.9922V171.39H117.642V161.34Z" fill="white"/>
<path d="M19.9833 166.26C19.9833 164.71 18.7233 163.45 17.1733 163.45C15.6233 163.45 14.3633 164.71 14.3633 166.26C14.3633 167.81 15.6233 169.07 17.1733 169.07C18.7233 169.07 19.9833 167.81 19.9833 166.26Z" fill="white" stroke="#1D1F30" stroke-width="1.26" stroke-linecap="round" stroke-linejoin="round"/>
<path d="M29.3544 166.26C29.3544 164.71 28.0944 163.45 26.5444 163.45C24.9944 163.45 23.7344 164.71 23.7344 166.26C23.7344 167.81 24.9944 169.07 26.5444 169.07C28.0944 169.07 29.3544 167.81 29.3544 166.26Z" fill="#8B9DC3" stroke="#1D1F30" stroke-width="1.26" stroke-linecap="round" stroke-linejoin="round"/>
<path d="M38.7137 166.26C38.7137 164.71 37.4538 163.45 35.9038 163.45C34.3538 163.45 33.0938 164.71 33.0938 166.26C33.0938 167.81 34.3538 169.07 35.9038 169.07C37.4538 169.07 38.7137 167.81 38.7137 166.26Z" fill="white" stroke="#1D1F30" stroke-width="1.26" stroke-linecap="round" stroke-linejoin="round"/>
<path d="M117.642 148.41H10.9922V158.46H117.642V148.41Z" fill="white"/>
<path d="M19.9833 153.33C19.9833 151.78 18.7233 150.52 17.1733 150.52C15.6233 150.52 14.3633 151.78 14.3633 153.33C14.3633 154.88 15.6233 156.14 17.1733 156.14C18.7233 156.14 19.9833 154.88 19.9833 153.33Z" fill="#8B9DC3" stroke="#1D1F30" stroke-width="1.26" stroke-linecap="round" stroke-linejoin="round"/>
<path d="M29.3544 153.33C29.3544 151.78 28.0944 150.52 26.5444 150.52C24.9944 150.52 23.7344 151.78 23.7344 153.33C23.7344 154.88 24.9944 156.14 26.5444 156.14C28.0944 156.14 29.3544 154.88 29.3544 153.33Z" fill="#1D1F30" stroke="#1D1F30" stroke-width="1.26" stroke-linecap="round" stroke-linejoin="round"/>
<path d="M38.7137 153.33C38.7137 151.78 37.4538 150.52 35.9038 150.52C34.3538 150.52 33.0938 151.78 33.0938 153.33C33.0938 154.88 34.3538 156.14 35.9038 156.14C37.4538 156.14 38.7137 154.88 38.7137 153.33Z" fill="#1D1F30" stroke="#1D1F30" stroke-width="1.26" stroke-linecap="round" stroke-linejoin="round"/>
<path d="M28.8517 174.69H11.2617V182.23H28.8517V174.69Z" fill="#1D1F30" stroke="#1D1F30" stroke-width="1.26" stroke-linecap="round" stroke-linejoin="round"/>
<path d="M28.8517 191.03H11.2617V198.57H28.8517V191.03Z" fill="#1D1F30" stroke="#1D1F30" stroke-width="1.26" stroke-linecap="round" stroke-linejoin="round"/>
<path d="M28.8517 207.36H11.2617V214.9H28.8517V207.36Z" fill="#8B9DC3" stroke="#1D1F30" stroke-width="1.26" stroke-linecap="round" stroke-linejoin="round"/>
<path d="M28.8517 223.7H11.2617V231.24H28.8517V223.7Z" fill="#8B9DC3" stroke="#1D1F30" stroke-width="1.26" stroke-linecap="round" stroke-linejoin="round"/>
<path d="M28.8517 240.03H11.2617V247.57H28.8517V240.03Z" fill="#8B9DC3" stroke="#1D1F30" stroke-width="1.26" stroke-linecap="round" stroke-linejoin="round"/>
<path d="M28.8517 270.61H11.2617V278.15H28.8517V270.61Z" fill="#8B9DC3" stroke="#1D1F30" stroke-width="1.26" stroke-linecap="round" stroke-linejoin="round"/>
<path d="M28.8517 286.95H11.2617V294.49H28.8517V286.95Z" fill="#1D1F30" stroke="#1D1F30" stroke-width="1.26" stroke-linecap="round" stroke-linejoin="round"/>
<path d="M28.8517 303.28H11.2617V310.82H28.8517V303.28Z" fill="#8B9DC3" stroke="#1D1F30" stroke-width="1.26" stroke-linecap="round" stroke-linejoin="round"/>
<path d="M28.8517 319.62H11.2617V327.16H28.8517V319.62Z" fill="#1D1F30" stroke="#1D1F30" stroke-width="1.26" stroke-linecap="round" stroke-linejoin="round"/>
<path d="M28.8517 335.95H11.2617V343.49H28.8517V335.95Z" fill="#8B9DC3" stroke="#1D1F30" stroke-width="1.26" stroke-linecap="round" stroke-linejoin="round"/>
<path d="M176.169 94.64C176.169 94.64 159.319 98.93 154.639 105.34C149.959 111.74 130.989 155.34 130.989 155.34C130.989 155.34 124.829 162.24 131.479 168.89C138.129 175.54 151.429 178 156.359 172.09C161.289 166.18 168.429 138.34 169.409 135.14C170.399 131.94 177.779 104.84 178.519 103.36C179.259 101.88 179.959 95.51 176.159 94.63L176.169 94.64Z" fill="#D9D9D9" stroke="#1D1F30" stroke-width="1.26" stroke-linecap="round" stroke-linejoin="round"/>
<path d="M176.17 94.64C176.17 94.64 159.32 98.93 154.64 105.34C151.81 109.22 143.74 126.71 137.82 139.92C140.7 139.34 152.7 137.56 166.75 144.64C168.11 139.92 169.1 136.19 169.42 135.14C170.41 131.94 177.79 104.84 178.53 103.37C179.27 101.89 179.97 95.52 176.17 94.64Z" fill="#1D1F30" stroke="#1D1F30" stroke-width="1.26" stroke-linecap="round" stroke-linejoin="round"/>
<path d="M225.58 37.85C225.58 37.85 230.26 40.31 232.23 44.99C234.2 49.67 234.2 56.81 234.2 56.81C234.2 56.81 265.73 55.82 277.8 55.58C289.87 55.33 298 58.29 298.24 64.2C298.49 70.11 295.78 81.69 289.13 86.12C282.48 90.55 261.79 83.41 251.2 80.45C240.61 77.49 236.91 78.48 229.28 77.49C221.65 76.5 219.43 73.55 218.2 68.87C216.97 64.19 219.43 55.32 219.43 48.18C219.43 41.04 218.44 36.36 225.59 37.83L225.58 37.85Z" fill="#D9D9D9" stroke="#1D1F30" stroke-width="1.26" stroke-linecap="round" stroke-linejoin="round"/>
<path d="M271.64 68.15C271.64 68.15 267.21 79.48 259.08 85.64C253.25 90.06 245.38 92.58 241.41 93.64C227.21 89.66 207.14 87.76 195.41 90.37C195.41 90.37 179.02 94.29 176.18 94.64C173.33 95 166.56 117.79 165.14 133.47C163.72 149.14 168.35 187.97 168.35 190.82C168.35 193.67 170.13 241.04 172.98 254.22C175.83 267.4 179.04 285.21 179.39 287.7C179.75 290.19 182.24 308.72 182.24 314.77C182.24 320.82 179.39 335.43 179.39 335.43C179.39 335.43 166.57 343.98 161.58 348.97C156.59 353.96 165.25 359.2 171.55 360.37C182.3 362.36 195.06 351.82 195.06 351.82C195.06 351.82 209.15 346.19 209.31 346.12C213.1 344.6 214.22 340.53 214.31 336.88C214.53 328.09 214.75 319.3 214.98 310.51C217.22 319.85 219.06 329.29 220.49 338.8C221.08 342.7 221.67 346.79 224.03 349.95C225.22 351.55 227.14 353.49 228.97 354.34C230.39 355 231.9 354.86 233.32 355.68C235.95 357.2 237.03 360.48 239.59 362.13C244.61 365.36 251.86 367.02 257.75 366.79C257.75 366.79 272 367.5 272.71 359.67C273.42 351.83 254.19 339.01 254.19 339.01C254.19 339.01 251.34 287 249.2 269.91C247.06 252.81 241.36 225.03 241.36 212.92C241.36 200.81 247.06 143.82 247.06 143.82C247.06 143.82 247.64 142.32 248.53 139.87C248.84 139.71 249.15 139.53 249.47 139.35C257.6 134.67 280.26 116.44 287.65 104.87C294.72 93.79 297.28 73 297.49 66.92" fill="#D9D9D9"/>
<path d="M271.64 68.15C271.64 68.15 267.21 79.48 259.08 85.64C253.25 90.06 245.38 92.58 241.41 93.64C227.21 89.66 207.14 87.76 195.41 90.37C195.41 90.37 179.02 94.29 176.18 94.64C173.33 95 166.56 117.79 165.14 133.47C163.72 149.14 168.35 187.97 168.35 190.82C168.35 193.67 170.13 241.04 172.98 254.22C175.83 267.4 179.04 285.21 179.39 287.7C179.75 290.19 182.24 308.72 182.24 314.77C182.24 320.82 179.39 335.43 179.39 335.43C179.39 335.43 166.57 343.98 161.58 348.97C156.59 353.96 165.25 359.2 171.55 360.37C182.3 362.36 195.06 351.82 195.06 351.82C195.06 351.82 209.15 346.19 209.31 346.12C213.1 344.6 214.22 340.53 214.31 336.88C214.53 328.09 214.75 319.3 214.98 310.51C217.22 319.85 219.06 329.29 220.49 338.8C221.08 342.7 221.67 346.79 224.03 349.95C225.22 351.55 227.14 353.49 228.97 354.34C230.39 355 231.9 354.86 233.32 355.68C235.95 357.2 237.03 360.48 239.59 362.13C244.61 365.36 251.86 367.02 257.75 366.79C257.75 366.79 272 367.5 272.71 359.67C273.42 351.83 254.19 339.01 254.19 339.01C254.19 339.01 251.34 287 249.2 269.91C247.06 252.81 241.36 225.03 241.36 212.92C241.36 200.81 247.06 143.82 247.06 143.82C247.06 143.82 247.64 142.32 248.53 139.87C248.84 139.71 249.15 139.53 249.47 139.35C257.6 134.67 280.26 116.44 287.65 104.87C294.72 93.79 297.28 73 297.49 66.92" stroke="#1D1F30" stroke-width="1.26" stroke-linecap="round" stroke-linejoin="round"/>
<path d="M272.7 359.66C273.41 351.82 254.18 339 254.18 339C254.18 339 253.96 334.99 253.6 328.85C241.54 331.78 229.97 332.84 219.52 332.83C219.86 334.82 220.18 336.81 220.49 338.8C221.08 342.7 221.67 346.79 224.03 349.95C225.22 351.55 227.14 353.49 228.97 354.34C230.39 355 231.9 354.86 233.32 355.68C235.95 357.2 237.03 360.48 239.59 362.13C244.61 365.36 251.86 367.02 257.75 366.79C257.75 366.79 272 367.5 272.71 359.67L272.7 359.66Z" fill="#1D1F30" stroke="#1D1F30" stroke-width="1.26" stroke-linecap="round" stroke-linejoin="round"/>
<path d="M209.298 346.12C213.088 344.6 214.208 340.53 214.308 336.88C214.338 335.5 214.378 334.12 214.408 332.74C200.068 332.25 188.238 329.87 180.718 327.92C180.038 332.08 179.378 335.43 179.378 335.43C179.378 335.43 166.558 343.98 161.568 348.97C156.578 353.96 165.238 359.2 171.538 360.37C182.288 362.36 195.048 351.82 195.048 351.82C195.048 351.82 209.138 346.19 209.298 346.12Z" fill="#1D1F30" stroke="#1D1F30" stroke-width="1.26" stroke-linecap="round" stroke-linejoin="round"/>
<path d="M272.699 359.66C272.709 359.55 272.699 359.43 272.699 359.31C270.499 360.97 267.119 362.71 262.089 363.61C250.829 365.61 240.579 359.86 237.819 357.36C235.069 354.86 233.319 352.86 229.059 350.1C224.809 347.35 220.949 340.58 220.949 340.58L220.789 340.83C221.319 344.08 222.059 347.34 224.009 349.95C225.199 351.55 227.119 353.49 228.949 354.34C230.369 355 231.879 354.86 233.299 355.68C235.929 357.2 237.009 360.48 239.569 362.13C244.589 365.36 251.839 367.02 257.729 366.79C257.729 366.79 271.979 367.5 272.689 359.67L272.699 359.66Z" fill="white" stroke="#1D1F30" stroke-width="1.26" stroke-linecap="round" stroke-linejoin="round"/>
<path d="M209.3 346.12C212.61 344.8 213.88 341.53 214.21 338.3C210.94 340.25 203.35 344.67 198.55 346.59C192.3 349.09 188.04 356.6 175.78 356.6C167.04 356.6 162.26 353.17 160.22 351.2C159.14 355.43 166.17 359.37 171.54 360.37C182.29 362.36 195.05 351.82 195.05 351.82C195.05 351.82 209.14 346.19 209.3 346.12Z" fill="white" stroke="#1D1F30" stroke-width="1.26" stroke-linecap="round" stroke-linejoin="round"/>
<path d="M255.568 87.95C250.388 90.96 244.618 92.77 241.398 93.64C227.198 89.66 207.128 87.76 195.398 90.37C195.398 90.37 179.008 94.29 176.168 94.64C173.318 95 166.548 117.79 165.128 133.47C164.248 143.14 165.678 161.63 166.898 175.04C196.578 185.92 228.238 182.19 243.718 179.22C245.288 161.47 247.048 143.8 247.048 143.8C247.048 143.8 247.628 142.3 248.518 139.85C248.828 139.68 249.138 139.51 249.458 139.33C254.978 136.15 267.208 126.72 276.798 117.37C257.548 111.78 255.218 96.6 255.558 87.95H255.568Z" fill="#1D1F30" stroke="#1D1F30" stroke-width="1.26" stroke-linecap="round" stroke-linejoin="round"/>
<path d="M227.961 104.95C227.961 98.88 224.811 93.44 219.861 89.75C210.761 88.87 201.831 88.94 195.401 90.37C195.401 90.37 190.871 91.45 186.161 92.53C183.031 95.95 181.141 100.26 181.141 104.95C181.141 116.06 191.621 125.07 204.551 125.07C217.481 125.07 227.961 116.06 227.961 104.95Z" fill="#9B9B9B" stroke="#1D1F30" stroke-width="1.26" stroke-linecap="round" stroke-linejoin="round"/>
<path d="M220.958 340.58C224.008 341.72 229.698 343.26 237.618 342.92C249.908 342.39 254.178 339 254.178 339C254.178 339 251.328 286.99 249.188 269.9C247.048 252.8 241.348 225.02 241.348 212.91C241.348 205.77 243.328 183.05 244.958 165.58C244.708 165.61 244.448 165.64 244.198 165.67C235.498 166.67 227.938 159.74 228.198 150.99L228.538 139.62C228.538 139.62 217.318 140.69 200.758 138.82C184.198 136.95 167.098 131.34 167.098 131.34L165.298 131.89C165.238 132.42 165.188 132.95 165.138 133.47C163.718 149.14 168.348 187.97 168.348 190.82C168.348 193.67 170.128 241.04 172.978 254.22C175.828 267.4 179.038 285.21 179.388 287.7C179.748 290.19 182.238 308.72 182.238 314.77C182.238 320.82 179.488 334.89 179.398 335.41C181.538 336.07 186.018 337.43 194.088 339.71C206.378 343.18 214.298 339 214.298 339C214.298 334.73 215.008 310.5 215.008 310.5C215.008 310.5 219.508 330.99 220.968 340.58H220.958Z" fill="white" stroke="#1D1F30" stroke-width="1.26" stroke-linecap="round" stroke-linejoin="round"/>
<path d="M180.256 146.34L212.256 151.6V171.32L194.286 189.29L179.816 171.76L180.256 146.34Z" stroke="#1D1F30" stroke-width="1.26" stroke-linecap="round" stroke-linejoin="round"/>
<path d="M203.346 257.23C201.036 244.21 199.316 231.38 199.316 222.16L186.496 213.61" stroke="#1D1F30" stroke-width="1.26" stroke-linecap="round" stroke-linejoin="round"/>
<path d="M214.997 310.5C214.997 310.5 209.597 289.63 205.137 266.78" stroke="#1D1F30" stroke-width="1.26" stroke-linecap="round" stroke-linejoin="round"/>
<path d="M224.52 200.02C224.8 201.1 225.22 202.21 225.85 203.32C229.79 210.33 235.49 211.21 235.49 211.21L236.37 192.8" stroke="#1D1F30" stroke-width="1.26" stroke-linecap="round" stroke-linejoin="round"/>
<path d="M225.848 189.29C225.848 189.29 224.908 190.97 224.398 193.5" stroke="#1D1F30" stroke-width="1.26" stroke-linecap="round" stroke-linejoin="round"/>
<path d="M241.559 245.31C242.019 247.74 242.489 250.13 242.939 252.41" stroke="#1D1F30" stroke-width="1.26" stroke-linecap="round" stroke-linejoin="round"/>
<path d="M235.488 211.21C235.488 211.21 237.738 224.72 240.348 238.88" stroke="#1D1F30" stroke-width="1.26" stroke-linecap="round" stroke-linejoin="round"/>
<path d="M193.32 82.79L193.14 93.29C193.14 93.29 189.52 96.19 188.8 103.79C188.08 111.39 195.32 118.45 203.46 118.45C211.6 118.45 218.67 112.11 219.93 106.32C221.2 100.53 219.57 92.2 219.57 92.2L219.03 79.53C219.03 79.53 211.06 84.6 203.46 83.15C195.86 81.7 193.68 78.99 193.68 78.99L193.32 82.79Z" fill="#D9D9D9" stroke="#1D1F30" stroke-width="1.26" stroke-linecap="round" stroke-linejoin="round"/>
<path d="M187.649 55.38C187.649 55.38 187.159 61.39 188.459 62.85C189.759 64.31 191.549 65.45 191.869 64.15C192.189 62.85 192.359 56.03 192.679 54.56C192.999 53.1 187.809 51.31 187.639 55.37L187.649 55.38Z" fill="#D9D9D9" stroke="#1D1F30" stroke-width="1.26" stroke-linecap="round" stroke-linejoin="round"/>
<path d="M190.82 55.3C190.82 55.3 189.32 67.33 189.32 73.1C189.32 78.87 187.06 81.12 194.33 84.88C201.6 88.64 207.86 89.14 212.88 87.39C217.89 85.64 220.65 81.37 220.9 77.87C221.15 74.36 221.15 68.85 221.15 68.85C221.15 68.85 228.17 62.58 226.66 57.82C225.16 53.06 221.9 59.07 221.9 59.07C221.9 59.07 224.16 52.8 223.91 46.29C223.66 39.77 218.65 39.02 216.64 39.02C214.63 39.02 202.35 35.26 196.59 39.02C190.83 42.78 190.83 55.31 190.83 55.31L190.82 55.3Z" fill="#D9D9D9" stroke="#1D1F30" stroke-width="1.26" stroke-linecap="round" stroke-linejoin="round"/>
<path d="M221.899 59.06C221.899 59.06 224.159 52.79 223.909 46.28C223.659 39.76 218.649 39.01 216.639 39.01C216.609 39.01 216.539 39.01 216.499 39C215.439 40.78 214.129 43.52 214.129 43.52L215.129 44.02C215.129 44.02 214.129 49.53 216.129 50.29C218.129 51.04 217.129 52.8 217.129 55.8C217.129 58.8 218.879 61.06 219.889 61.06C220.679 61.06 221.929 59.05 222.429 58.19C222.099 58.68 221.899 59.06 221.899 59.06Z" fill="#1D1F30" stroke="#1D1F30" stroke-width="1.26" stroke-linecap="round" stroke-linejoin="round"/>
<path d="M202.11 59.77C202.11 59.77 200 61.72 200.97 63.18C201.94 64.64 205.52 65.45 206.49 63.67C207.46 61.88 206.33 60.26 205.84 59.93" stroke="#1D1F30" stroke-width="1.26" stroke-linecap="round" stroke-linejoin="round"/>
<path d="M199.831 57.82C199.831 58.81 199.431 59.61 198.941 59.61C198.451 59.61 198.051 58.81 198.051 57.82C198.051 56.83 198.451 56.03 198.941 56.03C199.431 56.03 199.831 56.83 199.831 57.82Z" fill="#1D1F30"/>
<path d="M210.639 58.31C210.639 59.3 210.239 60.1 209.749 60.1C209.259 60.1 208.859 59.3 208.859 58.31C208.859 57.32 209.259 56.52 209.749 56.52C210.239 56.52 210.639 57.32 210.639 58.31Z" fill="#1D1F30"/>
<path d="M207.949 53.44C207.949 53.44 211.359 51.17 214.609 54.74" stroke="#1D1F30" stroke-width="1.26" stroke-linecap="round" stroke-linejoin="round"/>
<path d="M202.781 69.43C202.781 69.43 201.361 68.66 200.001 69.31C198.641 69.95 198.381 71.05 198.381 71.05C198.381 71.05 196.301 72.73 198.491 73.46C200.681 74.19 205.461 74.14 206.691 74.08C207.921 74.02 208.331 72.76 208.291 72.01C208.261 71.26 207.781 71.04 207.781 71.04C207.781 71.04 206.101 68.12 202.771 69.44L202.781 69.43Z" fill="#DFE3EE" stroke="#1D1F30" stroke-width="0.92" stroke-linecap="round" stroke-linejoin="round"/>
<path d="M197.902 71.67C197.902 71.67 202.372 70.73 207.992 72.27" stroke="#1D1F30" stroke-width="1.07" stroke-linecap="round" stroke-linejoin="round"/>
<path d="M186.559 41.51L213.379 45.27C213.379 45.27 224.659 42.26 225.659 40.01C226.659 37.75 222.899 26.48 220.899 23.72C218.889 20.96 199.599 25.73 193.579 26.73C187.559 27.73 183.049 29.24 183.299 32.24C183.549 35.25 186.559 41.51 186.559 41.51Z" fill="#8B9DC3" stroke="#1D1F30" stroke-width="1.26" stroke-linecap="round" stroke-linejoin="round"/>
<path d="M186.558 41.51C186.558 41.51 171.268 54.04 171.018 55.3C170.768 56.55 193.328 57.05 200.338 55.55C207.358 54.05 213.368 45.27 213.368 45.27L186.548 41.51H186.558Z" fill="white" stroke="#1D1F30" stroke-width="1.26" stroke-linecap="round" stroke-linejoin="round"/>
<path d="M169.858 207.65L211.908 183.02C214.498 184.96 218.098 185.28 221.068 183.54C224.418 181.58 225.868 177.63 224.818 174.07L216.048 179.21L214.018 175.75L222.788 170.61C220.188 167.95 216.038 167.29 212.688 169.25C209.718 170.99 208.238 174.28 208.668 177.49L166.618 202.12C164.028 200.18 160.428 199.86 157.458 201.6C154.108 203.56 152.658 207.51 153.708 211.07L162.248 206.07L164.278 209.53L155.738 214.53C158.338 217.19 162.488 217.85 165.838 215.89C168.808 214.15 170.288 210.86 169.858 207.65Z" fill="#8B9DC3" stroke="#1D1F30" stroke-width="1.26" stroke-linecap="round" stroke-linejoin="round"/>
<path d="M205.619 189.34C205.619 189.34 210.789 193.03 210.789 196.48C210.789 199.93 204.629 203.62 200.439 203.87C196.249 204.12 195.509 199.44 196.249 196.97C196.989 194.51 205.609 189.33 205.609 189.33L205.619 189.34Z" fill="#D9D9D9" stroke="#1D1F30" stroke-width="1.26" stroke-linecap="round" stroke-linejoin="round"/>
<path d="M151.429 158.55C151.429 158.55 179.999 174.56 183.939 174.07C187.879 173.58 193.299 170.13 196.259 171.11C199.219 172.1 207.339 184.66 208.079 186.87C208.819 189.09 202.169 196.97 200.689 198.2C199.209 199.43 194.529 204.36 193.549 204.85C192.559 205.34 186.159 211.01 182.959 211.01C179.759 211.01 174.339 208.55 173.849 207.32C173.359 206.09 174.589 204.36 174.589 204.36L159.559 197.46C159.559 197.46 130.989 181.94 126.059 174.06C121.129 166.18 133.449 152.14 133.449 152.14" fill="#D9D9D9"/>
<path d="M151.429 158.55C151.429 158.55 179.999 174.56 183.939 174.07C187.879 173.58 193.299 170.13 196.259 171.11C199.219 172.1 207.339 184.66 208.079 186.87C208.819 189.09 202.169 196.97 200.689 198.2C199.209 199.43 194.529 204.36 193.549 204.85C192.559 205.34 186.159 211.01 182.959 211.01C179.759 211.01 174.339 208.55 173.849 207.32C173.359 206.09 174.589 204.36 174.589 204.36L159.559 197.46C159.559 197.46 130.989 181.94 126.059 174.06C121.129 166.18 133.449 152.14 133.449 152.14" stroke="#1D1F30" stroke-width="1.26" stroke-linecap="round" stroke-linejoin="round"/>
<path d="M184.438 197.22C184.438 197.22 187.397 197.47 187.887 200.67C188.377 203.87 187.147 209.54 187.147 209.54" stroke="#1D1F30" stroke-width="1.26" stroke-linecap="round" stroke-linejoin="round"/>
<path d="M190.109 192.54C190.109 192.54 193.559 192.79 193.559 195.99V204.86" stroke="#1D1F30" stroke-width="1.26" stroke-linecap="round" stroke-linejoin="round"/>
<path d="M193.801 183.67C193.801 183.67 200.201 188.35 200.701 191.06C201.191 193.77 200.701 198.2 200.701 198.2" stroke="#1D1F30" stroke-width="1.26" stroke-linecap="round" stroke-linejoin="round"/>
<path d="M222.358 166.79C223.788 166.79 227.608 157.25 227.608 153.67C227.608 150.09 229.278 123.85 233.098 111.69C235.838 102.96 238.198 96.22 239.318 93.09C236.408 92.34 233.298 91.68 230.098 91.13C228.188 96.92 222.358 114.99 219.978 126.48C217.118 140.31 217.828 156.77 218.068 158.2C218.308 159.63 220.928 166.79 222.358 166.79Z" fill="white" stroke="#1D1F30" stroke-width="1.26" stroke-linecap="round" stroke-linejoin="round"/>
<path d="M227.648 138.518L219.45 137.43C218.776 137.341 218.158 137.814 218.069 138.487L217.2 145.03C217.111 145.704 217.584 146.322 218.258 146.411L226.456 147.499C227.129 147.589 227.748 147.115 227.837 146.442L228.705 139.899C228.795 139.226 228.321 138.607 227.648 138.518Z" fill="white" stroke="#1D1F30" stroke-width="1.26" stroke-linecap="round" stroke-linejoin="round"/>
<path d="M225.444 139.92L221.212 139.359C220.538 139.269 219.92 139.743 219.83 140.416L219.405 143.618C219.316 144.291 219.789 144.91 220.463 144.999L224.696 145.561C225.369 145.65 225.988 145.177 226.077 144.503L226.502 141.301C226.591 140.628 226.118 140.01 225.444 139.92Z" fill="white" stroke="#1D1F30" stroke-width="1.26" stroke-linecap="round" stroke-linejoin="round"/>
<path d="M168.931 163.21C170.361 163.21 174.181 153.67 174.181 150.09C174.181 146.51 175.851 120.27 179.671 108.11C182.091 100.38 183.741 95.46 184.631 92.88C180.911 93.72 177.371 94.49 176.181 94.64C175.311 94.75 174.061 96.98 172.711 100.47C171.131 105.36 169.191 111.74 167.671 117.95C166.501 123.23 165.561 128.68 165.131 133.47C164.761 137.51 164.801 143.09 165.061 149.19C165.081 149.37 165.101 149.52 165.121 149.61C165.361 151.04 167.511 163.21 168.941 163.21H168.931Z" fill="white" stroke="#1D1F30" stroke-width="1.26" stroke-linecap="round" stroke-linejoin="round"/>
<path d="M174.36 130.993L166.137 130.115C165.462 130.043 164.856 130.532 164.784 131.208L164.083 137.77C164.011 138.446 164.5 139.052 165.176 139.124L173.399 140.001C174.075 140.073 174.681 139.584 174.753 138.909L175.453 132.346C175.525 131.671 175.036 131.065 174.36 130.993Z" fill="white" stroke="#1D1F30" stroke-width="1.26" stroke-linecap="round" stroke-linejoin="round"/>
<path d="M172.192 132.461L167.946 132.008C167.27 131.936 166.664 132.425 166.592 133.1L166.249 136.312C166.177 136.988 166.667 137.594 167.342 137.666L171.588 138.119C172.263 138.191 172.869 137.702 172.942 137.026L173.284 133.814C173.356 133.139 172.867 132.533 172.192 132.461Z" fill="white" stroke="#1D1F30" stroke-width="1.26" stroke-linecap="round" stroke-linejoin="round"/>
</g>
<defs>
<clipPath id="clip0_2426_36364">
<rect width="439.8" height="389.88" fill="white"/>
</clipPath>
</defs>
</svg>
