<svg width="24" height="24" viewBox="0 0 14 12" fill="none" xmlns="http://www.w3.org/2000/svg">
<path d="M8.26879 5.1973L12.1359 0.798743L12.4278 0.466687H11.9857H11.0447H10.9543L10.8945 0.53463L7.61441 4.26546L5.00661 0.551752L4.94688 0.466687H4.84294H1.66669H1.28186L1.50301 0.781623L5.57694 6.58313L1.51649 11.2013L1.22453 11.5334H1.66669H2.60772H2.69819L2.75792 11.4654L6.23122 7.51483L8.99343 11.4483L9.05316 11.5334H9.1571H12.3334H12.7182L12.497 11.2184L8.26879 5.1973ZM9.70271 10.4717L6.92593 6.58536V6.58514L6.88866 6.53297L6.46673 5.94245L6.46672 5.94245L3.33548 1.55985H4.28924L6.93873 5.26825L6.93873 5.26826L7.36067 5.85878L7.36067 5.85879L10.6565 10.4717H9.70271Z" fill="#1D1F30" stroke="#1D1F30" stroke-width="0.4"/>
</svg>
