<svg width="16" height="16" viewBox="0 0 16 16" fill="none" xmlns="http://www.w3.org/2000/svg">
<path fill-rule="evenodd" clip-rule="evenodd" d="M7.9984 10.7002C8.1044 10.7002 8.2104 10.7255 8.30706 10.7755L10.8197 12.0888L10.3417 9.3175C10.3037 9.10016 10.3764 8.87883 10.5351 8.72483L12.5591 6.7675L9.75706 6.3595C9.5404 6.32816 9.35306 6.19283 9.25573 5.99683L7.9984 3.4675L6.74106 5.99683C6.64373 6.19283 6.4564 6.32816 6.23973 6.3595L3.43773 6.7675L5.46173 8.72483C5.6204 8.87883 5.69306 9.10016 5.65506 9.3175L5.17706 12.0888L7.68973 10.7755C7.7864 10.7255 7.8924 10.7002 7.9984 10.7002ZM11.7064 13.9702C11.6004 13.9702 11.4944 13.9455 11.3977 13.8948L7.9984 12.1188L4.59906 13.8948C4.37373 14.0122 4.10173 13.9915 3.8984 13.8422C3.69306 13.6928 3.59106 13.4402 3.63373 13.1902L4.28173 9.43816L1.53506 6.7815C1.35173 6.60483 1.2864 6.3395 1.3644 6.0975C1.44173 5.8555 1.65106 5.6795 1.9024 5.64283L5.70306 5.09083L7.40106 1.6735C7.6264 1.22016 8.3704 1.22016 8.59573 1.6735L10.2937 5.09083L14.0944 5.64283C14.3457 5.6795 14.5551 5.8555 14.6324 6.0975C14.7104 6.3395 14.6451 6.60483 14.4617 6.7815L11.7151 9.43816L12.3631 13.1902C12.4057 13.4402 12.3037 13.6928 12.0984 13.8422C11.9831 13.9275 11.8451 13.9702 11.7064 13.9702Z" fill="#3B5998"/>
</svg>
