<svg width="24" height="24" viewBox="0 0 24 24" fill="none" xmlns="http://www.w3.org/2000/svg">
<path fill-rule="evenodd" clip-rule="evenodd" d="M10.9995 9C10.9995 8.448 11.4475 8 11.9995 8C12.5515 8 12.9995 8.448 12.9995 9V13C12.9995 13.552 12.5515 14 11.9995 14C11.4475 14 10.9995 13.552 10.9995 13V9ZM10.9995 16C10.9995 15.448 11.4475 15 11.9995 15C12.5515 15 12.9995 15.448 12.9995 16C12.9995 16.552 12.5515 17 11.9995 17C11.4475 17 10.9995 16.552 10.9995 16ZM20.8642 18.353C20.6352 18.758 20.1892 19 19.6712 19H4.32721C3.80921 19 3.36321 18.758 3.13521 18.353C3.02721 18.163 2.88521 17.776 3.15221 17.336L10.8232 4.618C11.2902 3.844 12.7082 3.844 13.1752 4.618L20.8472 17.336C21.1132 17.776 20.9722 18.163 20.8642 18.353ZM22.5602 16.303L14.8882 3.584C14.2892 2.592 13.2092 2 11.9992 2C10.7892 2 9.70921 2.592 9.11121 3.584L1.43921 16.303C0.870211 17.246 0.853211 18.38 1.39321 19.336C1.97221 20.363 3.09721 21 4.32721 21H19.6712C20.9022 21 22.0262 20.363 22.6062 19.336C23.1462 18.38 23.1292 17.246 22.5602 16.303Z" fill="#231F20"/>
</svg>
