<svg width="16" height="16" viewBox="0 0 16 16" fill="none" xmlns="http://www.w3.org/2000/svg">
<path fill-rule="evenodd" clip-rule="evenodd" d="M6.66927 10.6667C6.66927 11.0334 6.36927 11.3334 6.0026 11.3334C5.63594 11.3334 5.33594 11.0334 5.33594 10.6667V8.00004C5.33594 7.63337 5.63594 7.33337 6.0026 7.33337C6.36927 7.33337 6.66927 7.63337 6.66927 8.00004V10.6667ZM10.6693 10.6667C10.6693 11.0334 10.3693 11.3334 10.0026 11.3334C9.63594 11.3334 9.33594 11.0334 9.33594 10.6667V8.00004C9.33594 7.63337 9.63594 7.33337 10.0026 7.33337C10.3693 7.33337 10.6693 7.63337 10.6693 8.00004V10.6667ZM12.0026 12.6667C12.0026 13.034 11.7039 13.3334 11.3359 13.3334H4.66927C4.30127 13.3334 4.0026 13.034 4.0026 12.6667V5.33337H12.0026V12.6667ZM6.66927 2.88537C6.66927 2.78204 6.81194 2.66671 7.0026 2.66671H9.0026C9.19327 2.66671 9.33594 2.78204 9.33594 2.88537V4.00004H6.66927V2.88537ZM14.0026 4.00004H13.3359H10.6693V2.88537C10.6693 2.02937 9.92194 1.33337 9.0026 1.33337H7.0026C6.08327 1.33337 5.33594 2.02937 5.33594 2.88537V4.00004H2.66927H2.0026C1.63594 4.00004 1.33594 4.30004 1.33594 4.66671C1.33594 5.03337 1.63594 5.33337 2.0026 5.33337H2.66927V12.6667C2.66927 13.7694 3.5666 14.6667 4.66927 14.6667H11.3359C12.4386 14.6667 13.3359 13.7694 13.3359 12.6667V5.33337H14.0026C14.3693 5.33337 14.6693 5.03337 14.6693 4.66671C14.6693 4.30004 14.3693 4.00004 14.0026 4.00004Z" fill="#3B5998"/>
</svg>
