<svg width="12" height="12" viewBox="0 0 12 12" fill="none" xmlns="http://www.w3.org/2000/svg">
<path fill-rule="evenodd" clip-rule="evenodd" d="M2.5 2C2.36739 2 2.24021 2.05268 2.14645 2.14645C2.05268 2.24021 2 2.36739 2 2.5C2 2.63261 2.05268 2.75979 2.14645 2.85355C2.24021 2.94732 2.36739 3 2.5 3H9V2H2.5ZM10 3V1.5C10 1.22386 9.77614 1 9.5 1H2.5C2.10218 1 1.72064 1.15804 1.43934 1.43934C1.15804 1.72064 1 2.10218 1 2.5C1 2.89782 1.15804 3.27936 1.43934 3.56066C1.72064 3.84196 2.10218 4 2.5 4H10V6C10 6.27614 10.2239 6.5 10.5 6.5C10.7761 6.5 11 6.27614 11 6V3.5C11 3.22386 10.7761 3 10.5 3H10Z" fill="#1D1F30"/>
<path fill-rule="evenodd" clip-rule="evenodd" d="M1.5 2C1.77614 2 2 2.22386 2 2.5V9.5C2 9.63261 2.05268 9.75979 2.14645 9.85355C2.24021 9.94732 2.36739 10 2.5 10H10V8C10 7.72386 10.2239 7.5 10.5 7.5C10.7761 7.5 11 7.72386 11 8V10.5C11 10.7761 10.7761 11 10.5 11H2.5C2.10217 11 1.72064 10.842 1.43934 10.5607C1.15804 10.2794 1 9.89782 1 9.5V2.5C1 2.22386 1.22386 2 1.5 2Z" fill="#1D1F30"/>
<path fill-rule="evenodd" clip-rule="evenodd" d="M7.93934 5.93934C8.22064 5.65804 8.60217 5.5 9 5.5H11C11.2761 5.5 11.5 5.72386 11.5 6V8C11.5 8.27614 11.2761 8.5 11 8.5H9C8.60217 8.5 8.22064 8.34196 7.93934 8.06066C7.65804 7.77936 7.5 7.39783 7.5 7C7.5 6.60217 7.65804 6.22064 7.93934 5.93934ZM9 6.5C8.86739 6.5 8.74022 6.55268 8.64645 6.64645C8.55268 6.74022 8.5 6.86739 8.5 7C8.5 7.13261 8.55268 7.25978 8.64645 7.35355C8.74022 7.44732 8.86739 7.5 9 7.5H10.5V6.5H9Z" fill="#1D1F30"/>
</svg>
