<svg width="12" height="12" viewBox="0 0 12 12" fill="none" xmlns="http://www.w3.org/2000/svg">
<path d="M5.89998 7.74999H4.84998C4.69998 7.34999 4.34998 7.04999 3.89998 7.04999C3.34998 7.04999 2.84998 7.49999 2.84998 8.04999C2.84998 8.59999 3.29998 9.04999 3.89998 9.04999C4.34998 9.04999 4.74998 8.74999 4.84998 8.34999H5.89998C6.09998 8.34999 6.09998 8.19999 6.09998 7.99999C6.09998 7.79999 6.09998 7.74999 5.89998 7.74999ZM3.89998 8.44999C3.69998 8.44999 3.54998 8.29999 3.54998 8.09999C3.54998 7.89999 3.69998 7.74999 3.89998 7.74999C4.09998 7.74999 4.24998 7.89999 4.24998 8.09999C4.24998 8.29999 4.09998 8.44999 3.89998 8.44999Z" fill="#1D1F30"/>
<path d="M10.8 7.7L9.19999 6.85C9.09999 6.8 8.94999 6.8 8.84999 6.85L7.24999 7.7C7.09999 7.75 7.04999 7.9 7.04999 8.05V9.7C7.04999 9.85 7.14999 10 7.24999 10.05L8.84999 10.9C8.89999 11 8.94999 11 8.99999 11C9.04999 11 9.09999 11 9.19999 10.95L10.8 10.1C10.95 10.05 11 9.9 11 9.75V8.1C11 7.95 10.9 7.8 10.8 7.7ZM10.2 9.5L8.99999 10.1L7.79999 9.5V8.35L8.99999 7.75L10.2 8.35V9.5Z" fill="#1D1F30"/>
<path d="M9.79999 3.25C9.74999 2.75 9.44999 1.45 9.39999 1.3C9.34999 1.15 9.19999 1 8.99999 1H1.79999C1.59999 1 1.44999 1.15 1.39999 1.3C1.39999 1.45 1.04999 2.75 0.999988 3.25C0.949988 3.6 1.04999 3.95 1.29999 4.25C1.29999 4.3 1.34999 4.3 1.39999 4.3V9.7C1.39999 9.95 1.59999 10.1 1.79999 10.1H5.79999C5.99999 10.1 6.19999 9.9 6.19999 9.7V8.05C6.19999 7.8 5.99999 7.65 5.79999 7.65H4.74999C4.84999 7.9 4.84999 8.2 4.74999 8.5H5.39999V9.35H2.19999V4.75C2.24999 4.75 2.34999 4.75 2.39999 4.75C2.59999 4.75 2.79999 4.7 2.99999 4.6H3.04999V4.85C2.64999 5 2.34999 5.35 2.34999 5.8C2.34999 6.35 2.79999 6.85 3.34999 6.85C3.89999 6.85 4.34999 6.4 4.34999 5.8C4.34999 5.35 4.04999 4.95 3.64999 4.85V4.6H3.69999C3.99999 4.7 4.19999 4.75 4.39999 4.75C4.79999 4.75 5.14999 4.6 5.39999 4.3C5.64999 4.55 5.99999 4.75 6.39999 4.75C6.79999 4.75 7.14999 4.6 7.39999 4.3C7.64999 4.55 7.99999 4.75 8.39999 4.75C8.44999 4.75 8.54999 4.75 8.59999 4.75V5.6H8.19999C8.29999 5.85 8.29999 6.15 8.24999 6.45H8.99999C9.19999 6.45 9.39999 6.25 9.39999 6.05V4.35C9.44999 4.3 9.44999 4.3 9.49999 4.3C9.69999 3.95 9.84999 3.6 9.79999 3.25ZM3.39999 6.15C3.19999 6.15 3.04999 6 3.04999 5.8C3.04999 5.6 3.19999 5.45 3.39999 5.45C3.59999 5.45 3.74999 5.6 3.74999 5.8C3.74999 6 3.59999 6.15 3.39999 6.15ZM8.89999 3.7C8.79999 3.85 8.59999 3.9 8.39999 3.9C8.04999 3.9 7.79999 3.6 7.79999 3.3C7.79999 3.05 7.59999 2.9 7.39999 2.9C7.19999 2.9 6.99999 3.1 6.99999 3.3C6.99999 3.65 6.74999 3.9 6.39999 3.9C6.04999 3.9 5.79999 3.6 5.79999 3.3C5.79999 3.05 5.59999 2.9 5.39999 2.9C5.19999 2.9 4.99999 3.1 4.99999 3.3C4.99999 3.65 4.74999 3.9 4.39999 3.9C4.04999 3.9 3.79999 3.6 3.79999 3.3C3.79999 3.05 3.59999 2.9 3.39999 2.9C3.19999 2.9 2.99999 3.05 2.99999 3.3C2.99999 3.65 2.74999 3.9 2.39999 3.9C2.19999 3.9 2.04999 3.8 1.89999 3.7C1.84999 3.6 1.79999 3.5 1.79999 3.35C1.84999 3.05 1.99999 2.35 2.09999 1.85H8.64999C8.74999 2.35 8.94999 3.05 8.94999 3.35C8.99999 3.5 8.94999 3.6 8.89999 3.7Z" fill="#1D1F30"/>
<path d="M8.99999 5.65001H8.29999C8.14999 5.25001 7.79999 4.95001 7.34999 4.95001C6.79999 4.95001 6.29999 5.40001 6.29999 5.95001C6.29999 6.50001 6.74999 6.95001 7.34999 6.95001C7.79999 6.95001 8.19999 6.65001 8.29999 6.25001H8.99999C9.19999 6.25001 9.19999 6.10001 9.19999 5.90001C9.19999 5.70001 9.19999 5.65001 8.99999 5.65001ZM7.29999 6.35001C7.09999 6.35001 6.94999 6.20001 6.94999 6.00001C6.94999 5.80001 7.09999 5.65001 7.29999 5.65001C7.49999 5.65001 7.64999 5.80001 7.64999 6.00001C7.64999 6.20001 7.49999 6.35001 7.29999 6.35001Z" fill="#1D1F30"/>
</svg>
