<svg width="12" height="12" viewBox="0 0 12 12" fill="none" xmlns="http://www.w3.org/2000/svg">
<path fill-rule="evenodd" clip-rule="evenodd" d="M9.6 6.65004C9.6 6.45004 9.75 6.30004 9.95 6.30004C10.15 6.30004 10.3 6.45004 10.3 6.65004C10.3 6.85004 10.15 7.00004 9.95 7.00004C9.8 7.00004 9.6 6.85004 9.6 6.65004ZM10 7.70004C10.6 7.70004 11.1 7.20004 11.1 6.65004C11.1 6.10004 10.6 5.60004 10 5.60004C9.5 5.60004 9.1 5.90004 8.95 6.30004H7.85C7.65 6.30004 7.5 6.45004 7.5 6.65004C7.5 6.85004 7.65 7.00004 7.85 7.00004H8.95C9.1 7.40004 9.5 7.70004 10 7.70004Z" fill="#1D1F30"/>
<path fill-rule="evenodd" clip-rule="evenodd" d="M9.70001 4.25001C9.55001 4.10001 9.55001 3.90001 9.70001 3.75001C9.85001 3.60001 10.05 3.60001 10.2 3.70001C10.35 3.85001 10.35 4.05001 10.2 4.20001C10.1 4.35001 9.85001 4.35001 9.70001 4.25001ZM10.75 4.70001C11.15 4.25001 11.15 3.55001 10.7 3.15001C10.25 2.75001 9.60001 2.80001 9.15001 3.25001C8.85001 3.60001 8.80001 4.10001 9.00001 4.50001L8.25001 5.40001C8.10001 5.55001 8.10001 5.80001 8.25001 5.90001C8.40001 6.05001 8.60001 6.00001 8.75001 5.85001L9.50001 4.95001C9.95001 5.15001 10.4 5.05001 10.75 4.70001Z" fill="#1D1F30"/>
<path fill-rule="evenodd" clip-rule="evenodd" d="M9.70001 9.15001C9.55001 9.30001 9.55001 9.50001 9.70001 9.65001C9.85001 9.80001 10.05 9.80001 10.2 9.70001C10.35 9.55001 10.35 9.35001 10.2 9.20001C10.05 9.00001 9.85001 9.00001 9.70001 9.15001ZM10.75 8.65001C11.15 9.10001 11.15 9.80001 10.7 10.2C10.25 10.6 9.60001 10.55 9.15001 10.1C8.85001 9.75001 8.80001 9.25001 9.00001 8.85001L8.25001 7.95001C8.10001 7.80001 8.10001 7.55001 8.25001 7.45001C8.40001 7.30001 8.60001 7.35001 8.75001 7.50001L9.50001 8.40001C9.90001 8.25001 10.4 8.30001 10.75 8.65001Z" fill="#1D1F30"/>
<path d="M8.4 8.05004H7.95C7.7 8.05004 7.5 7.90004 7.5 7.70004C7.5 7.50004 7.7 7.35004 7.9 7.35004H8.35C8.6 7.35004 8.8 7.50004 8.8 7.70004C8.85 7.90004 8.65 8.05004 8.4 8.05004Z" fill="#1D1F30"/>
<path d="M8.4 5.99999H7.95C7.7 5.99999 7.5 5.84999 7.5 5.64999C7.5 5.44999 7.7 5.29999 7.9 5.29999H8.35C8.6 5.29999 8.8 5.44999 8.8 5.64999C8.8 5.84999 8.6 5.99999 8.4 5.99999Z" fill="#1D1F30"/>
<path d="M8.44998 4.75C8.64998 4.75 8.79998 4.55 8.79998 4.3C8.79998 4.15 8.74998 4 8.64997 3.95L4.89998 0.95C4.79998 0.85 4.64998 0.85 4.54998 0.95L0.799976 3.95C0.599976 4.05 0.549976 4.35 0.649976 4.55C0.699976 4.65 0.799976 4.75 0.949976 4.75H1.64998V9H1.14998C0.949976 9 0.799976 9.2 0.799976 9.45C0.799976 9.7 0.949976 9.9 1.14998 9.9H8.29998C8.49998 9.9 8.64997 9.7 8.64997 9.45C8.64997 9.2 8.49998 9 8.29998 9H7.79998V4.75H8.44998ZM4.34998 9H2.29998V4.75H4.34998V9ZM7.09998 9H5.04998V4.75H7.09998V9ZM2.14998 3.85L4.74998 1.8L7.34998 3.85H2.14998Z" fill="#1D1F30"/>
</svg>
