<svg width="12" height="12" viewBox="0 0 12 12" fill="none" xmlns="http://www.w3.org/2000/svg">
<path fill-rule="evenodd" clip-rule="evenodd" d="M9.65 3.05L9.2 2.8L8.55 3.6L9.15 3.95V7.8L5.8 9.7L2.5 7.75V3.9L5.85 2L6.35 2.3L6.95 1.5L6.3 1.15C6 0.95 5.6 0.95 5.3 1.15L2 3.05C1.7 3.25 1.5 3.55 1.5 3.9V7.75C1.5 8.1 1.7 8.45 2 8.6L5.35 10.5C5.65 10.7 6.05 10.7 6.35 10.5L9.7 8.6C10 8.4 10.2 8.1 10.2 7.75V3.9C10.15 3.55 9.95 3.25 9.65 3.05Z" fill="#1D1F30"/>
<path fill-rule="evenodd" clip-rule="evenodd" d="M8.53753 1.99113L6.8375 4.39658C6.77269 4.34619 6.70789 4.2958 6.58256 4.25012C6.51775 4.19973 6.39243 4.15405 6.32762 4.10366L8.02765 1.69821C8.1401 1.57857 8.31736 1.50932 8.44697 1.61011C8.51178 1.6605 8.57659 1.71089 8.58088 1.766C8.58946 1.87621 8.59376 1.93132 8.53753 1.99113ZM5.82933 6.30463L4.99069 6.48083L4.80957 5.71877C4.71472 5.28264 5.04777 4.86862 5.4628 4.72541C5.70057 4.65145 5.88641 4.69242 6.08084 4.8436C6.27097 4.93967 6.40488 5.09556 6.42204 5.31598C6.63793 5.74269 6.30487 6.15671 5.82933 6.30463ZM9.30278 1.65433C9.2208 1.38352 9.0826 1.17252 8.82766 1.02606C8.3783 0.728414 7.66069 0.895185 7.32764 1.30921L5.47181 4.05943L5.4113 4.06414C4.57266 4.24034 3.96707 5.06367 4.14819 5.82572L4.35506 6.91841C4.36364 7.02862 4.42845 7.07902 4.49326 7.12941C4.55806 7.1798 4.6791 7.17038 4.80013 7.16095L5.99757 6.90137C6.83621 6.72517 7.4418 5.90184 7.26068 5.13979L7.25639 5.08468L9.17274 2.32974C9.34141 2.15028 9.38046 1.87004 9.30278 1.65433Z" fill="#1D1F30"/>
</svg>
