<svg width="12" height="12" viewBox="0 0 12 12" fill="none" xmlns="http://www.w3.org/2000/svg">
<path fill-rule="evenodd" clip-rule="evenodd" d="M9.9 9.2H5.5C5.4 9.2 5.3 9.1 5.3 9V3C5.3 2.9 5.4 2.8 5.5 2.8H7.3V4.45C7.3 5.1 7.8 5.6 8.4 5.6H10.1V9C10.1 9.1 10 9.2 9.9 9.2ZM9.95 4.8H8.4C8.25 4.8 8.1 4.65 8.1 4.45V2.8H8.15L9.95 4.8ZM10.8 4.55L8.6 2.15C8.55 2.05 8.45 2 8.3 2H5.5C4.95 2 4.5 2.45 4.5 3V9C4.5 9.55 4.95 10 5.5 10H9.85C10.4 10 10.85 9.55 10.85 9V4.8C10.9 4.7 10.85 4.6 10.8 4.55Z" fill="#1D1F30"/>
<path fill-rule="evenodd" clip-rule="evenodd" d="M2.7 6.25C2.7 6.5 2.5 6.65 2.3 6.65C2.05 6.65 1.85 6.45 1.85 6.25C1.85 6.05 2.05 5.85 2.3 5.85C2.5 5.85 2.7 6 2.7 6.25ZM2.3 5C1.55 5 1 5.55 1 6.25C1 6.95 1.55 7.5 2.3 7.5C2.85 7.5 3.3 7.15 3.5 6.65H4.8C5.05 6.65 5.25 6.45 5.25 6.25C5.25 6.05 5.05 5.85 4.8 5.85H3.45C3.3 5.35 2.85 5 2.3 5Z" fill="#1D1F30"/>
<path fill-rule="evenodd" clip-rule="evenodd" d="M2.55002 9.85001C2.70002 10 2.75002 10.25 2.55002 10.45C2.40002 10.6 2.10002 10.65 1.95002 10.5C1.80002 10.35 1.75002 10.1 1.95002 9.90001C2.15002 9.70001 2.40002 9.70001 2.55002 9.85001ZM1.35002 9.30001C0.85002 9.80001 0.90002 10.6 1.40002 11.1C1.90002 11.6 2.75002 11.5 3.20002 11C3.60002 10.6 3.65002 10 3.40002 9.55001L4.25002 8.50001C4.40002 8.35001 4.40002 8.05001 4.25002 7.90001C4.10002 7.75001 3.80002 7.75001 3.65002 7.95001L2.80002 9.00001C2.30002 8.80001 1.75002 8.90001 1.35002 9.30001Z" fill="#1D1F30"/>
<path fill-rule="evenodd" clip-rule="evenodd" d="M2.55002 2.59999C2.70002 2.44999 2.75002 2.19999 2.55002 1.99999C2.45002 1.84999 2.15002 1.79999 2.00002 1.94999C1.85002 2.09999 1.80002 2.39999 2.00002 2.54999C2.15002 2.74999 2.40002 2.74999 2.55002 2.59999ZM1.35002 3.14999C0.85002 2.64999 0.90002 1.84999 1.40002 1.34999C1.90002 0.899987 2.70002 0.899987 3.20002 1.44999C3.60002 1.84999 3.65002 2.44999 3.40002 2.89999L4.25002 3.94999C4.40002 4.09999 4.40002 4.39999 4.25002 4.54999C4.05002 4.69999 3.80002 4.69999 3.65002 4.49999L2.80002 3.44999C2.30002 3.64999 1.75002 3.54999 1.35002 3.14999Z" fill="#1D1F30"/>
<path d="M4.04999 3.84998H4.54999C4.84999 3.84998 5.04999 4.04998 5.04999 4.24998C5.04999 4.49998 4.84999 4.69998 4.54999 4.69998H4.04999C3.74999 4.69998 3.54999 4.49998 3.54999 4.29998C3.54999 4.04998 3.79999 3.84998 4.04999 3.84998Z" fill="#1D1F30"/>
<path d="M4.09998 7.79999H4.59998C4.89998 7.79999 5.09998 7.99999 5.09998 8.19999C5.09998 8.44999 4.89998 8.64999 4.59998 8.64999H4.09998C3.79998 8.64999 3.59998 8.44999 3.59998 8.24999C3.59998 7.99999 3.84998 7.79999 4.09998 7.79999Z" fill="#1D1F30"/>
</svg>
