<svg width="12" height="12" viewBox="0 0 12 12" fill="none" xmlns="http://www.w3.org/2000/svg">
<path fill-rule="evenodd" clip-rule="evenodd" d="M9.34522 7.98146L6.50022 9.30346V5.94546L9.50023 4.55196V7.76946C9.50023 7.85646 9.44122 7.93746 9.34522 7.98146ZM2.65172 7.98196C2.55722 7.93796 2.49922 7.85696 2.50022 7.76596V4.55196L5.50022 5.94546V9.30446L2.65172 7.98196ZM5.85372 2.53196C5.89922 2.51046 5.94972 2.49996 6.00022 2.49996C6.05022 2.49996 6.10072 2.51046 6.14622 2.53196L8.81072 3.76896L6.00022 5.07496L3.18922 3.76896L5.85372 2.53196ZM10.3282 3.62946C10.3267 3.62546 10.3272 3.62096 10.3252 3.61696C10.3237 3.61296 10.3197 3.61046 10.3172 3.60646C10.2942 3.56846 10.2662 3.53496 10.2397 3.49996C10.2242 3.48296 10.2117 3.46396 10.1947 3.44946C10.0772 3.31146 9.93872 3.18996 9.76672 3.11046L6.56672 1.62396C6.56622 1.62396 6.56572 1.62396 6.56572 1.62346C6.20622 1.45746 5.79372 1.45796 5.43322 1.62396L2.23472 3.10996C2.06272 3.18946 1.92372 3.31046 1.80622 3.44846C1.78772 3.46396 1.77422 3.48496 1.75772 3.50346C1.73172 3.53696 1.70522 3.56946 1.68322 3.60546C1.68072 3.60996 1.67672 3.61296 1.67472 3.61696C1.67272 3.62146 1.67322 3.62596 1.67122 3.63046C1.56572 3.81146 1.50022 4.01496 1.50022 4.22896V7.76246C1.49622 8.23746 1.78222 8.67946 2.22922 8.88846L5.42872 10.3745C5.60972 10.459 5.80372 10.501 5.99822 10.501C6.19222 10.501 6.38622 10.459 6.56672 10.375L9.76522 8.88896C10.2112 8.68296 10.4997 8.24396 10.5002 7.76996V4.22846C10.4997 4.01446 10.4342 3.81096 10.3282 3.62946Z" fill="#1D1F30"/>
</svg>
