<svg width="25" height="24" viewBox="0 0 25 24" fill="none" xmlns="http://www.w3.org/2000/svg">
<g id="Icons / Unlock">
<path id="Color" fill-rule="evenodd" clip-rule="evenodd" d="M12.9258 16C12.3738 16 11.9258 15.552 11.9258 15C11.9258 14.448 12.3738 14 12.9258 14C13.4778 14 13.9258 14.448 13.9258 15C13.9258 15.552 13.4778 16 12.9258 16ZM12.9258 12C11.2718 12 9.92578 13.346 9.92578 15C9.92578 16.654 11.2718 18 12.9258 18C14.5798 18 15.9258 16.654 15.9258 15C15.9258 13.346 14.5798 12 12.9258 12ZM18.9258 19C18.9258 19.552 18.4778 20 17.9258 20H7.92578C7.37378 20 6.92578 19.552 6.92578 19V11C6.92578 10.448 7.37378 10 7.92578 10H17.9258C18.4778 10 18.9258 10.448 18.9258 11V19ZM17.9258 8H10.9258V6C10.9258 4.897 11.8228 4 12.9258 4C14.0288 4 14.9258 4.897 14.9258 6C14.9258 6.553 15.3728 7 15.9258 7C16.4788 7 16.9258 6.553 16.9258 6C16.9258 3.794 15.1318 2 12.9258 2C10.7198 2 8.92578 3.794 8.92578 6V8H7.92578C6.27178 8 4.92578 9.346 4.92578 11V19C4.92578 20.654 6.27178 22 7.92578 22H17.9258C19.5798 22 20.9258 20.654 20.9258 19V11C20.9258 9.346 19.5798 8 17.9258 8Z" fill="white"/>
</g>
</svg>
