<svg width="25" height="24" viewBox="0 0 25 24" fill="none" xmlns="http://www.w3.org/2000/svg">
<g id="Icons / wallet">
<path id="Vector (Stroke)" fill-rule="evenodd" clip-rule="evenodd" d="M5.92578 4C5.66056 4 5.40621 4.10536 5.21867 4.29289C5.03114 4.48043 4.92578 4.73478 4.92578 5C4.92578 5.26522 5.03114 5.51957 5.21867 5.70711C5.40621 5.89464 5.66056 6 5.92578 6H18.9258V4H5.92578ZM20.9258 6V3C20.9258 2.44772 20.4781 2 19.9258 2H5.92578C5.13013 2 4.36707 2.31607 3.80446 2.87868C3.24185 3.44129 2.92578 4.20435 2.92578 5C2.92578 5.79565 3.24185 6.55871 3.80446 7.12132C4.36707 7.68393 5.13013 8 5.92578 8H20.9258V12C20.9258 12.5523 21.3735 13 21.9258 13C22.4781 13 22.9258 12.5523 22.9258 12V7C22.9258 6.44772 22.4781 6 21.9258 6H20.9258Z" fill="white"/>
<path id="Vector (Stroke)_2" fill-rule="evenodd" clip-rule="evenodd" d="M3.92578 4C4.47807 4 4.92578 4.44772 4.92578 5V19C4.92578 19.2652 5.03114 19.5196 5.21867 19.7071C5.40621 19.8946 5.66057 20 5.92578 20H20.9258V16C20.9258 15.4477 21.3735 15 21.9258 15C22.4781 15 22.9258 15.4477 22.9258 16V21C22.9258 21.5523 22.4781 22 21.9258 22H5.92578C5.13013 22 4.36707 21.6839 3.80446 21.1213C3.24185 20.5587 2.92578 19.7956 2.92578 19V5C2.92578 4.44772 3.3735 4 3.92578 4Z" fill="white"/>
<path id="Vector (Stroke)_3" fill-rule="evenodd" clip-rule="evenodd" d="M16.8045 11.8787C17.3671 11.3161 18.1301 11 18.9258 11H22.9258C23.4781 11 23.9258 11.4477 23.9258 12V16C23.9258 16.5523 23.4781 17 22.9258 17H18.9258C18.1301 17 17.3671 16.6839 16.8045 16.1213C16.2419 15.5587 15.9258 14.7957 15.9258 14C15.9258 13.2043 16.2419 12.4413 16.8045 11.8787ZM18.9258 13C18.6606 13 18.4062 13.1054 18.2187 13.2929C18.0311 13.4804 17.9258 13.7348 17.9258 14C17.9258 14.2652 18.0311 14.5196 18.2187 14.7071C18.4062 14.8946 18.6606 15 18.9258 15H21.9258V13H18.9258Z" fill="white"/>
</g>
</svg>
