<svg width="25" height="24" viewBox="0 0 25 24" fill="none" xmlns="http://www.w3.org/2000/svg">
<path fill-rule="evenodd" clip-rule="evenodd" d="M11.415 15H7.41504C6.86504 15 6.41504 14.55 6.41504 14C6.41504 13.45 6.86504 13 7.41504 13H11.415C11.965 13 12.415 13.45 12.415 14C12.415 14.55 11.965 15 11.415 15ZM17.415 15H15.415C14.865 15 14.415 14.55 14.415 14C14.415 13.45 14.865 13 15.415 13H17.415C17.965 13 18.415 13.45 18.415 14C18.415 14.55 17.965 15 17.415 15ZM20.415 16C20.415 16.551 19.967 17 19.415 17H5.41504C4.86304 17 4.41504 16.551 4.41504 16V11H20.415V16ZM4.41504 8C4.41504 7.449 4.86304 7 5.41504 7H19.415C19.967 7 20.415 7.449 20.415 8V9H4.41504V8ZM19.415 5H5.41504C3.76104 5 2.41504 6.346 2.41504 8V16C2.41504 17.654 3.76104 19 5.41504 19H19.415C21.069 19 22.415 17.654 22.415 16V8C22.415 6.346 21.069 5 19.415 5Z" fill="white"/>
</svg>
