<svg width="16" height="16" viewBox="0 0 16 16" fill="none" xmlns="http://www.w3.org/2000/svg">
<path fill-rule="evenodd" clip-rule="evenodd" d="M3.33334 2.66536C3.15652 2.66536 2.98696 2.7356 2.86193 2.86063C2.73691 2.98565 2.66667 3.15522 2.66667 3.33203C2.66667 3.50884 2.73691 3.67841 2.86193 3.80344C2.98696 3.92846 3.15652 3.9987 3.33334 3.9987H12V2.66536H3.33334ZM13.3333 3.9987V1.9987C13.3333 1.63051 13.0349 1.33203 12.6667 1.33203H3.33334C2.8029 1.33203 2.2942 1.54274 1.91912 1.91782C1.54405 2.29289 1.33334 2.8016 1.33334 3.33203C1.33334 3.86246 1.54405 4.37117 1.91912 4.74624C2.2942 5.12132 2.8029 5.33203 3.33334 5.33203H13.3333V7.9987C13.3333 8.36689 13.6318 8.66536 14 8.66536C14.3682 8.66536 14.6667 8.36689 14.6667 7.9987V4.66536C14.6667 4.29717 14.3682 3.9987 14 3.9987H13.3333Z" fill="#3B5998"/>
<path fill-rule="evenodd" clip-rule="evenodd" d="M2 2.66797C2.36819 2.66797 2.66667 2.96645 2.66667 3.33464V12.668C2.66667 12.8448 2.73691 13.0143 2.86193 13.1394C2.98696 13.2644 3.15653 13.3346 3.33334 13.3346H13.3333V10.668C13.3333 10.2998 13.6318 10.0013 14 10.0013C14.3682 10.0013 14.6667 10.2998 14.6667 10.668V14.0013C14.6667 14.3695 14.3682 14.668 14 14.668H3.33334C2.8029 14.668 2.29419 14.4573 1.91912 14.0822C1.54405 13.7071 1.33334 13.1984 1.33334 12.668V3.33464C1.33334 2.96645 1.63181 2.66797 2 2.66797Z" fill="#3B5998"/>
<path fill-rule="evenodd" clip-rule="evenodd" d="M10.5858 7.91782C10.9609 7.54275 11.4696 7.33203 12 7.33203H14.6667C15.0349 7.33203 15.3333 7.63051 15.3333 7.9987V10.6654C15.3333 11.0336 15.0349 11.332 14.6667 11.332H12C11.4696 11.332 10.9609 11.1213 10.5858 10.7462C10.2107 10.3712 10 9.86246 10 9.33203C10 8.8016 10.2107 8.29289 10.5858 7.91782ZM12 8.66536C11.8232 8.66536 11.6536 8.7356 11.5286 8.86063C11.4036 8.98565 11.3333 9.15522 11.3333 9.33203C11.3333 9.50884 11.4036 9.67841 11.5286 9.80344C11.6536 9.92846 11.8232 9.9987 12 9.9987H14V8.66536H12Z" fill="#3B5998"/>
</svg>
