<?xml version="1.0" standalone="no"?>
<!DOCTYPE svg PUBLIC "-//W3C//DTD SVG 20010904//EN"
 "http://www.w3.org/TR/2001/REC-SVG-20010904/DTD/svg10.dtd">
<svg version="1.0" xmlns="http://www.w3.org/2000/svg"
 width="700.000000pt" height="700.000000pt" viewBox="0 0 700.000000 700.000000"
 preserveAspectRatio="xMidYMid meet">
<metadata>
Created by potrace 1.14, written by Peter Selinger 2001-2017
</metadata>
<g transform="translate(0.000000,700.000000) scale(0.100000,-0.100000)"
fill="#000000" stroke="none">
<path d="M3265 6994 c-22 -2 -92 -9 -155 -15 -660 -62 -1287 -325 -1818 -763
-145 -119 -435 -414 -552 -561 -407 -511 -635 -1061 -717 -1725 -24 -202 -24
-656 0 -860 95 -782 411 -1441 962 -2009 579 -596 1265 -937 2085 -1037 203
-25 657 -25 860 0 785 95 1433 407 1999 960 695 680 1039 1456 1068 2411 23
787 -193 1507 -635 2114 -118 162 -212 272 -376 440 -589 599 -1249 930 -2051
1027 -122 14 -579 27 -670 18z m2375 -3299 l0 -1555 -615 0 -615 0 0 305 0
305 305 0 305 0 0 681 c0 569 -2 680 -14 676 -7 -3 -829 -447 -1826 -986 -997
-540 -1814 -981 -1816 -981 -2 0 -3 169 -2 376 l3 376 2135 1179 c1174 648
2136 1179 2138 1179 1 0 2 -700 2 -1555z"/>
</g>
</svg>
